# File generated by ImageToStl.com - Free Image and 3D model conversion tools

mtllib random.mtl

o obj1
v 0.01156107 0.01664611 0.02
v 0.01156107 0.01664611 0.01
v 0.0115 0.0175 0.02
v 0.0115 0.0175 0.01
v 0.01156107 0.01835389 0.02
v 0.01156107 0.01835389 0.01
v 0.01174304 0.0191904 0.02
v 0.01174304 0.0191904 0.01
v 0.01204221 0.01999249 0.02
v 0.01204221 0.01999249 0.01
v 0.01245248 0.02074385 0.02
v 0.01245248 0.02074385 0.01
v 0.0129655 0.02142916 0.02
v 0.0129655 0.02142916 0.01
v 0.01357084 0.0220345 0.02
v 0.01357084 0.0220345 0.01
v 0.01425616 0.02254752 0.02
v 0.01425616 0.02254752 0.01
v 0.01500751 0.02295779 0.02
v 0.01500751 0.02295779 0.01
v 0.0158096 0.02325696 0.02
v 0.0158096 0.02325696 0.01
v 0.01664611 0.02343893 0.02
v 0.01664611 0.02343893 0.01
v 0.0175 0.0235 0.02
v 0.0175 0.0235 0.01
v 0.01835389 0.02343893 0.02
v 0.01835389 0.02343893 0.01
v 0.0191904 0.02325696 0.02
v 0.0191904 0.02325696 0.01
v 0.01999249 0.02295779 0.02
v 0.01999249 0.02295779 0.01
v 0.02074385 0.02254752 0.02
v 0.02074385 0.02254752 0.01
v 0.02142916 0.0220345 0.02
v 0.02142916 0.0220345 0.01
v 0.0220345 0.02142916 0.02
v 0.0220345 0.02142916 0.01
v 0.02254752 0.02074385 0.02
v 0.02254752 0.02074385 0.01
v 0.02295779 0.01999249 0.02
v 0.02295779 0.01999249 0.01
v 0.02325696 0.0191904 0.02
v 0.02325696 0.0191904 0.01
v 0.02343893 0.01835389 0.02
v 0.02343893 0.01835389 0.01
v 0.0235 0.0175 0.02
v 0.0235 0.0175 0.01
v 0.02343893 0.01664611 0.02
v 0.02343893 0.01664611 0.01
v 0.02325696 0.0158096 0.02
v 0.02325696 0.0158096 0.01
v 0.02295779 0.01500751 0.02
v 0.02295779 0.01500751 0.01
v 0.02254752 0.01425616 0.02
v 0.02254752 0.01425616 0.01
v 0.0220345 0.01357084 0.02
v 0.0220345 0.01357084 0.01
v 0.02142916 0.0129655 0.02
v 0.02142916 0.0129655 0.01
v 0.02074385 0.01245248 0.02
v 0.02074385 0.01245248 0.01
v 0.01999249 0.01204221 0.02
v 0.01999249 0.01204221 0.01
v 0.0191904 0.01174304 0.02
v 0.0191904 0.01174304 0.01
v 0.01835389 0.01156107 0.02
v 0.01835389 0.01156107 0.01
v 0.0175 0.0115 0.02
v 0.0175 0.0115 0.01
v 0.01664611 0.01156107 0.02
v 0.01664611 0.01156107 0.01
v 0.0158096 0.01174304 0.02
v 0.0158096 0.01174304 0.01
v 0.01500751 0.01204221 0.02
v 0.01500751 0.01204221 0.01
v 0.01425616 0.01245248 0.02
v 0.01425616 0.01245248 0.01
v 0.01357084 0.0129655 0.02
v 0.01357084 0.0129655 0.01
v 0.0129655 0.01357084 0.02
v 0.0129655 0.01357084 0.01
v 0.01245248 0.01425616 0.02
v 0.01245248 0.01425616 0.01
v 0.01204221 0.01500751 0.02
v 0.01204221 0.01500751 0.01
v 0.01174304 0.0158096 0.02
v 0.01174304 0.0158096 0.01
v 0.01431245 -0.01813404 0.02
v 0.01431245 -0.01813404 0.01
v 0.01425 -0.0175 0.02
v 0.01425 -0.0175 0.01
v 0.01431245 -0.01686596 0.02
v 0.01431245 -0.01686596 0.01
v 0.01449739 -0.01625628 0.02
v 0.01449739 -0.01625628 0.01
v 0.01479772 -0.0156944 0.02
v 0.01479772 -0.0156944 0.01
v 0.0152019 -0.0152019 0.02
v 0.0152019 -0.0152019 0.01
v 0.0156944 -0.01479772 0.02
v 0.0156944 -0.01479772 0.01
v 0.01625628 -0.01449739 0.02
v 0.01625628 -0.01449739 0.01
v 0.01686596 -0.01431245 0.02
v 0.01686596 -0.01431245 0.01
v 0.0175 -0.01425 0.02
v 0.0175 -0.01425 0.01
v 0.01813404 -0.01431245 0.02
v 0.01813404 -0.01431245 0.01
v 0.01874372 -0.01449739 0.02
v 0.01874372 -0.01449739 0.01
v 0.0193056 -0.01479772 0.02
v 0.0193056 -0.01479772 0.01
v 0.0197981 -0.0152019 0.02
v 0.0197981 -0.0152019 0.01
v 0.02020228 -0.0156944 0.02
v 0.02020228 -0.0156944 0.01
v 0.02050261 -0.01625628 0.02
v 0.02050261 -0.01625628 0.01
v 0.02068755 -0.01686596 0.02
v 0.02068755 -0.01686596 0.01
v 0.02075 -0.0175 0.02
v 0.02075 -0.0175 0.01
v 0.02068755 -0.01813404 0.02
v 0.02068755 -0.01813404 0.01
v 0.02050261 -0.01874372 0.02
v 0.02050261 -0.01874372 0.01
v 0.02020228 -0.0193056 0.02
v 0.02020228 -0.0193056 0.01
v 0.0197981 -0.0197981 0.02
v 0.0197981 -0.0197981 0.01
v 0.0193056 -0.02020228 0.02
v 0.0193056 -0.02020228 0.01
v 0.01874372 -0.02050261 0.02
v 0.01874372 -0.02050261 0.01
v 0.01813404 -0.02068755 0.02
v 0.01813404 -0.02068755 0.01
v 0.0175 -0.02075 0.02
v 0.0175 -0.02075 0.01
v 0.01686596 -0.02068755 0.02
v 0.01686596 -0.02068755 0.01
v 0.01625628 -0.02050261 0.02
v 0.01625628 -0.02050261 0.01
v 0.0156944 -0.02020228 0.02
v 0.0156944 -0.02020228 0.01
v 0.0152019 -0.0197981 0.02
v 0.0152019 -0.0197981 0.01
v 0.01479772 -0.0193056 0.02
v 0.01479772 -0.0193056 0.01
v 0.01449739 -0.01874372 0.02
v 0.01449739 -0.01874372 0.01
v -0.02343893 -0.01835389 0.02
v -0.02343893 -0.01835389 0.01
v -0.0235 -0.0175 0.02
v -0.0235 -0.0175 0.01
v -0.02343893 -0.01664611 0.02
v -0.02343893 -0.01664611 0.01
v -0.02325696 -0.0158096 0.02
v -0.02325696 -0.0158096 0.01
v -0.02295779 -0.01500751 0.02
v -0.02295779 -0.01500751 0.01
v -0.02254752 -0.01425616 0.02
v -0.02254752 -0.01425616 0.01
v -0.0220345 -0.01357084 0.02
v -0.0220345 -0.01357084 0.01
v -0.02142916 -0.0129655 0.02
v -0.02142916 -0.0129655 0.01
v -0.02074385 -0.01245248 0.02
v -0.02074385 -0.01245248 0.01
v -0.01999249 -0.01204221 0.02
v -0.01999249 -0.01204221 0.01
v -0.0191904 -0.01174304 0.02
v -0.0191904 -0.01174304 0.01
v -0.01835389 -0.01156107 0.02
v -0.01835389 -0.01156107 0.01
v -0.0175 -0.0115 0.02
v -0.0175 -0.0115 0.01
v -0.01664611 -0.01156107 0.02
v -0.01664611 -0.01156107 0.01
v -0.0158096 -0.01174304 0.02
v -0.0158096 -0.01174304 0.01
v -0.01500751 -0.01204221 0.02
v -0.01500751 -0.01204221 0.01
v -0.01425616 -0.01245248 0.02
v -0.01425616 -0.01245248 0.01
v -0.01357084 -0.0129655 0.02
v -0.01357084 -0.0129655 0.01
v -0.0129655 -0.01357084 0.02
v -0.0129655 -0.01357084 0.01
v -0.01245248 -0.01425616 0.02
v -0.01245248 -0.01425616 0.01
v -0.01204221 -0.01500751 0.02
v -0.01204221 -0.01500751 0.01
v -0.01174304 -0.0158096 0.02
v -0.01174304 -0.0158096 0.01
v -0.01156107 -0.01664611 0.02
v -0.01156107 -0.01664611 0.01
v -0.0115 -0.0175 0.02
v -0.0115 -0.0175 0.01
v -0.01156107 -0.01835389 0.02
v -0.01156107 -0.01835389 0.01
v -0.01174304 -0.0191904 0.02
v -0.01174304 -0.0191904 0.01
v -0.01204221 -0.01999249 0.02
v -0.01204221 -0.01999249 0.01
v -0.01245248 -0.02074385 0.02
v -0.01245248 -0.02074385 0.01
v -0.0129655 -0.02142916 0.02
v -0.0129655 -0.02142916 0.01
v -0.01357084 -0.0220345 0.02
v -0.01357084 -0.0220345 0.01
v -0.01425616 -0.02254752 0.02
v -0.01425616 -0.02254752 0.01
v -0.01500751 -0.02295779 0.02
v -0.01500751 -0.02295779 0.01
v -0.0158096 -0.02325696 0.02
v -0.0158096 -0.02325696 0.01
v -0.01664611 -0.02343893 0.02
v -0.01664611 -0.02343893 0.01
v -0.0175 -0.0235 0.02
v -0.0175 -0.0235 0.01
v -0.01835389 -0.02343893 0.02
v -0.01835389 -0.02343893 0.01
v -0.0191904 -0.02325696 0.02
v -0.0191904 -0.02325696 0.01
v -0.01999249 -0.02295779 0.02
v -0.01999249 -0.02295779 0.01
v -0.02074385 -0.02254752 0.02
v -0.02074385 -0.02254752 0.01
v -0.02142916 -0.0220345 0.02
v -0.02142916 -0.0220345 0.01
v -0.0220345 -0.02142916 0.02
v -0.0220345 -0.02142916 0.01
v -0.02254752 -0.02074385 0.02
v -0.02254752 -0.02074385 0.01
v -0.02295779 -0.01999249 0.02
v -0.02295779 -0.01999249 0.01
v -0.02325696 -0.0191904 0.02
v -0.02325696 -0.0191904 0.01
v -0.02068755 0.01686596 0.02
v -0.02068755 0.01686596 0.01
v -0.02075 0.0175 0.02
v -0.02075 0.0175 0.01
v -0.02068755 0.01813404 0.02
v -0.02068755 0.01813404 0.01
v -0.02050261 0.01874372 0.02
v -0.02050261 0.01874372 0.01
v -0.02020228 0.0193056 0.02
v -0.02020228 0.0193056 0.01
v -0.0197981 0.0197981 0.02
v -0.0197981 0.0197981 0.01
v -0.0193056 0.02020228 0.02
v -0.0193056 0.02020228 0.01
v -0.01874372 0.02050261 0.02
v -0.01874372 0.02050261 0.01
v -0.01813404 0.02068755 0.02
v -0.01813404 0.02068755 0.01
v -0.0175 0.02075 0.02
v -0.0175 0.02075 0.01
v -0.01686596 0.02068755 0.02
v -0.01686596 0.02068755 0.01
v -0.01625628 0.02050261 0.02
v -0.01625628 0.02050261 0.01
v -0.0156944 0.02020228 0.02
v -0.0156944 0.02020228 0.01
v -0.0152019 0.0197981 0.02
v -0.0152019 0.0197981 0.01
v -0.01479772 0.0193056 0.02
v -0.01479772 0.0193056 0.01
v -0.01449739 0.01874372 0.02
v -0.01449739 0.01874372 0.01
v -0.01431245 0.01813404 0.02
v -0.01431245 0.01813404 0.01
v -0.01425 0.0175 0.02
v -0.01425 0.0175 0.01
v -0.01431245 0.01686596 0.02
v -0.01431245 0.01686596 0.01
v -0.01449739 0.01625628 0.02
v -0.01449739 0.01625628 0.01
v -0.01479772 0.0156944 0.02
v -0.01479772 0.0156944 0.01
v -0.0152019 0.0152019 0.02
v -0.0152019 0.0152019 0.01
v -0.0156944 0.01479772 0.02
v -0.0156944 0.01479772 0.01
v -0.01625628 0.01449739 0.02
v -0.01625628 0.01449739 0.01
v -0.01686596 0.01431245 0.02
v -0.01686596 0.01431245 0.01
v -0.0175 0.01425 0.02
v -0.0175 0.01425 0.01
v -0.01813404 0.01431245 0.02
v -0.01813404 0.01431245 0.01
v -0.01874372 0.01449739 0.02
v -0.01874372 0.01449739 0.01
v -0.0193056 0.01479772 0.02
v -0.0193056 0.01479772 0.01
v -0.0197981 0.0152019 0.02
v -0.0197981 0.0152019 0.01
v -0.02020228 0.0156944 0.02
v -0.02020228 0.0156944 0.01
v -0.02050261 0.01625628 0.02
v -0.02050261 0.01625628 0.01
v -0.03493736 0.00209315 0.02
v -0.03493736 0.00209315 0.01
v -0.035 0 0.02
v -0.035 0 0.01
v -0.03493736 -0.00209315 0.02
v -0.03493736 -0.00209315 0.01
v -0.03474964 -0.0041788 0.02
v -0.03474964 -0.0041788 0.01
v -0.03443754 -0.00624949 0.02
v -0.03443754 -0.00624949 0.01
v -0.03400215 -0.00829781 0.02
v -0.03400215 -0.00829781 0.01
v -0.03344505 -0.01031643 0.02
v -0.03344505 -0.01031643 0.01
v -0.03276822 -0.01229812 0.02
v -0.03276822 -0.01229812 0.01
v -0.03197409 -0.01423578 0.02
v -0.03197409 -0.01423578 0.01
v -0.0310655 -0.01612249 0.02
v -0.0310655 -0.01612249 0.01
v -0.03004571 -0.01795148 0.02
v -0.03004571 -0.01795148 0.01
v -0.02891836 -0.0197162 0.02
v -0.02891836 -0.0197162 0.01
v -0.02768749 -0.02141035 0.02
v -0.02768749 -0.02141035 0.01
v -0.0263575 -0.02302786 0.02
v -0.0263575 -0.02302786 0.01
v -0.02493316 -0.02456293 0.02
v -0.02493316 -0.02456293 0.01
v -0.02341957 -0.02601007 0.02
v -0.02341957 -0.02601007 0.01
v -0.02182214 -0.0273641 0.02
v -0.02182214 -0.0273641 0.01
v -0.0201466 -0.02862018 0.02
v -0.0201466 -0.02862018 0.01
v -0.01839893 -0.0297738 0.02
v -0.01839893 -0.0297738 0.01
v -0.0165854 -0.03082084 0.02
v -0.0165854 -0.03082084 0.01
v -0.0147125 -0.03175756 0.02
v -0.0147125 -0.03175756 0.01
v -0.01278694 -0.03258058 0.02
v -0.01278694 -0.03258058 0.01
v -0.01081559 -0.03328698 0.02
v -0.01081559 -0.03328698 0.01
v -0.00880554 -0.03387422 0.02
v -0.00880554 -0.03387422 0.01
v -0.00676396 -0.03434019 0.02
v -0.00676396 -0.03434019 0.01
v -0.00469816 -0.03468324 0.02
v -0.00469816 -0.03468324 0.01
v -0.00261555 -0.03490213 0.02
v -0.00261555 -0.03490213 0.01
v -0.00052358 -0.03499608 0.02
v -0.00052358 -0.03499608 0.01
v 0.00157027 -0.03496476 0.02
v 0.00157027 -0.03496476 0.01
v 0.0036585 -0.03480827 0.02
v 0.0036585 -0.03480827 0.01
v 0.00573363 -0.03452717 0.02
v 0.00573363 -0.03452717 0.01
v 0.00778823 -0.03412248 0.02
v 0.00778823 -0.03412248 0.01
v 0.00981496 -0.03359563 0.02
v 0.00981496 -0.03359563 0.01
v 0.01180655 -0.03294853 0.02
v 0.01180655 -0.03294853 0.01
v 0.01375588 -0.03218347 0.02
v 0.01375588 -0.03218347 0.01
v 0.01565596 -0.03130321 0.02
v 0.01565596 -0.03130321 0.01
v 0.0175 -0.03031089 0.02
v 0.0175 -0.03031089 0.01
v 0.01928139 -0.02921006 0.02
v 0.01928139 -0.02921006 0.01
v 0.02099377 -0.02800467 0.02
v 0.02099377 -0.02800467 0.01
v 0.02263099 -0.02669903 0.02
v 0.02263099 -0.02669903 0.01
v 0.02418719 -0.02529782 0.02
v 0.02418719 -0.02529782 0.01
v 0.02565682 -0.02380605 0.02
v 0.02565682 -0.02380605 0.01
v 0.02703459 -0.02222905 0.02
v 0.02703459 -0.02222905 0.01
v 0.02831559 -0.02057248 0.02
v 0.02831559 -0.02057248 0.01
v 0.02949523 -0.01884227 0.02
v 0.02949523 -0.01884227 0.01
v 0.03056929 -0.01704461 0.02
v 0.03056929 -0.01704461 0.01
v 0.03153391 -0.01518593 0.02
v 0.03153391 -0.01518593 0.01
v 0.03238565 -0.01327289 0.02
v 0.03238565 -0.01327289 0.01
v 0.03312146 -0.01131234 0.02
v 0.03312146 -0.01131234 0.01
v 0.0337387 -0.00931129 0.02
v 0.0337387 -0.00931129 0.01
v 0.03423516 -0.00727691 0.02
v 0.03423516 -0.00727691 0.01
v 0.03460908 -0.00521648 0.02
v 0.03460908 -0.00521648 0.01
v 0.0348591 -0.00313738 0.02
v 0.0348591 -0.00313738 0.01
v 0.03498434 -0.00104704 0.02
v 0.03498434 -0.00104704 0.01
v 0.03498434 0.00104704 0.02
v 0.03498434 0.00104704 0.01
v 0.0348591 0.00313738 0.02
v 0.0348591 0.00313738 0.01
v 0.03460908 0.00521648 0.02
v 0.03460908 0.00521648 0.01
v 0.03423516 0.00727691 0.02
v 0.03423516 0.00727691 0.01
v 0.0337387 0.00931129 0.02
v 0.0337387 0.00931129 0.01
v 0.03312146 0.01131234 0.02
v 0.03312146 0.01131234 0.01
v 0.03238565 0.01327289 0.02
v 0.03238565 0.01327289 0.01
v 0.03153391 0.01518593 0.02
v 0.03153391 0.01518593 0.01
v 0.03056929 0.01704461 0.02
v 0.03056929 0.01704461 0.01
v 0.02949523 0.01884227 0.02
v 0.02949523 0.01884227 0.01
v 0.02831559 0.02057248 0.02
v 0.02831559 0.02057248 0.01
v 0.02703459 0.02222905 0.02
v 0.02703459 0.02222905 0.01
v 0.02565682 0.02380605 0.02
v 0.02565682 0.02380605 0.01
v 0.02418719 0.02529782 0.02
v 0.02418719 0.02529782 0.01
v 0.02263099 0.02669903 0.02
v 0.02263099 0.02669903 0.01
v 0.02099377 0.02800467 0.02
v 0.02099377 0.02800467 0.01
v 0.01928139 0.02921006 0.02
v 0.01928139 0.02921006 0.01
v 0.0175 0.03031089 0.02
v 0.0175 0.03031089 0.01
v 0.01565596 0.03130321 0.02
v 0.01565596 0.03130321 0.01
v 0.01375588 0.03218347 0.02
v 0.01375588 0.03218347 0.01
v 0.01180655 0.03294853 0.02
v 0.01180655 0.03294853 0.01
v 0.00981496 0.03359563 0.02
v 0.00981496 0.03359563 0.01
v 0.00778823 0.03412248 0.02
v 0.00778823 0.03412248 0.01
v 0.00573363 0.03452717 0.02
v 0.00573363 0.03452717 0.01
v 0.0036585 0.03480827 0.02
v 0.0036585 0.03480827 0.01
v 0.00157027 0.03496476 0.02
v 0.00157027 0.03496476 0.01
v -0.00052358 0.03499608 0.02
v -0.00052358 0.03499608 0.01
v -0.00261555 0.03490213 0.02
v -0.00261555 0.03490213 0.01
v -0.00469816 0.03468324 0.02
v -0.00469816 0.03468324 0.01
v -0.00676396 0.03434019 0.02
v -0.00676396 0.03434019 0.01
v -0.00880554 0.03387422 0.02
v -0.00880554 0.03387422 0.01
v -0.01081559 0.03328698 0.02
v -0.01081559 0.03328698 0.01
v -0.01278694 0.03258058 0.02
v -0.01278694 0.03258058 0.01
v -0.0147125 0.03175756 0.02
v -0.0147125 0.03175756 0.01
v -0.0165854 0.03082084 0.02
v -0.0165854 0.03082084 0.01
v -0.01839893 0.0297738 0.02
v -0.01839893 0.0297738 0.01
v -0.0201466 0.02862018 0.02
v -0.0201466 0.02862018 0.01
v -0.02182214 0.0273641 0.02
v -0.02182214 0.0273641 0.01
v -0.02341957 0.02601007 0.02
v -0.02341957 0.02601007 0.01
v -0.02493316 0.02456293 0.02
v -0.02493316 0.02456293 0.01
v -0.0263575 0.02302786 0.02
v -0.0263575 0.02302786 0.01
v -0.02768749 0.02141035 0.02
v -0.02768749 0.02141035 0.01
v -0.02891836 0.0197162 0.02
v -0.02891836 0.0197162 0.01
v -0.03004571 0.01795148 0.02
v -0.03004571 0.01795148 0.01
v -0.0310655 0.01612249 0.02
v -0.0310655 0.01612249 0.01
v -0.03197409 0.01423578 0.02
v -0.03197409 0.01423578 0.01
v -0.03276822 0.01229812 0.02
v -0.03276822 0.01229812 0.01
v -0.03344505 0.01031643 0.02
v -0.03344505 0.01031643 0.01
v -0.03400215 0.00829781 0.02
v -0.03400215 0.00829781 0.01
v -0.03443754 0.00624949 0.02
v -0.03443754 0.00624949 0.01
v -0.03474964 0.0041788 0.02
v -0.03474964 0.0041788 0.01
vn 0.99745 0.07134 0
vn 0.99745 -0.07134 0
vn 0.97715 -0.21257 0
vn 0.93695 -0.34946 0
vn 0.87768 -0.47925 0
vn 0.87768 -0.47925 0
vn 0.80054 -0.59928 0
vn 0.80054 -0.59928 -0
vn 0.70711 -0.70711 -0
vn 0.59928 -0.80054 -0
vn 0.59928 -0.80054 0
vn 0.47925 -0.87768 0
vn 0.47925 -0.87768 0
vn 0.34946 -0.93695 0
vn 0.21257 -0.97715 0
vn 0.07134 -0.99745 0
vn -0.07134 -0.99745 -0
vn -0.21257 -0.97715 -0
vn -0.34946 -0.93695 -0
vn -0.34946 -0.93695 -0
vn -0.47925 -0.87768 -0
vn -0.47925 -0.87768 -0
vn -0.59928 -0.80054 -0
vn -0.70711 -0.70711 -0
vn -0.80054 -0.59928 -0
vn -0.87768 -0.47925 -0
vn -0.87768 -0.47925 -0
vn -0.93695 -0.34946 -0
vn -0.93695 -0.34946 -0
vn -0.97715 -0.21257 -0
vn -0.99745 -0.07134 -0
vn -0.99745 0.07134 0
vn -0.97715 0.21257 0
vn -0.93695 0.34946 0
vn -0.93695 0.34946 0
vn -0.87768 0.47925 0
vn -0.87768 0.47925 0
vn -0.80054 0.59928 0
vn -0.70711 0.70711 0
vn -0.59928 0.80054 0
vn -0.47925 0.87768 0
vn -0.47925 0.87768 0
vn -0.34946 0.93695 0
vn -0.34946 0.93695 0
vn -0.21257 0.97715 0
vn -0.07134 0.99745 0
vn 0.07134 0.99745 0
vn 0.21257 0.97715 0
vn 0.21257 0.97715 0
vn 0.34946 0.93695 0
vn 0.34946 0.93695 0
vn 0.47925 0.87768 0
vn 0.47925 0.87768 -0
vn 0.59928 0.80054 -0
vn 0.59928 0.80054 0
vn 0.70711 0.70711 0
vn 0.70711 0.70711 0
vn 0.80054 0.59928 0
vn 0.80054 0.59928 -0
vn 0.87768 0.47925 -0
vn 0.87768 0.47925 0
vn 0.93695 0.34946 0
vn 0.97715 0.21257 0
vn 0.99518 0.09802 0
vn 0.99518 0.09802 0
vn 0.99518 -0.09802 -0
vn 0.99518 -0.09802 0
vn 0.95694 -0.29028 0
vn 0.95694 -0.29028 0
vn 0.88192 -0.4714 0
vn 0.88192 -0.4714 0
vn 0.77301 -0.63439 0
vn 0.63439 -0.77301 0
vn 0.4714 -0.88192 0
vn 0.29028 -0.95694 0
vn 0.09802 -0.99518 0
vn -0.09802 -0.99518 -0
vn -0.29028 -0.95694 -0
vn -0.4714 -0.88192 -0
vn -0.63439 -0.77301 -0
vn -0.77301 -0.63439 -0
vn -0.88192 -0.4714 -0
vn -0.95694 -0.29028 -0
vn -0.99518 -0.09802 -0
vn -0.99518 0.09802 0
vn -0.95694 0.29028 0
vn -0.88192 0.4714 0
vn -0.77301 0.63439 0
vn -0.63439 0.77301 0
vn -0.4714 0.88192 0
vn -0.29028 0.95694 0
vn -0.09802 0.99518 0
vn 0.09802 0.99518 0
vn 0.29028 0.95694 0
vn 0.4714 0.88192 0
vn 0.63439 0.77301 0
vn 0.77301 0.63439 0
vn 0.88192 0.4714 0
vn 0.88192 0.4714 -0
vn 0.95694 0.29028 -0
vn 0.95694 0.29028 0
vn 0.99745 0.07134 0
vn 0.99745 -0.07134 -0
vn 0.87768 -0.47925 0
vn 0.80054 -0.59928 0
vn 0.80054 -0.59928 -0
vn 0.70711 -0.70711 -0
vn 0.70711 -0.70711 0
vn 0.59928 -0.80054 0
vn 0.59928 -0.80054 0
vn 0.47925 -0.87768 0
vn 0.34946 -0.93695 -0
vn 0.21257 -0.97715 -0
vn -0.34946 -0.93695 -0
vn -0.47925 -0.87768 -0
vn -0.47925 -0.87768 0
vn -0.59928 -0.80054 0
vn -0.87768 -0.47925 -0
vn -0.93695 -0.34946 -0
vn -0.59928 0.80054 -0
vn -0.47925 0.87768 -0
vn -0.47925 0.87768 0
vn -0.34946 0.93695 0
vn 0.21257 0.97715 -0
vn 0.34946 0.93695 -0
vn 0.47925 0.87768 -0
vn 0.59928 0.80054 -0
vn 0.59928 0.80054 0
vn 0.70711 0.70711 0
vn 0.80054 0.59928 0
vn 0.80054 0.59928 -0
vn 0.87768 0.47925 -0
vn 0.95694 -0.29028 -0
vn 0.88192 -0.4714 -0
vn -0.09802 -0.99518 -0
vn -0.29028 -0.95694 -0
vn -0.4714 -0.88192 -0
vn -0.4714 0.88192 0
vn -0.29028 0.95694 0
vn -0.09802 0.99518 0
vn -0.99955 0.02992 0
vn -0.99955 0.02992 -0
vn -0.99955 -0.02992 0
vn -0.99955 -0.02992 -0
vn -0.99597 -0.08964 -0
vn -0.99597 -0.08964 -0
vn -0.98883 -0.14904 -0
vn -0.98883 -0.14904 0
vn -0.97815 -0.20791 0
vn -0.97815 -0.20791 0
vn -0.96396 -0.26604 0
vn -0.94633 -0.32321 0
vn -0.94633 -0.32321 -0
vn -0.9253 -0.37923 -0
vn -0.9253 -0.37923 -0
vn -0.90097 -0.43388 -0
vn -0.90097 -0.43388 0
vn -0.87341 -0.48699 -0
vn -0.87341 -0.48699 -0
vn -0.84272 -0.53835 -0
vn -0.84272 -0.53835 0
vn -0.80902 -0.58779 0
vn -0.80902 -0.58779 0
vn -0.77242 -0.63512 0
vn -0.77242 -0.63512 0
vn -0.73305 -0.68017 0
vn -0.73305 -0.68017 0
vn -0.69106 -0.72279 0
vn -0.69106 -0.72279 0
vn -0.6466 -0.76283 0
vn -0.6466 -0.76283 0
vn -0.59982 -0.80013 0
vn -0.59982 -0.80013 -0
vn -0.5509 -0.83457 -0
vn -0.5509 -0.83457 0
vn -0.5 -0.86603 0
vn -0.5 -0.86603 0
vn -0.44731 -0.89438 0
vn -0.44731 -0.89438 0
vn -0.39303 -0.91953 0
vn -0.39303 -0.91953 -0
vn -0.33733 -0.94139 -0
vn -0.33733 -0.94139 -0
vn -0.28043 -0.95988 -0
vn -0.28043 -0.95988 0
vn -0.22252 -0.97493 0
vn -0.22252 -0.97493 0
vn -0.16382 -0.98649 0
vn -0.16382 -0.98649 0
vn -0.10453 -0.99452 0
vn -0.10453 -0.99452 0
vn -0.04486 -0.99899 0
vn -0.04486 -0.99899 0
vn 0.01496 -0.99989 0
vn 0.01496 -0.99989 0
vn 0.07473 -0.9972 0
vn 0.07473 -0.9972 0
vn 0.13423 -0.99095 0
vn 0.13423 -0.99095 0
vn 0.19326 -0.98115 0
vn 0.19326 -0.98115 0
vn 0.25159 -0.96783 0
vn 0.25159 -0.96783 0
vn 0.30902 -0.95106 0
vn 0.30902 -0.95106 0
vn 0.36534 -0.93087 0
vn 0.36534 -0.93087 0
vn 0.42036 -0.90736 0
vn 0.42036 -0.90736 0
vn 0.47387 -0.8806 -0
vn 0.47387 -0.8806 0
vn 0.52568 -0.85068 0
vn 0.52568 -0.85068 0
vn 0.57562 -0.81772 0
vn 0.57562 -0.81772 0
vn 0.62349 -0.78183 0
vn 0.62349 -0.78183 0
vn 0.66913 -0.74314 0
vn 0.66913 -0.74314 0
vn 0.71238 -0.7018 0
vn 0.71238 -0.7018 0
vn 0.75307 -0.65794 0
vn 0.75307 -0.65794 0
vn 0.79107 -0.61172 0
vn 0.79107 -0.61172 0
vn 0.82624 -0.56332 0
vn 0.82624 -0.56332 0
vn 0.85845 -0.5129 -0
vn 0.85845 -0.5129 -0
vn 0.88759 -0.46064 -0
vn 0.88759 -0.46064 0
vn 0.91355 -0.40674 0
vn 0.91355 -0.40674 -0
vn 0.93623 -0.35137 -0
vn 0.93623 -0.35137 0
vn 0.95557 -0.29476 0
vn 0.95557 -0.29476 0
vn 0.97149 -0.23708 0
vn 0.97149 -0.23708 -0
vn 0.98393 -0.17856 -0
vn 0.98393 -0.17856 0
vn 0.99285 -0.11939 0
vn 0.99285 -0.11939 0
vn 0.99821 -0.0598 0
vn 0.99821 -0.0598 0
vn 1 -0 0
vn 0.99821 0.0598 -0
vn 0.99821 0.0598 -0
vn 0.99285 0.11939 -0
vn 0.99285 0.11939 -0
vn 0.98393 0.17856 -0
vn 0.98393 0.17856 0
vn 0.97149 0.23708 0
vn 0.97149 0.23708 -0
vn 0.95557 0.29476 -0
vn 0.95557 0.29476 -0
vn 0.93623 0.35137 -0
vn 0.93623 0.35137 0
vn 0.91355 0.40674 0
vn 0.91355 0.40674 0
vn 0.88759 0.46064 0
vn 0.88759 0.46064 0
vn 0.85845 0.5129 0
vn 0.85845 0.5129 0
vn 0.82624 0.56332 -0
vn 0.82624 0.56332 -0
vn 0.79107 0.61172 -0
vn 0.79107 0.61172 -0
vn 0.75307 0.65794 -0
vn 0.75307 0.65794 -0
vn 0.71238 0.7018 -0
vn 0.71238 0.7018 -0
vn 0.66913 0.74314 -0
vn 0.66913 0.74314 -0
vn 0.62349 0.78183 -0
vn 0.62349 0.78183 0
vn 0.57562 0.81772 0
vn 0.57562 0.81772 -0
vn 0.52568 0.85068 -0
vn 0.52568 0.85068 -0
vn 0.47387 0.8806 -0
vn 0.47387 0.8806 0
vn 0.42036 0.90736 -0
vn 0.42036 0.90736 -0
vn 0.36534 0.93087 -0
vn 0.36534 0.93087 -0
vn 0.30902 0.95106 -0
vn 0.30902 0.95106 -0
vn 0.25159 0.96783 -0
vn 0.25159 0.96783 -0
vn 0.19326 0.98115 -0
vn 0.19326 0.98115 -0
vn 0.13423 0.99095 -0
vn 0.13423 0.99095 -0
vn 0.07473 0.9972 -0
vn 0.07473 0.9972 0
vn 0.01496 0.99989 0
vn 0.01496 0.99989 -0
vn -0.04486 0.99899 -0
vn -0.04486 0.99899 -0
vn -0.10453 0.99452 -0
vn -0.10453 0.99452 0
vn -0.16382 0.98649 0
vn -0.16382 0.98649 -0
vn -0.22252 0.97493 -0
vn -0.22252 0.97493 -0
vn -0.28043 0.95988 -0
vn -0.28043 0.95988 -0
vn -0.33733 0.94139 -0
vn -0.33733 0.94139 -0
vn -0.39303 0.91953 -0
vn -0.39303 0.91953 -0
vn -0.44731 0.89438 -0
vn -0.44731 0.89438 -0
vn -0.5 0.86603 -0
vn -0.5 0.86603 -0
vn -0.5509 0.83457 -0
vn -0.5509 0.83457 -0
vn -0.59982 0.80013 -0
vn -0.59982 0.80013 -0
vn -0.6466 0.76283 -0
vn -0.6466 0.76283 -0
vn -0.69106 0.72279 -0
vn -0.69106 0.72279 -0
vn -0.73305 0.68017 -0
vn -0.73305 0.68017 -0
vn -0.77242 0.63512 -0
vn -0.77242 0.63512 -0
vn -0.80902 0.58779 -0
vn -0.80902 0.58779 -0
vn -0.84272 0.53835 -0
vn -0.84272 0.53835 0
vn -0.87341 0.48699 0
vn -0.87341 0.48699 -0
vn -0.90097 0.43388 -0
vn -0.90097 0.43388 0
vn -0.9253 0.37923 0
vn -0.9253 0.37923 0
vn -0.94633 0.32321 0
vn -0.94633 0.32321 -0
vn -0.96396 0.26604 -0
vn -0.96396 0.26604 -0
vn -0.97815 0.20791 -0
vn -0.97815 0.20791 -0
vn -0.98883 0.14904 -0
vn -0.98883 0.14904 0
vn -0.99597 0.08964 0
vn -0.99597 0.08964 0
vn 0 0 -1
vn -0 -0 -1
vn 0 -0 -1
vn 0 -0 -1
vn -0 -0 -1
vn -0 0 -1
vn -0 -0 -1
vn 0 -0 -1
vn -0 -0 -1
vn 0 -0 -1
vn -0 -0 -1
vn 0 -0 -1
vn 0 -0 -1
vn 0 -0 -1
vn 0 -0 -1
vn -0 -0 -1
vn 0 -0 -1
vn -0 -0 -1
vn 0 -0 -1
vn 0 -0 -1
vn -0 -0 -1
vn 0 -0 -1
vn 0 -0 -1
vn -0 -0 -1
vn 0 -0 -1
vn -0 -0 -1
vn 0 -0 -1
vn -0 -0 -1
vn -0 -0 -1
vn 0 -0 -1
vn -0 -0 -1
vn -0 -0 -1
vn -0 -0 -1
vn 0 -0 -1
vn 0 0 -1
vn 0 0 -1
vn 0 -0 -1
vn -0 -0 -1
vn -0 -0 -1
vn -0 -0 -1
vn -0 -0 -1
vn -0 -0 -1
vn 0 -0 -1
vn -0 -0 -1
vn 0 -0 -1
vn 0 -0 -1
vn -0 -0 -1
vn 0 -0 -1
vn -0 -0 -1
vn 0 -0 -1
vn -0 -0 -1
vn 0 -0 -1
vn -0 -0 -1
vn 0 -0 -1
vn -0 -0 -1
vn -0 -0 -1
vn 0 -0 -1
vn -0 -0 -1
vn 0 -0 -1
vn -0 -0 -1
vn 0 -0 -1
vn 0 -0 -1
vn 0 -0 -1
vn -0 -0 -1
vn -0 -0 -1
vn -0 -0 -1
vn -0 -0 -1
vn -0 -0 -1
vn -0 -0 -1
vn 0 -0 -1
vn 0 0 -1
vn 0 -0 -1
vn 0 0 -1
vn 0 -0 -1
vn 0 -0 -1
vn -0 -0 -1
vn 0 -0 -1
vn 0 -0 -1
vn -0 -0 -1
vn 0 -0 -1
vn 0 -0 -1
vn -0 -0 -1
vn 0 -0 -1
vn -0 -0 -1
vn 0 -0 -1
vn -0 -0 -1
vn 0 -0 -1
vn -0 -0 -1
vn 0 -0 -1
vn -0 -0 -1
vn 0 -0 -1
vn 0 -0 -1
vn -0 -0 -1
vn 0 -0 -1
vn 0 -0 -1
vn 0 -0 -1
vn 0 -0 -1
vn -0 -0 -1
vn -0 -0 -1
vn -0 -0 -1
vn -0 -0 -1
vn -0 -0 -1
vn -0 -0 -1
vn 0 -0 -1
vn -0 -0 -1
vn 0 -0 -1
vn 0 -0 -1
vn 0 -0 -1
vn 0 -0 -1
vn 0 -0 -1
vn 0 0 -1
vn 0 -0 -1
vn 0 0 -1
vn -0 -0 -1
vn 0 -0 -1
vn -0 -0 -1
vn 0 -0 -1
vn 0 -0 -1
vn 0 -0 -1
vn -0 -0 -1
vn 0 -0 -1
vn -0 -0 -1
vn -0 -0 -1
vn -0 -0 -1
vn 0 -0 -1
vn -0 -0 -1
vn 0 -0 -1
vn -0 -0 -1
vn -0 -0 -1
vn 0 -0 -1
vn -0 -0 -1
vn 0 -0 -1
vn 0 -0 -1
vn 0 -0 -1
vn 0 -0 -1
vn 0 -0 -1
vn 0 -0 -1
vn 0 0 1
vn 0 0 1
vn 0 0 1
vn 0 0 1
vn 0 0 1
vn 0 0 1
vn 0 0 1
vn 0 0 1
vn -0 0 1
vn -0 0 1
vn -0 0 1
vn -0 0 1
vn 0 0 1
vn -0 0 1
vn 0 0 1
vn 0 0 1
vn 0 -0 1
vn 0 0 1
vn 0 -0 1
vn 0 -0 1
vn 0 0 1
vn -0 0 1
vn -0 0 1
vn 0 0 1
vn 0 0 1
vn 0 0 1
vn 0 0 1
vn 0 0 1
vn 0 0 1
vn 0 0 1
vn 0 0 1
vn 0 0 1
vn 0 0 1
vn 0 0 1
vn 0 0 1
vn 0 0 1
vn 0 0 1
vn 0 0 1
vn 0 0 1
vn 0 0 1
vn 0 0 1
vn -0 0 1
vn 0 0 1
vn -0 0 1
vn -0 0 1
vn 0 0 1
vn -0 0 1
vn 0 0 1
vn -0 0 1
vn 0 0 1
vn -0 0 1
vn 0 0 1
vn -0 0 1
vn 0 0 1
vn 0 0 1
vn 0 0 1
vn 0 0 1
vn 0 0 1
vn 0 0 1
vn -0 0 1
vn -0 0 1
vn -0 0 1
vn 0 0 1
vn -0 0 1
vn 0 0 1
vn -0 0 1
vn -0 0 1
vn -0 0 1
vn -0 0 1
vn -0 0 1
vn 0 0 1
vn 0 0 1
vn -0 0 1
vn 0 0 1
vn -0 -0 1
vn -0 0 1
vn -0 0 1
vn -0 0 1
vn -0 0 1
vn -0 0 1
vn -0 0 1
vn -0 0 1
vn -0 0 1
vn -0 0 1
vn -0 0 1
vn -0 0 1
vn -0 0 1
vn -0 0 1
vn -0 0 1
vn -0 0 1
vn 0 0 1
vn -0 0 1
vn 0 0 1
vn -0 0 1
vn 0 0 1
vn -0 0 1
vn 0 0 1
vn -0 0 1
vn 0 0 1
vn -0 0 1
vn -0 0 1
vn 0 0 1
vn -0 0 1
vn -0 0 1
vn 0 0 1
vn -0 0 1
vn 0 0 1
vn -0 0 1
vn -0 -0 1
vn -0 0 1
vn -0 -0 1
vn -0 -0 1
vn -0 0 1
vn -0 0 1
vn -0 0 1
vn -0 0 1
vn -0 0 1
vn -0 0 1
vn -0 0 1
vn -0 0 1
vn -0 0 1
vn 0 0 1
vn 0 0 1
usemtl mat1
f 1//1 2//1 3//1
f 3//1 2//1 4//1
f 3//2 4//2 5//2
f 5//2 4//2 6//2
f 5//3 6//3 7//3
f 7//3 6//3 8//3
f 7//4 8//4 9//4
f 9//4 8//4 10//4
f 9//5 10//5 11//5
f 11//6 10//6 12//6
f 11//7 12//7 13//7
f 13//8 12//8 14//8
f 13//9 14//9 15//9
f 15//9 14//9 16//9
f 15//10 16//10 17//10
f 17//11 16//11 18//11
f 17//12 18//12 19//12
f 19//13 18//13 20//13
f 19//14 20//14 21//14
f 21//14 20//14 22//14
f 21//15 22//15 23//15
f 23//15 22//15 24//15
f 23//16 24//16 25//16
f 25//16 24//16 26//16
f 25//17 26//17 27//17
f 27//17 26//17 28//17
f 27//18 28//18 29//18
f 29//18 28//18 30//18
f 29//19 30//19 31//19
f 31//20 30//20 32//20
f 31//21 32//21 33//21
f 33//22 32//22 34//22
f 33//23 34//23 35//23
f 35//23 34//23 36//23
f 35//24 36//24 37//24
f 37//24 36//24 38//24
f 37//25 38//25 39//25
f 39//25 38//25 40//25
f 39//26 40//26 41//26
f 41//27 40//27 42//27
f 41//28 42//28 43//28
f 43//29 42//29 44//29
f 43//30 44//30 45//30
f 45//30 44//30 46//30
f 45//31 46//31 47//31
f 47//31 46//31 48//31
f 47//32 48//32 49//32
f 49//32 48//32 50//32
f 49//33 50//33 51//33
f 51//33 50//33 52//33
f 51//34 52//34 53//34
f 53//35 52//35 54//35
f 53//36 54//36 55//36
f 55//37 54//37 56//37
f 55//38 56//38 57//38
f 57//38 56//38 58//38
f 57//39 58//39 59//39
f 59//39 58//39 60//39
f 59//40 60//40 61//40
f 61//40 60//40 62//40
f 61//41 62//41 63//41
f 63//42 62//42 64//42
f 63//43 64//43 65//43
f 65//44 64//44 66//44
f 65//45 66//45 67//45
f 67//45 66//45 68//45
f 67//46 68//46 69//46
f 69//46 68//46 70//46
f 69//47 70//47 71//47
f 71//47 70//47 72//47
f 71//48 72//48 73//48
f 73//49 72//49 74//49
f 73//50 74//50 75//50
f 75//51 74//51 76//51
f 75//52 76//52 77//52
f 77//53 76//53 78//53
f 77//54 78//54 79//54
f 79//55 78//55 80//55
f 79//56 80//56 81//56
f 81//57 80//57 82//57
f 81//58 82//58 83//58
f 83//59 82//59 84//59
f 83//60 84//60 85//60
f 85//61 84//61 86//61
f 85//62 86//62 87//62
f 87//62 86//62 88//62
f 87//63 88//63 1//63
f 1//63 88//63 2//63
f 89//64 90//64 91//64
f 91//65 90//65 92//65
f 91//66 92//66 93//66
f 93//67 92//67 94//67
f 93//68 94//68 95//68
f 95//69 94//69 96//69
f 95//70 96//70 97//70
f 97//71 96//71 98//71
f 97//72 98//72 99//72
f 99//72 98//72 100//72
f 99//73 100//73 101//73
f 101//73 100//73 102//73
f 101//74 102//74 103//74
f 103//74 102//74 104//74
f 103//75 104//75 105//75
f 105//75 104//75 106//75
f 105//76 106//76 107//76
f 107//76 106//76 108//76
f 107//77 108//77 109//77
f 109//77 108//77 110//77
f 109//78 110//78 111//78
f 111//78 110//78 112//78
f 111//79 112//79 113//79
f 113//79 112//79 114//79
f 113//80 114//80 115//80
f 115//80 114//80 116//80
f 115//81 116//81 117//81
f 117//81 116//81 118//81
f 117//82 118//82 119//82
f 119//82 118//82 120//82
f 119//83 120//83 121//83
f 121//83 120//83 122//83
f 121//84 122//84 123//84
f 123//84 122//84 124//84
f 123//85 124//85 125//85
f 125//85 124//85 126//85
f 125//86 126//86 127//86
f 127//86 126//86 128//86
f 127//87 128//87 129//87
f 129//87 128//87 130//87
f 129//88 130//88 131//88
f 131//88 130//88 132//88
f 131//89 132//89 133//89
f 133//89 132//89 134//89
f 133//90 134//90 135//90
f 135//90 134//90 136//90
f 135//91 136//91 137//91
f 137//91 136//91 138//91
f 137//92 138//92 139//92
f 139//92 138//92 140//92
f 139//93 140//93 141//93
f 141//93 140//93 142//93
f 141//94 142//94 143//94
f 143//94 142//94 144//94
f 143//95 144//95 145//95
f 145//95 144//95 146//95
f 145//96 146//96 147//96
f 147//96 146//96 148//96
f 147//97 148//97 149//97
f 149//97 148//97 150//97
f 149//98 150//98 151//98
f 151//99 150//99 152//99
f 151//100 152//100 89//100
f 89//101 152//101 90//101
f 153//1 154//1 155//1
f 155//102 154//102 156//102
f 155//103 156//103 157//103
f 157//2 156//2 158//2
f 157//3 158//3 159//3
f 159//3 158//3 160//3
f 159//4 160//4 161//4
f 161//4 160//4 162//4
f 161//5 162//5 163//5
f 163//104 162//104 164//104
f 163//105 164//105 165//105
f 165//106 164//106 166//106
f 165//107 166//107 167//107
f 167//108 166//108 168//108
f 167//109 168//109 169//109
f 169//110 168//110 170//110
f 169//111 170//111 171//111
f 171//13 170//13 172//13
f 171//14 172//14 173//14
f 173//112 172//112 174//112
f 173//113 174//113 175//113
f 175//15 174//15 176//15
f 175//16 176//16 177//16
f 177//16 176//16 178//16
f 177//17 178//17 179//17
f 179//17 178//17 180//17
f 179//18 180//18 181//18
f 181//18 180//18 182//18
f 181//19 182//19 183//19
f 183//114 182//114 184//114
f 183//115 184//115 185//115
f 185//116 184//116 186//116
f 185//117 186//117 187//117
f 187//23 186//23 188//23
f 187//24 188//24 189//24
f 189//24 188//24 190//24
f 189//25 190//25 191//25
f 191//25 190//25 192//25
f 191//26 192//26 193//26
f 193//118 192//118 194//118
f 193//119 194//119 195//119
f 195//29 194//29 196//29
f 195//30 196//30 197//30
f 197//30 196//30 198//30
f 197//31 198//31 199//31
f 199//31 198//31 200//31
f 199//32 200//32 201//32
f 201//32 200//32 202//32
f 201//33 202//33 203//33
f 203//33 202//33 204//33
f 203//34 204//34 205//34
f 205//34 204//34 206//34
f 205//37 206//37 207//37
f 207//37 206//37 208//37
f 207//38 208//38 209//38
f 209//38 208//38 210//38
f 209//39 210//39 211//39
f 211//39 210//39 212//39
f 211//40 212//40 213//40
f 213//120 212//120 214//120
f 213//121 214//121 215//121
f 215//122 214//122 216//122
f 215//123 216//123 217//123
f 217//44 216//44 218//44
f 217//45 218//45 219//45
f 219//45 218//45 220//45
f 219//46 220//46 221//46
f 221//46 220//46 222//46
f 221//47 222//47 223//47
f 223//47 222//47 224//47
f 223//48 224//48 225//48
f 225//124 224//124 226//124
f 225//125 226//125 227//125
f 227//51 226//51 228//51
f 227//52 228//52 229//52
f 229//126 228//126 230//126
f 229//127 230//127 231//127
f 231//128 230//128 232//128
f 231//57 232//57 233//57
f 233//129 232//129 234//129
f 233//130 234//130 235//130
f 235//131 234//131 236//131
f 235//132 236//132 237//132
f 237//61 236//61 238//61
f 237//62 238//62 239//62
f 239//62 238//62 240//62
f 239//63 240//63 153//63
f 153//63 240//63 154//63
f 241//64 242//64 243//64
f 243//64 242//64 244//64
f 243//67 244//67 245//67
f 245//67 244//67 246//67
f 245//68 246//68 247//68
f 247//133 246//133 248//133
f 247//134 248//134 249//134
f 249//71 248//71 250//71
f 249//72 250//72 251//72
f 251//72 250//72 252//72
f 251//73 252//73 253//73
f 253//73 252//73 254//73
f 253//74 254//74 255//74
f 255//74 254//74 256//74
f 255//75 256//75 257//75
f 257//75 256//75 258//75
f 257//76 258//76 259//76
f 259//76 258//76 260//76
f 259//77 260//77 261//77
f 261//135 260//135 262//135
f 261//136 262//136 263//136
f 263//136 262//136 264//136
f 263//137 264//137 265//137
f 265//79 264//79 266//79
f 265//80 266//80 267//80
f 267//80 266//80 268//80
f 267//81 268//81 269//81
f 269//81 268//81 270//81
f 269//82 270//82 271//82
f 271//82 270//82 272//82
f 271//83 272//83 273//83
f 273//83 272//83 274//83
f 273//84 274//84 275//84
f 275//84 274//84 276//84
f 275//85 276//85 277//85
f 277//85 276//85 278//85
f 277//86 278//86 279//86
f 279//86 278//86 280//86
f 279//87 280//87 281//87
f 281//87 280//87 282//87
f 281//88 282//88 283//88
f 283//88 282//88 284//88
f 283//89 284//89 285//89
f 285//89 284//89 286//89
f 285//90 286//90 287//90
f 287//138 286//138 288//138
f 287//139 288//139 289//139
f 289//139 288//139 290//139
f 289//140 290//140 291//140
f 291//92 290//92 292//92
f 291//93 292//93 293//93
f 293//93 292//93 294//93
f 293//94 294//94 295//94
f 295//94 294//94 296//94
f 295//95 296//95 297//95
f 297//95 296//95 298//95
f 297//96 298//96 299//96
f 299//96 298//96 300//96
f 299//97 300//97 301//97
f 301//97 300//97 302//97
f 301//98 302//98 303//98
f 303//98 302//98 304//98
f 303//101 304//101 241//101
f 241//101 304//101 242//101
f 305//141 306//141 307//141
f 307//142 306//142 308//142
f 307//143 308//143 309//143
f 309//144 308//144 310//144
f 309//145 310//145 311//145
f 311//146 310//146 312//146
f 311//147 312//147 313//147
f 313//148 312//148 314//148
f 313//149 314//149 315//149
f 315//150 314//150 316//150
f 315//151 316//151 317//151
f 317//151 316//151 318//151
f 317//152 318//152 319//152
f 319//153 318//153 320//153
f 319//154 320//154 321//154
f 321//155 320//155 322//155
f 321//156 322//156 323//156
f 323//157 322//157 324//157
f 323//158 324//158 325//158
f 325//159 324//159 326//159
f 325//160 326//160 327//160
f 327//161 326//161 328//161
f 327//162 328//162 329//162
f 329//163 328//163 330//163
f 329//164 330//164 331//164
f 331//165 330//165 332//165
f 331//166 332//166 333//166
f 333//167 332//167 334//167
f 333//168 334//168 335//168
f 335//169 334//169 336//169
f 335//170 336//170 337//170
f 337//171 336//171 338//171
f 337//172 338//172 339//172
f 339//173 338//173 340//173
f 339//174 340//174 341//174
f 341//175 340//175 342//175
f 341//176 342//176 343//176
f 343//177 342//177 344//177
f 343//178 344//178 345//178
f 345//179 344//179 346//179
f 345//180 346//180 347//180
f 347//181 346//181 348//181
f 347//182 348//182 349//182
f 349//183 348//183 350//183
f 349//184 350//184 351//184
f 351//185 350//185 352//185
f 351//186 352//186 353//186
f 353//187 352//187 354//187
f 353//188 354//188 355//188
f 355//189 354//189 356//189
f 355//190 356//190 357//190
f 357//191 356//191 358//191
f 357//192 358//192 359//192
f 359//193 358//193 360//193
f 359//194 360//194 361//194
f 361//195 360//195 362//195
f 361//196 362//196 363//196
f 363//197 362//197 364//197
f 363//198 364//198 365//198
f 365//199 364//199 366//199
f 365//200 366//200 367//200
f 367//201 366//201 368//201
f 367//202 368//202 369//202
f 369//203 368//203 370//203
f 369//204 370//204 371//204
f 371//205 370//205 372//205
f 371//206 372//206 373//206
f 373//207 372//207 374//207
f 373//208 374//208 375//208
f 375//209 374//209 376//209
f 375//210 376//210 377//210
f 377//211 376//211 378//211
f 377//212 378//212 379//212
f 379//213 378//213 380//213
f 379//214 380//214 381//214
f 381//215 380//215 382//215
f 381//216 382//216 383//216
f 383//217 382//217 384//217
f 383//218 384//218 385//218
f 385//219 384//219 386//219
f 385//220 386//220 387//220
f 387//221 386//221 388//221
f 387//222 388//222 389//222
f 389//223 388//223 390//223
f 389//224 390//224 391//224
f 391//225 390//225 392//225
f 391//226 392//226 393//226
f 393//227 392//227 394//227
f 393//228 394//228 395//228
f 395//229 394//229 396//229
f 395//230 396//230 397//230
f 397//231 396//231 398//231
f 397//232 398//232 399//232
f 399//233 398//233 400//233
f 399//234 400//234 401//234
f 401//235 400//235 402//235
f 401//236 402//236 403//236
f 403//237 402//237 404//237
f 403//238 404//238 405//238
f 405//239 404//239 406//239
f 405//240 406//240 407//240
f 407//241 406//241 408//241
f 407//242 408//242 409//242
f 409//243 408//243 410//243
f 409//244 410//244 411//244
f 411//245 410//245 412//245
f 411//246 412//246 413//246
f 413//246 412//246 414//246
f 413//247 414//247 415//247
f 415//248 414//248 416//248
f 415//249 416//249 417//249
f 417//250 416//250 418//250
f 417//251 418//251 419//251
f 419//252 418//252 420//252
f 419//253 420//253 421//253
f 421//254 420//254 422//254
f 421//255 422//255 423//255
f 423//256 422//256 424//256
f 423//257 424//257 425//257
f 425//258 424//258 426//258
f 425//259 426//259 427//259
f 427//260 426//260 428//260
f 427//261 428//261 429//261
f 429//262 428//262 430//262
f 429//263 430//263 431//263
f 431//264 430//264 432//264
f 431//265 432//265 433//265
f 433//266 432//266 434//266
f 433//267 434//267 435//267
f 435//268 434//268 436//268
f 435//269 436//269 437//269
f 437//270 436//270 438//270
f 437//271 438//271 439//271
f 439//272 438//272 440//272
f 439//273 440//273 441//273
f 441//274 440//274 442//274
f 441//275 442//275 443//275
f 443//276 442//276 444//276
f 443//277 444//277 445//277
f 445//278 444//278 446//278
f 445//279 446//279 447//279
f 447//280 446//280 448//280
f 447//281 448//281 449//281
f 449//282 448//282 450//282
f 449//283 450//283 451//283
f 451//284 450//284 452//284
f 451//285 452//285 453//285
f 453//286 452//286 454//286
f 453//287 454//287 455//287
f 455//288 454//288 456//288
f 455//289 456//289 457//289
f 457//290 456//290 458//290
f 457//291 458//291 459//291
f 459//292 458//292 460//292
f 459//293 460//293 461//293
f 461//294 460//294 462//294
f 461//295 462//295 463//295
f 463//296 462//296 464//296
f 463//297 464//297 465//297
f 465//298 464//298 466//298
f 465//299 466//299 467//299
f 467//300 466//300 468//300
f 467//301 468//301 469//301
f 469//302 468//302 470//302
f 469//303 470//303 471//303
f 471//304 470//304 472//304
f 471//305 472//305 473//305
f 473//306 472//306 474//306
f 473//307 474//307 475//307
f 475//308 474//308 476//308
f 475//309 476//309 477//309
f 477//310 476//310 478//310
f 477//311 478//311 479//311
f 479//312 478//312 480//312
f 479//313 480//313 481//313
f 481//314 480//314 482//314
f 481//315 482//315 483//315
f 483//316 482//316 484//316
f 483//317 484//317 485//317
f 485//318 484//318 486//318
f 485//319 486//319 487//319
f 487//320 486//320 488//320
f 487//321 488//321 489//321
f 489//322 488//322 490//322
f 489//323 490//323 491//323
f 491//324 490//324 492//324
f 491//325 492//325 493//325
f 493//326 492//326 494//326
f 493//327 494//327 495//327
f 495//328 494//328 496//328
f 495//329 496//329 497//329
f 497//330 496//330 498//330
f 497//331 498//331 499//331
f 499//332 498//332 500//332
f 499//333 500//333 501//333
f 501//334 500//334 502//334
f 501//335 502//335 503//335
f 503//336 502//336 504//336
f 503//337 504//337 505//337
f 505//338 504//338 506//338
f 505//339 506//339 507//339
f 507//340 506//340 508//340
f 507//341 508//341 509//341
f 509//342 508//342 510//342
f 509//343 510//343 511//343
f 511//344 510//344 512//344
f 511//345 512//345 513//345
f 513//346 512//346 514//346
f 513//347 514//347 305//347
f 305//348 514//348 306//348
f 242//349 498//349 244//349
f 244//349 498//349 496//349
f 244//349 496//349 246//349
f 246//349 496//349 248//349
f 248//349 496//349 250//349
f 250//349 496//349 252//349
f 252//349 496//349 254//349
f 254//349 496//349 256//349
f 256//349 496//349 258//349
f 258//349 496//349 260//349
f 260//350 496//350 494//350
f 260//351 494//351 492//351
f 498//349 242//349 500//349
f 500//349 242//349 304//349
f 500//349 304//349 502//349
f 502//349 304//349 302//349
f 502//349 302//349 504//349
f 504//349 302//349 300//349
f 504//349 300//349 506//349
f 506//349 300//349 508//349
f 508//349 300//349 298//349
f 508//349 298//349 510//349
f 510//349 298//349 296//349
f 510//349 296//349 512//349
f 512//352 296//352 514//352
f 514//353 296//353 294//353
f 514//354 294//354 306//354
f 306//355 294//355 176//355
f 306//356 176//356 174//356
f 294//357 292//357 176//357
f 176//358 292//358 178//358
f 178//359 292//359 180//359
f 180//360 292//360 290//360
f 180//361 290//361 288//361
f 288//362 286//362 180//362
f 180//363 286//363 284//363
f 180//364 284//364 82//364
f 82//349 284//349 84//349
f 84//349 284//349 282//349
f 84//349 282//349 86//349
f 86//349 282//349 280//349
f 86//349 280//349 88//349
f 88//349 280//349 278//349
f 88//349 278//349 2//349
f 2//349 278//349 276//349
f 2//349 276//349 4//349
f 4//349 276//349 6//349
f 6//349 276//349 274//349
f 6//365 274//365 468//365
f 468//366 274//366 272//366
f 468//367 272//367 470//367
f 470//368 272//368 472//368
f 472//369 272//369 270//369
f 472//370 270//370 474//370
f 474//371 270//371 476//371
f 476//372 270//372 268//372
f 476//373 268//373 478//373
f 478//374 268//374 266//374
f 478//375 266//375 480//375
f 480//376 266//376 482//376
f 482//377 266//377 264//377
f 482//378 264//378 484//378
f 484//379 264//379 262//379
f 484//380 262//380 260//380
f 154//349 328//349 156//349
f 156//349 328//349 326//349
f 156//349 326//349 158//349
f 158//349 326//349 160//349
f 160//349 326//349 324//349
f 160//349 324//349 162//349
f 162//349 324//349 322//349
f 162//349 322//349 164//349
f 164//349 322//349 320//349
f 164//349 320//349 166//349
f 166//349 320//349 318//349
f 166//349 318//349 168//349
f 168//381 318//381 316//381
f 168//382 316//382 170//382
f 170//383 316//383 314//383
f 170//384 314//384 312//384
f 328//349 154//349 330//349
f 330//349 154//349 240//349
f 330//349 240//349 238//349
f 330//349 238//349 332//349
f 332//349 238//349 236//349
f 332//349 236//349 334//349
f 334//349 236//349 234//349
f 334//349 234//349 232//349
f 334//349 232//349 336//349
f 336//349 232//349 230//349
f 336//349 230//349 228//349
f 336//385 228//385 338//385
f 338//386 228//386 226//386
f 338//387 226//387 340//387
f 340//388 226//388 224//388
f 340//389 224//389 222//389
f 340//390 222//390 342//390
f 342//391 222//391 220//391
f 342//392 220//392 344//392
f 344//393 220//393 218//393
f 344//394 218//394 216//394
f 344//395 216//395 346//395
f 346//396 216//396 214//396
f 346//397 214//397 348//397
f 348//398 214//398 212//398
f 348//399 212//399 350//399
f 350//400 212//400 210//400
f 350//401 210//401 352//401
f 352//402 210//402 208//402
f 352//403 208//403 354//403
f 354//404 208//404 356//404
f 356//405 208//405 206//405
f 356//406 206//406 358//406
f 358//407 206//407 204//407
f 358//408 204//408 360//408
f 360//409 204//409 362//409
f 362//410 204//410 202//410
f 362//411 202//411 90//411
f 90//349 202//349 92//349
f 92//349 202//349 200//349
f 92//349 200//349 198//349
f 92//349 198//349 94//349
f 94//349 198//349 196//349
f 94//349 196//349 96//349
f 96//349 196//349 194//349
f 96//349 194//349 98//349
f 98//349 194//349 192//349
f 98//349 192//349 100//349
f 100//349 192//349 190//349
f 100//412 190//412 74//412
f 74//413 190//413 188//413
f 74//414 188//414 186//414
f 186//415 184//415 74//415
f 74//416 184//416 182//416
f 74//417 182//417 180//417
f 172//418 310//418 174//418
f 174//419 310//419 308//419
f 174//420 308//420 306//420
f 310//421 172//421 312//421
f 312//422 172//422 170//422
f 362//423 90//423 364//423
f 364//424 90//424 152//424
f 364//425 152//425 366//425
f 366//426 152//426 368//426
f 368//427 152//427 150//427
f 368//428 150//428 370//428
f 370//429 150//429 372//429
f 372//430 150//430 148//430
f 372//431 148//431 374//431
f 374//432 148//432 146//432
f 374//433 146//433 376//433
f 376//434 146//434 144//434
f 376//435 144//435 378//435
f 378//436 144//436 142//436
f 378//437 142//437 380//437
f 380//438 142//438 140//438
f 380//439 140//439 382//439
f 382//440 140//440 138//440
f 382//441 138//441 384//441
f 384//349 138//349 136//349
f 384//349 136//349 134//349
f 384//349 134//349 386//349
f 386//349 134//349 132//349
f 386//349 132//349 388//349
f 388//349 132//349 130//349
f 388//349 130//349 128//349
f 388//349 128//349 390//349
f 390//349 128//349 126//349
f 390//349 126//349 392//349
f 392//349 126//349 124//349
f 392//349 124//349 394//349
f 394//349 124//349 122//349
f 394//349 122//349 396//349
f 396//349 122//349 120//349
f 396//349 120//349 398//349
f 398//349 120//349 118//349
f 398//349 118//349 400//349
f 400//349 118//349 116//349
f 400//349 116//349 402//349
f 402//349 116//349 114//349
f 402//349 114//349 112//349
f 112//349 110//349 402//349
f 402//349 110//349 108//349
f 402//349 108//349 106//349
f 402//442 106//442 74//442
f 74//443 106//443 104//443
f 74//444 104//444 102//444
f 102//445 100//445 74//445
f 82//446 80//446 180//446
f 180//447 80//447 78//447
f 180//448 78//448 76//448
f 76//449 74//449 180//449
f 74//450 72//450 402//450
f 402//451 72//451 70//451
f 402//452 70//452 404//452
f 404//453 70//453 406//453
f 406//454 70//454 68//454
f 406//455 68//455 408//455
f 408//456 68//456 410//456
f 410//457 68//457 66//457
f 410//458 66//458 412//458
f 412//459 66//459 414//459
f 414//460 66//460 64//460
f 414//461 64//461 416//461
f 416//462 64//462 418//462
f 418//349 64//349 62//349
f 418//349 62//349 420//349
f 420//349 62//349 60//349
f 420//349 60//349 422//349
f 422//349 60//349 58//349
f 422//349 58//349 424//349
f 424//349 58//349 426//349
f 426//349 58//349 56//349
f 426//349 56//349 54//349
f 426//349 54//349 428//349
f 428//349 54//349 52//349
f 428//349 52//349 430//349
f 430//349 52//349 50//349
f 430//349 50//349 432//349
f 432//349 50//349 48//349
f 432//349 48//349 434//349
f 434//349 48//349 46//349
f 434//349 46//349 44//349
f 434//349 44//349 436//349
f 436//349 44//349 42//349
f 436//349 42//349 40//349
f 436//463 40//463 438//463
f 438//464 40//464 38//464
f 438//465 38//465 36//465
f 36//349 34//349 438//349
f 438//349 34//349 32//349
f 438//349 32//349 30//349
f 30//349 28//349 438//349
f 438//349 28//349 26//349
f 438//349 26//349 440//349
f 440//349 26//349 442//349
f 442//349 26//349 444//349
f 444//349 26//349 446//349
f 446//349 26//349 24//349
f 446//349 24//349 448//349
f 448//349 24//349 22//349
f 448//349 22//349 450//349
f 450//349 22//349 20//349
f 450//466 20//466 452//466
f 452//467 20//467 18//467
f 452//468 18//468 454//468
f 454//469 18//469 16//469
f 454//470 16//470 456//470
f 456//471 16//471 14//471
f 456//472 14//472 458//472
f 458//473 14//473 12//473
f 458//474 12//474 460//474
f 460//475 12//475 10//475
f 460//476 10//476 462//476
f 462//477 10//477 464//477
f 464//478 10//478 8//478
f 464//479 8//479 466//479
f 466//480 8//480 468//480
f 468//481 8//481 6//481
f 492//482 490//482 260//482
f 260//483 490//483 488//483
f 260//484 488//484 486//484
f 486//485 484//485 260//485
f 245//486 495//486 243//486
f 243//486 495//486 497//486
f 243//486 497//486 241//486
f 241//486 497//486 499//486
f 241//486 499//486 303//486
f 303//486 499//486 501//486
f 303//486 501//486 301//486
f 301//486 501//486 503//486
f 301//486 503//486 299//486
f 299//486 503//486 505//486
f 299//486 505//486 507//486
f 245//486 247//486 495//486
f 495//486 247//486 249//486
f 495//486 249//486 251//486
f 251//486 253//486 495//486
f 495//486 253//486 255//486
f 495//486 255//486 257//486
f 257//486 259//486 495//486
f 495//486 259//486 493//486
f 493//486 259//486 491//486
f 491//486 259//486 489//486
f 489//486 259//486 487//486
f 487//486 259//486 485//486
f 485//486 259//486 483//486
f 483//486 259//486 261//486
f 483//486 261//486 263//486
f 483//486 263//486 481//486
f 481//486 263//486 265//486
f 481//486 265//486 479//486
f 479//486 265//486 477//486
f 477//486 265//486 267//486
f 477//486 267//486 475//486
f 475//486 267//486 269//486
f 475//486 269//486 473//486
f 473//486 269//486 471//486
f 471//486 269//486 271//486
f 471//486 271//486 469//486
f 469//486 271//486 467//486
f 467//486 271//486 273//486
f 467//486 273//486 5//486
f 5//486 273//486 275//486
f 5//486 275//486 3//486
f 3//486 275//486 1//486
f 1//486 275//486 277//486
f 1//486 277//486 87//486
f 87//486 277//486 279//486
f 87//486 279//486 85//486
f 85//486 279//486 281//486
f 85//486 281//486 83//486
f 83//486 281//486 283//486
f 83//486 283//486 81//486
f 81//487 283//487 179//487
f 81//488 179//488 79//488
f 79//489 179//489 77//489
f 77//490 179//490 75//490
f 75//491 179//491 73//491
f 73//492 179//492 181//492
f 73//493 181//493 183//493
f 283//494 285//494 179//494
f 179//495 285//495 287//495
f 179//496 287//496 289//496
f 289//497 291//497 179//497
f 179//498 291//498 177//498
f 177//499 291//499 175//499
f 175//500 291//500 293//500
f 175//501 293//501 305//501
f 305//502 293//502 513//502
f 513//503 293//503 295//503
f 513//504 295//504 511//504
f 511//505 295//505 509//505
f 509//506 295//506 297//506
f 509//507 297//507 507//507
f 507//486 297//486 299//486
f 157//486 325//486 155//486
f 155//508 325//508 327//508
f 155//509 327//509 153//509
f 153//510 327//510 329//510
f 153//511 329//511 239//511
f 239//512 329//512 237//512
f 237//513 329//513 331//513
f 237//514 331//514 235//514
f 235//515 331//515 333//515
f 235//516 333//516 233//516
f 233//517 333//517 231//517
f 231//518 333//518 335//518
f 231//519 335//519 229//519
f 229//520 335//520 227//520
f 227//521 335//521 337//521
f 227//522 337//522 225//522
f 225//523 337//523 339//523
f 225//524 339//524 223//524
f 223//525 339//525 221//525
f 221//526 339//526 341//526
f 221//527 341//527 219//527
f 219//528 341//528 343//528
f 219//529 343//529 217//529
f 217//530 343//530 215//530
f 215//531 343//531 345//531
f 215//532 345//532 213//532
f 213//533 345//533 347//533
f 213//534 347//534 211//534
f 211//535 347//535 349//535
f 211//536 349//536 209//536
f 209//537 349//537 351//537
f 209//538 351//538 207//538
f 207//539 351//539 353//539
f 207//540 353//540 355//540
f 157//486 159//486 325//486
f 325//486 159//486 323//486
f 323//486 159//486 161//486
f 323//486 161//486 321//486
f 321//486 161//486 163//486
f 321//486 163//486 319//486
f 319//486 163//486 165//486
f 319//486 165//486 317//486
f 317//486 165//486 167//486
f 317//486 167//486 315//486
f 315//486 167//486 169//486
f 315//486 169//486 313//486
f 313//486 169//486 311//486
f 311//486 169//486 171//486
f 311//486 171//486 309//486
f 309//486 171//486 173//486
f 309//486 173//486 307//486
f 307//486 173//486 305//486
f 305//486 173//486 175//486
f 183//541 185//541 73//541
f 73//542 185//542 187//542
f 73//543 187//543 189//543
f 73//544 189//544 99//544
f 99//486 189//486 191//486
f 99//486 191//486 97//486
f 97//486 191//486 193//486
f 97//486 193//486 95//486
f 95//486 193//486 195//486
f 95//486 195//486 93//486
f 93//486 195//486 197//486
f 93//486 197//486 91//486
f 91//486 197//486 199//486
f 91//486 199//486 201//486
f 203//545 361//545 201//545
f 201//546 361//546 89//546
f 201//486 89//486 91//486
f 205//547 357//547 203//547
f 203//548 357//548 359//548
f 203//549 359//549 361//549
f 357//550 205//550 355//550
f 355//551 205//551 207//551
f 99//552 101//552 73//552
f 73//553 101//553 103//553
f 73//554 103//554 105//554
f 105//555 107//555 73//555
f 73//556 107//556 109//556
f 73//557 109//557 111//557
f 73//558 111//558 401//558
f 401//486 111//486 113//486
f 401//486 113//486 115//486
f 401//486 115//486 399//486
f 399//486 115//486 117//486
f 399//486 117//486 397//486
f 397//486 117//486 119//486
f 397//486 119//486 395//486
f 395//486 119//486 121//486
f 395//559 121//559 393//559
f 393//560 121//560 123//560
f 393//561 123//561 391//561
f 391//562 123//562 125//562
f 391//563 125//563 389//563
f 389//564 125//564 127//564
f 389//565 127//565 387//565
f 387//566 127//566 129//566
f 387//567 129//567 131//567
f 387//568 131//568 385//568
f 385//569 131//569 133//569
f 385//570 133//570 383//570
f 383//571 133//571 135//571
f 383//572 135//572 137//572
f 383//573 137//573 381//573
f 381//574 137//574 139//574
f 381//575 139//575 379//575
f 379//576 139//576 141//576
f 379//577 141//577 377//577
f 377//578 141//578 143//578
f 377//579 143//579 375//579
f 375//580 143//580 145//580
f 375//581 145//581 373//581
f 373//582 145//582 147//582
f 373//583 147//583 371//583
f 371//584 147//584 149//584
f 371//585 149//585 369//585
f 369//586 149//586 367//586
f 367//587 149//587 151//587
f 367//588 151//588 365//588
f 365//589 151//589 363//589
f 363//590 151//590 89//590
f 363//591 89//591 361//591
f 5//486 7//486 467//486
f 467//486 7//486 465//486
f 465//486 7//486 463//486
f 463//486 7//486 9//486
f 463//486 9//486 461//486
f 461//486 9//486 459//486
f 459//486 9//486 11//486
f 459//486 11//486 457//486
f 457//486 11//486 13//486
f 457//486 13//486 455//486
f 455//486 13//486 15//486
f 455//486 15//486 453//486
f 453//486 15//486 17//486
f 453//486 17//486 451//486
f 451//486 17//486 19//486
f 451//486 19//486 449//486
f 449//486 19//486 21//486
f 449//486 21//486 447//486
f 447//486 21//486 23//486
f 447//486 23//486 445//486
f 445//486 23//486 25//486
f 445//486 25//486 443//486
f 443//486 25//486 441//486
f 441//486 25//486 439//486
f 439//486 25//486 437//486
f 437//486 25//486 27//486
f 437//486 27//486 29//486
f 29//486 31//486 437//486
f 437//486 31//486 33//486
f 437//486 33//486 35//486
f 35//486 37//486 437//486
f 437//486 37//486 39//486
f 437//486 39//486 435//486
f 435//486 39//486 41//486
f 435//486 41//486 43//486
f 435//486 43//486 433//486
f 433//486 43//486 45//486
f 433//486 45//486 47//486
f 433//486 47//486 431//486
f 431//486 47//486 49//486
f 431//486 49//486 429//486
f 429//486 49//486 51//486
f 429//486 51//486 427//486
f 427//486 51//486 53//486
f 427//486 53//486 425//486
f 425//486 53//486 55//486
f 425//486 55//486 57//486
f 59//486 421//486 57//486
f 57//486 421//486 423//486
f 57//486 423//486 425//486
f 421//592 59//592 419//592
f 419//593 59//593 61//593
f 419//594 61//594 417//594
f 417//595 61//595 63//595
f 417//596 63//596 415//596
f 415//597 63//597 413//597
f 413//598 63//598 65//598
f 413//599 65//599 411//599
f 411//600 65//600 409//600
f 409//601 65//601 67//601
f 409//602 67//602 407//602
f 407//603 67//603 405//603
f 405//604 67//604 69//604
f 405//605 69//605 403//605
f 403//606 69//606 401//606
f 401//607 69//607 71//607
f 401//608 71//608 73//608
# Vertices: 514, normals: 608, texture coordinates: 0, faces: 1040

