# File generated by ImageToStl.com - Free Image and 3D model conversion tools

mtllib random.mtl

o obj1
v -0.035 0 0.02
v -0.035 0 0.01
v -0.03493736 -0.00209315 0.02
v -0.03493736 0.00209315 0.01
v -0.03493736 -0.00209315 0.01
v -0.0191904 -0.01174304 0.01
v -0.0191904 -0.01174304 0.02
v -0.03493736 0.00209315 0.02
v -0.03474964 -0.0041788 0.02
v -0.03474964 -0.0041788 0.01
v -0.01999249 -0.01204221 0.01
v -0.01999249 -0.01204221 0.02
v -0.03474964 0.0041788 0.01
v -0.01813404 0.01431245 0.01
v -0.01835389 -0.01156107 0.01
v -0.03474964 0.0041788 0.02
v -0.01813404 0.01431245 0.02
v -0.01835389 -0.01156107 0.02
v -0.03443754 -0.00624949 0.02
v -0.03443754 -0.00624949 0.01
v -0.02074385 -0.01245248 0.01
v -0.02074385 -0.01245248 0.02
v -0.03443754 0.00624949 0.01
v -0.01874372 0.01449739 0.01
v -0.03443754 0.00624949 0.02
v -0.01874372 0.01449739 0.02
v -0.03400215 -0.00829781 0.02
v -0.03400215 -0.00829781 0.01
v -0.03400215 0.00829781 0.01
v -0.03400215 0.00829781 0.02
v -0.03344505 -0.01031643 0.02
v -0.03344505 -0.01031643 0.01
v -0.02142916 -0.0129655 0.01
v -0.02142916 -0.0129655 0.02
v -0.03344505 0.01031643 0.01
v -0.0193056 0.01479772 0.01
v -0.03344505 0.01031643 0.02
v -0.0193056 0.01479772 0.02
v -0.03276822 -0.01229812 0.02
v -0.03276822 -0.01229812 0.01
v -0.0220345 -0.01357084 0.01
v -0.0220345 -0.01357084 0.02
v -0.03276822 0.01229812 0.01
v -0.0197981 0.0152019 0.01
v -0.03276822 0.01229812 0.02
v -0.0197981 0.0152019 0.02
v -0.03197409 -0.01423578 0.02
v -0.03197409 -0.01423578 0.01
v -0.02254752 -0.01425616 0.01
v -0.02254752 -0.01425616 0.02
v -0.03197409 0.01423578 0.01
v -0.03197409 0.01423578 0.02
v -0.0310655 -0.01612249 0.02
v -0.0310655 -0.01612249 0.01
v -0.02295779 -0.01500751 0.01
v -0.02295779 -0.01500751 0.02
v -0.0310655 0.01612249 0.01
v -0.02020228 0.0156944 0.01
v -0.0310655 0.01612249 0.02
v -0.02020228 0.0156944 0.02
v -0.03004571 -0.01795148 0.02
v -0.03004571 -0.01795148 0.01
v -0.02325696 -0.0158096 0.01
v -0.02325696 -0.0158096 0.02
v -0.03004571 0.01795148 0.01
v -0.02050261 0.01625628 0.01
v -0.03004571 0.01795148 0.02
v -0.02050261 0.01625628 0.02
v -0.02891836 -0.0197162 0.02
v -0.02891836 -0.0197162 0.01
v -0.0235 -0.0175 0.01
v -0.02343893 -0.01664611 0.01
v -0.0235 -0.0175 0.02
v -0.02343893 -0.01664611 0.02
v -0.02891836 0.0197162 0.01
v -0.02068755 0.01686596 0.01
v -0.02891836 0.0197162 0.02
v -0.02068755 0.01686596 0.02
v -0.02768749 -0.02141035 0.02
v -0.02768749 -0.02141035 0.01
v -0.02343893 -0.01835389 0.01
v -0.02343893 -0.01835389 0.02
v -0.02768749 0.02141035 0.01
v -0.02075 0.0175 0.01
v -0.02768749 0.02141035 0.02
v -0.02075 0.0175 0.02
v -0.0263575 -0.02302786 0.02
v -0.0263575 -0.02302786 0.01
v -0.02295779 -0.01999249 0.01
v -0.02325696 -0.0191904 0.01
v -0.02295779 -0.01999249 0.02
v -0.02325696 -0.0191904 0.02
v -0.0263575 0.02302786 0.01
v -0.0175 0.02075 0.01
v -0.02068755 0.01813404 0.01
v -0.02050261 0.01874372 0.01
v -0.02020228 0.0193056 0.01
v -0.0197981 0.0197981 0.01
v -0.0193056 0.02020228 0.01
v -0.01874372 0.02050261 0.01
v -0.01813404 0.02068755 0.01
v -0.0263575 0.02302786 0.02
v -0.0175 0.02075 0.02
v -0.02068755 0.01813404 0.02
v -0.02050261 0.01874372 0.02
v -0.02020228 0.0193056 0.02
v -0.0197981 0.0197981 0.02
v -0.0193056 0.02020228 0.02
v -0.01874372 0.02050261 0.02
v -0.01813404 0.02068755 0.02
v -0.02493316 -0.02456293 0.02
v -0.02493316 -0.02456293 0.01
v -0.02254752 -0.02074385 0.01
v -0.02254752 -0.02074385 0.02
v -0.02493316 0.02456293 0.01
v -0.02493316 0.02456293 0.02
v -0.02341957 -0.02601007 0.02
v -0.02341957 -0.02601007 0.01
v -0.02142916 -0.0220345 0.01
v -0.0220345 -0.02142916 0.01
v -0.02142916 -0.0220345 0.02
v -0.0220345 -0.02142916 0.02
v -0.02341957 0.02601007 0.01
v -0.02341957 0.02601007 0.02
v -0.02182214 -0.0273641 0.02
v -0.02182214 -0.0273641 0.01
v -0.01999249 -0.02295779 0.01
v -0.02074385 -0.02254752 0.01
v -0.01999249 -0.02295779 0.02
v -0.02074385 -0.02254752 0.02
v -0.02182214 0.0273641 0.01
v -0.02182214 0.0273641 0.02
v -0.0201466 -0.02862018 0.02
v -0.0201466 -0.02862018 0.01
v -0.0191904 -0.02325696 0.01
v -0.0191904 -0.02325696 0.02
v -0.0201466 0.02862018 0.01
v -0.0201466 0.02862018 0.02
v -0.01839893 -0.0297738 0.02
v -0.01835389 -0.02343893 0.01
v -0.01839893 -0.0297738 0.01
v -0.0175 -0.0235 0.01
v -0.01835389 -0.02343893 0.02
v -0.0175 -0.0235 0.02
v -0.01839893 0.0297738 0.01
v -0.01839893 0.0297738 0.02
v -0.0165854 -0.03082084 0.02
v -0.01664611 -0.02343893 0.01
v -0.0165854 -0.03082084 0.01
v -0.01664611 -0.02343893 0.02
v -0.0165854 0.03082084 0.01
v -0.01686596 0.02068755 0.01
v -0.01625628 0.02050261 0.01
v -0.01686596 0.02068755 0.02
v -0.01625628 0.02050261 0.02
v -0.0165854 0.03082084 0.02
v -0.0175 -0.0115 0.02
v -0.0175 0.01425 0.01
v -0.0175 -0.0115 0.01
v -0.0175 0.01425 0.02
v -0.01664611 -0.01156107 0.02
v -0.01664611 -0.01156107 0.01
v -0.01686596 0.01431245 0.01
v -0.01686596 0.01431245 0.02
v -0.01625628 0.01449739 0.01
v -0.01625628 0.01449739 0.02
v -0.0158096 -0.02325696 0.01
v -0.0158096 -0.02325696 0.02
v -0.0158096 -0.01174304 0.02
v -0.0156944 0.01479772 0.01
v -0.0158096 -0.01174304 0.01
v 0.0158096 0.01174304 0.01
v -0.0152019 0.0152019 0.01
v 0.0129655 0.01357084 0.01
v 0.01357084 0.0129655 0.01
v 0.01425616 0.01245248 0.01
v 0.01500751 0.01204221 0.01
v -0.0156944 0.01479772 0.02
v 0.0158096 0.01174304 0.02
v -0.0152019 0.0152019 0.02
v 0.0129655 0.01357084 0.02
v 0.01357084 0.0129655 0.02
v 0.01425616 0.01245248 0.02
v 0.01500751 0.01204221 0.02
v -0.0147125 -0.03175756 0.02
v -0.01500751 -0.02295779 0.01
v -0.0147125 -0.03175756 0.01
v -0.01500751 -0.02295779 0.02
v -0.0147125 0.03175756 0.01
v -0.0156944 0.02020228 0.01
v -0.0156944 0.02020228 0.02
v -0.0147125 0.03175756 0.02
v -0.01500751 -0.01204221 0.02
v -0.01500751 -0.01204221 0.01
v -0.0152019 0.0197981 0.02
v -0.0152019 0.0197981 0.01
v -0.01278694 0.03258058 0.01
v -0.01278694 0.03258058 0.02
v -0.01479772 0.0156944 0.01
v 0.01245248 0.01425616 0.01
v -0.01479772 0.0156944 0.02
v 0.01245248 0.01425616 0.02
v -0.01479772 0.0193056 0.02
v -0.01479772 0.0193056 0.01
v -0.01081559 0.03328698 0.01
v -0.01081559 0.03328698 0.02
v -0.01425616 -0.02254752 0.01
v -0.01425616 -0.02254752 0.02
v -0.01425616 -0.01245248 0.02
v -0.01425616 -0.01245248 0.01
v -0.01449739 0.01625628 0.01
v 0.01204221 0.01500751 0.01
v -0.01449739 0.01625628 0.02
v 0.01204221 0.01500751 0.02
v -0.01449739 0.01874372 0.02
v -0.01449739 0.01874372 0.01
v -0.00676396 0.03434019 0.01
v -0.00880554 0.03387422 0.01
v -0.00676396 0.03434019 0.02
v -0.00880554 0.03387422 0.02
v -0.01278694 -0.03258058 0.02
v -0.01278694 -0.03258058 0.01
v -0.01431245 0.01686596 0.01
v 0.01174304 0.0158096 0.01
v -0.01431245 0.01686596 0.02
v 0.01174304 0.0158096 0.02
v -0.01431245 0.01813404 0.02
v -0.01431245 0.01813404 0.01
v -0.00261555 0.03490213 0.01
v -0.00469816 0.03468324 0.01
v -0.00261555 0.03490213 0.02
v -0.00469816 0.03468324 0.02
v -0.01425 0.0175 0.01
v 0.01156107 0.01664611 0.01
v -0.01425 0.0175 0.02
v 0.01156107 0.01664611 0.02
v 0.01156107 0.01835389 0.01
v 0.01156107 0.01835389 0.02
v -0.01357084 -0.0220345 0.01
v -0.01357084 -0.0220345 0.02
v -0.01357084 -0.0129655 0.02
v -0.01357084 -0.0129655 0.01
v 0.0115 0.0175 0.01
v 0.0115 0.0175 0.02
v -0.0129655 -0.02142916 0.01
v -0.01081559 -0.03328698 0.01
v -0.0129655 -0.02142916 0.02
v -0.01081559 -0.03328698 0.02
v -0.0129655 -0.01357084 0.02
v -0.0129655 -0.01357084 0.01
v -0.01245248 -0.02074385 0.01
v -0.00880554 -0.03387422 0.01
v -0.01245248 -0.02074385 0.02
v -0.00880554 -0.03387422 0.02
v -0.01245248 -0.01425616 0.02
v -0.01245248 -0.01425616 0.01
v 0.0152019 -0.0152019 0.01
v 0.0152019 -0.0152019 0.02
v -0.01204221 -0.01999249 0.01
v -0.00469816 -0.03468324 0.01
v -0.00676396 -0.03434019 0.01
v -0.01204221 -0.01999249 0.02
v -0.00469816 -0.03468324 0.02
v -0.00676396 -0.03434019 0.02
v -0.01204221 -0.01500751 0.02
v -0.01204221 -0.01500751 0.01
v 0.01479772 -0.0156944 0.01
v 0.01479772 -0.0156944 0.02
v -0.01174304 -0.0191904 0.01
v -0.00261555 -0.03490213 0.01
v -0.01174304 -0.0191904 0.02
v -0.00261555 -0.03490213 0.02
v -0.01174304 -0.0158096 0.02
v -0.01174304 -0.0158096 0.01
v 0.01449739 -0.01625628 0.01
v 0.01449739 -0.01625628 0.02
v -0.01156107 -0.01835389 0.01
v 0.00157027 -0.03496476 0.01
v -0.00052358 -0.03499608 0.01
v -0.01156107 -0.01835389 0.02
v 0.00157027 -0.03496476 0.02
v -0.00052358 -0.03499608 0.02
v -0.01156107 -0.01664611 0.02
v -0.01156107 -0.01664611 0.01
v 0.01431245 -0.01686596 0.01
v 0.01431245 -0.01686596 0.02
v -0.0115 -0.0175 0.01
v 0.01425 -0.0175 0.01
v 0.01431245 -0.01813404 0.01
v -0.0115 -0.0175 0.02
v 0.01425 -0.0175 0.02
v 0.01431245 -0.01813404 0.02
v -0.00052358 0.03499608 0.01
v 0.01174304 0.0191904 0.01
v -0.00052358 0.03499608 0.02
v 0.01174304 0.0191904 0.02
v 0.00157027 0.03496476 0.01
v 0.00157027 0.03496476 0.02
v 0.0036585 -0.03480827 0.02
v 0.0036585 -0.03480827 0.01
v 0.0036585 0.03480827 0.01
v 0.01204221 0.01999249 0.01
v 0.0036585 0.03480827 0.02
v 0.01204221 0.01999249 0.02
v 0.00573363 -0.03452717 0.02
v 0.00573363 -0.03452717 0.01
v 0.01449739 -0.01874372 0.01
v 0.01449739 -0.01874372 0.02
v 0.00573363 0.03452717 0.01
v 0.00573363 0.03452717 0.02
v 0.00778823 -0.03412248 0.02
v 0.00778823 -0.03412248 0.01
v 0.00778823 0.03412248 0.01
v 0.01245248 0.02074385 0.01
v 0.00778823 0.03412248 0.02
v 0.01245248 0.02074385 0.02
v 0.00981496 -0.03359563 0.02
v 0.00981496 -0.03359563 0.01
v 0.01479772 -0.0193056 0.01
v 0.01479772 -0.0193056 0.02
v 0.00981496 0.03359563 0.01
v 0.0129655 0.02142916 0.01
v 0.00981496 0.03359563 0.02
v 0.0129655 0.02142916 0.02
v 0.01180655 -0.03294853 0.02
v 0.01180655 -0.03294853 0.01
v 0.01180655 0.03294853 0.01
v 0.01357084 0.0220345 0.01
v 0.01180655 0.03294853 0.02
v 0.01357084 0.0220345 0.02
v 0.01375588 -0.03218347 0.02
v 0.01375588 -0.03218347 0.01
v 0.0152019 -0.0197981 0.01
v 0.0152019 -0.0197981 0.02
v 0.01375588 0.03218347 0.01
v 0.01425616 0.02254752 0.01
v 0.01425616 0.02254752 0.02
v 0.01375588 0.03218347 0.02
v 0.01565596 -0.03130321 0.02
v 0.0156944 -0.02020228 0.01
v 0.01565596 -0.03130321 0.01
v 0.0156944 -0.02020228 0.02
v 0.01565596 0.03130321 0.01
v 0.01500751 0.02295779 0.01
v 0.01500751 0.02295779 0.02
v 0.01565596 0.03130321 0.02
v 0.0158096 0.02325696 0.02
v 0.0158096 0.02325696 0.01
v 0.0156944 -0.01479772 0.02
v 0.0156944 -0.01479772 0.01
v 0.0175 -0.03031089 0.02
v 0.01625628 -0.02050261 0.01
v 0.0175 -0.03031089 0.01
v 0.01625628 -0.02050261 0.02
v 0.0175 0.03031089 0.01
v 0.0175 0.03031089 0.02
v 0.01625628 -0.01449739 0.02
v 0.01625628 -0.01449739 0.01
v 0.01664611 0.01156107 0.01
v 0.01686596 -0.01431245 0.01
v 0.03312146 -0.01131234 0.01
v 0.01686596 -0.01431245 0.02
v 0.01664611 0.01156107 0.02
v 0.03312146 -0.01131234 0.02
v 0.0175 -0.01425 0.02
v 0.01813404 -0.01431245 0.02
v 0.01874372 -0.01449739 0.02
v 0.01664611 0.02343893 0.02
v 0.01664611 0.02343893 0.01
v 0.01686596 -0.02068755 0.01
v 0.01686596 -0.02068755 0.02
v 0.0175 0.0115 0.01
v 0.0175 0.0115 0.02
v 0.0175 0.0235 0.02
v 0.0175 0.0235 0.01
v 0.01928139 0.02921006 0.01
v 0.01928139 0.02921006 0.02
v 0.0175 -0.02075 0.01
v 0.01928139 -0.02921006 0.01
v 0.01928139 -0.02921006 0.02
v 0.0175 -0.02075 0.02
v 0.0175 -0.01425 0.01
v 0.01813404 -0.02068755 0.01
v 0.02099377 -0.02800467 0.01
v 0.01813404 -0.02068755 0.02
v 0.02099377 -0.02800467 0.02
v 0.01813404 -0.01431245 0.01
v 0.01835389 0.01156107 0.01
v 0.03423516 -0.00727691 0.01
v 0.0337387 -0.00931129 0.01
v 0.01835389 0.01156107 0.02
v 0.03423516 -0.00727691 0.02
v 0.0337387 -0.00931129 0.02
v 0.01835389 0.02343893 0.02
v 0.01835389 0.02343893 0.01
v 0.02565682 0.02380605 0.01
v 0.02099377 0.02800467 0.01
v 0.02263099 0.02669903 0.01
v 0.02418719 0.02529782 0.01
v 0.02565682 0.02380605 0.02
v 0.02099377 0.02800467 0.02
v 0.02263099 0.02669903 0.02
v 0.02418719 0.02529782 0.02
v 0.01874372 -0.02050261 0.01
v 0.02263099 -0.02669903 0.01
v 0.01874372 -0.02050261 0.02
v 0.02263099 -0.02669903 0.02
v 0.01874372 -0.01449739 0.01
v 0.0191904 0.01174304 0.01
v 0.0348591 -0.00313738 0.01
v 0.03460908 -0.00521648 0.01
v 0.0191904 0.01174304 0.02
v 0.0348591 -0.00313738 0.02
v 0.03460908 -0.00521648 0.02
v 0.0191904 0.02325696 0.02
v 0.0191904 0.02325696 0.01
v 0.0193056 -0.02020228 0.01
v 0.0193056 -0.02020228 0.02
v 0.0193056 -0.01479772 0.02
v 0.0193056 -0.01479772 0.01
v 0.01999249 0.01204221 0.01
v 0.03498434 0.00104704 0.01
v 0.03498434 -0.00104704 0.01
v 0.01999249 0.01204221 0.02
v 0.03498434 0.00104704 0.02
v 0.03498434 -0.00104704 0.02
v 0.01999249 0.02295779 0.02
v 0.01999249 0.02295779 0.01
v 0.0197981 -0.0197981 0.01
v 0.02418719 -0.02529782 0.01
v 0.0197981 -0.0197981 0.02
v 0.02418719 -0.02529782 0.02
v 0.0197981 -0.0152019 0.02
v 0.0197981 -0.0152019 0.01
v 0.02020228 -0.0193056 0.01
v 0.02565682 -0.02380605 0.01
v 0.02020228 -0.0193056 0.02
v 0.02565682 -0.02380605 0.02
v 0.02020228 -0.0156944 0.02
v 0.02020228 -0.0156944 0.01
v 0.03238565 -0.01327289 0.01
v 0.03238565 -0.01327289 0.02
v 0.02074385 0.01245248 0.01
v 0.03460908 0.00521648 0.01
v 0.0348591 0.00313738 0.01
v 0.02074385 0.01245248 0.02
v 0.03460908 0.00521648 0.02
v 0.0348591 0.00313738 0.02
v 0.02074385 0.02254752 0.02
v 0.02074385 0.02254752 0.01
v 0.02050261 -0.01874372 0.01
v 0.02050261 -0.01874372 0.02
v 0.02050261 -0.01625628 0.02
v 0.02050261 -0.01625628 0.01
v 0.03153391 -0.01518593 0.01
v 0.03153391 -0.01518593 0.02
v 0.02068755 -0.01813404 0.01
v 0.02703459 -0.02222905 0.01
v 0.02068755 -0.01813404 0.02
v 0.02703459 -0.02222905 0.02
v 0.02068755 -0.01686596 0.02
v 0.02068755 -0.01686596 0.01
v 0.03056929 -0.01704461 0.01
v 0.03056929 -0.01704461 0.02
v 0.02075 -0.0175 0.01
v 0.02831559 -0.02057248 0.01
v 0.02075 -0.0175 0.02
v 0.02831559 -0.02057248 0.02
v 0.02949523 -0.01884227 0.01
v 0.02949523 -0.01884227 0.02
v 0.02142916 0.0129655 0.01
v 0.03423516 0.00727691 0.01
v 0.02142916 0.0129655 0.02
v 0.03423516 0.00727691 0.02
v 0.02142916 0.0220345 0.02
v 0.02142916 0.0220345 0.01
v 0.0220345 0.01357084 0.01
v 0.0337387 0.00931129 0.01
v 0.0220345 0.01357084 0.02
v 0.0337387 0.00931129 0.02
v 0.0220345 0.02142916 0.02
v 0.0220345 0.02142916 0.01
v 0.02254752 0.01425616 0.01
v 0.03238565 0.01327289 0.01
v 0.03312146 0.01131234 0.01
v 0.02254752 0.01425616 0.02
v 0.03238565 0.01327289 0.02
v 0.03312146 0.01131234 0.02
v 0.02254752 0.02074385 0.02
v 0.02254752 0.02074385 0.01
v 0.02295779 0.01500751 0.01
v 0.02295779 0.01500751 0.02
v 0.02295779 0.01999249 0.02
v 0.02295779 0.01999249 0.01
v 0.02703459 0.02222905 0.01
v 0.02703459 0.02222905 0.02
v 0.02325696 0.0158096 0.01
v 0.03153391 0.01518593 0.01
v 0.02325696 0.0158096 0.02
v 0.03153391 0.01518593 0.02
v 0.02325696 0.0191904 0.02
v 0.02325696 0.0191904 0.01
v 0.02343893 0.01664611 0.01
v 0.03056929 0.01704461 0.01
v 0.02343893 0.01664611 0.02
v 0.03056929 0.01704461 0.02
v 0.02343893 0.01835389 0.02
v 0.02343893 0.01835389 0.01
v 0.02831559 0.02057248 0.01
v 0.02831559 0.02057248 0.02
v 0.0235 0.0175 0.01
v 0.02949523 0.01884227 0.01
v 0.0235 0.0175 0.02
v 0.02949523 0.01884227 0.02
vn -1 0 0
vn -0.99821 -0.0598 0
vn -0.99821 0.0598 -0
vn 0 0 -1
vn 0 0 1
vn -0.99285 -0.11939 0
vn -0.99285 0.11939 0
vn -0.98393 -0.17856 0
vn -0.98393 0.17856 0
vn -0.97149 -0.23708 0
vn -0.97149 0.23708 0
vn -0.95557 -0.29476 0
vn -0.95557 0.29476 0
vn -0.93623 -0.35137 0
vn -0.93623 0.35137 0
vn -0.91355 -0.40674 0
vn -0.91355 0.40674 0
vn -0.88759 -0.46064 0
vn -0.88759 0.46064 0
vn -0.85845 -0.5129 0
vn -0.85845 0.5129 0
vn -0.82624 -0.56332 0
vn -0.82624 0.56332 0
vn -0.79107 -0.61172 0
vn -0.79107 0.61172 0
vn -0.75307 -0.65794 0
vn -0.75307 0.65794 0
vn -0.71238 -0.7018 0
vn -0.71238 0.7018 0
vn -0.66913 -0.74314 0
vn -0.66913 0.74314 0
vn 1 0 0
vn 0.98982 0.14231 0
vn 0.98982 -0.14231 0
vn 0.95949 0.28173 0
vn 0.95949 -0.28173 0
vn -0.62349 -0.78183 0
vn -0.62349 0.78183 0
vn 0.90963 0.41541 0
vn 0.90963 -0.41542 0
vn 0.84125 0.54064 0
vn 0.84125 -0.54064 0
vn 0.75575 0.65486 0
vn 0.75575 -0.65486 0
vn 0.65486 0.75575 0
vn 0.65486 -0.75575 0
vn -0.57562 -0.81772 0
vn -0.57562 0.81772 0
vn 0.54064 0.84125 0
vn 0.54064 -0.84125 0
vn 1 -0 0
vn 0.98079 0.19509 0
vn 0.98079 -0.19509 0
vn 0.41541 0.90963 0
vn 0.41541 -0.90963 0
vn 0.92388 0.38268 0
vn 0.92388 -0.38268 0
vn 0.83147 0.55557 0
vn 0.83147 -0.55557 0
vn 0.70711 0.70711 0
vn 0.70711 -0.70711 0
vn -0.52568 -0.85068 0
vn -0.52568 0.85068 0
vn 0.28173 0.95949 0
vn 0.28173 -0.95949 0
vn 0.55557 0.83147 0
vn 0.55557 -0.83147 0
vn 0.38268 0.92388 0
vn 0.38268 -0.92388 0
vn 0.14231 0.98982 0
vn 0.14232 -0.98982 0
vn 0.19509 0.98079 0
vn 0.19509 -0.98079 0
vn -0.47387 -0.8806 0
vn -0.47387 0.8806 0
vn 0 1 0
vn 0 -1 0
vn 0 1 0
vn 0 -1 0
vn -0.14231 0.98982 0
vn -0.14232 -0.98982 0
vn -0.19509 0.98079 0
vn -0.19509 -0.98079 0
vn -0.38268 0.92388 0
vn -0.38268 -0.92388 0
vn -0.28173 0.95949 0
vn -0.28173 -0.95949 0
vn -0.42036 -0.90736 0
vn -0.42036 0.90736 0
vn -0.55557 0.83147 0
vn -0.55557 -0.83147 0
vn -0.41542 0.90963 0
vn -0.41541 -0.90963 0
vn -0.70711 0.70711 0
vn -0.70711 -0.70711 0
vn -0.83147 0.55557 0
vn -0.83147 -0.55557 0
vn -0.54064 0.84125 0
vn -0.54064 -0.84125 0
vn -0.92388 0.38268 0
vn -0.92388 -0.38268 0
vn -0.36534 -0.93087 0
vn -0.36534 0.93087 0
vn -0.98079 0.19509 0
vn -0.98079 -0.19509 0
vn -1 -0 0
vn -0.65486 0.75575 0
vn -0.65486 -0.75575 0
vn -0.75575 0.65486 0
vn -0.75575 -0.65486 0
vn -0.84125 0.54064 0
vn -0.84125 -0.54064 0
vn -0.30902 -0.95106 0
vn -0.30902 0.95106 0
vn -0.90963 0.41541 0
vn -0.90963 -0.41541 0
vn -0.95949 0.28173 0
vn -0.95949 -0.28173 0
vn -0.98982 0.14232 0
vn -0.98982 -0.14232 0
vn -0.25159 -0.96783 0
vn -0.25159 0.96783 0
vn -0.19326 -0.98115 0
vn -0.19326 0.98115 0
vn -0.13423 -0.99095 0
vn -0.13423 0.99095 0
vn -0.07473 -0.9972 0
vn -0.07473 0.9972 0
vn -0.01496 -0.99989 0
vn -0.01496 0.99989 0
vn 0.04487 -0.99899 0
vn 0.04487 0.99899 0
vn 0.10453 -0.99452 0
vn 0.10453 0.99452 0
vn 0.16382 -0.98649 0
vn 0.16382 0.98649 0
vn 0.22252 -0.97493 0
vn 0.22252 0.97493 0
vn 0.28043 -0.95988 0
vn 0.28043 0.95988 0
vn 0.33733 -0.94139 0
vn 0.33733 0.94139 0
vn 0.98982 0.14232 0
vn 0.98982 -0.14232 0
vn 0.95949 0.28173 0
vn 0.95949 -0.28173 0
vn 0.90963 0.41541 0
vn 0.90963 -0.41541 0
vn 0.39303 -0.91953 0
vn 0.39303 0.91953 0
vn 0.84125 0.54064 0
vn 0.84125 -0.54064 0
vn 0.75575 0.65486 0
vn 0.75575 -0.65486 0
vn 0.65486 0.75575 0
vn 0.65486 -0.75575 0
vn 0.54064 0.84125 0
vn 0.54064 -0.84125 0
vn 0.44731 -0.89438 0
vn 0.44731 0.89438 0
vn 1 0 0
vn 0.98079 0.19509 0
vn 0.98079 -0.19509 0
vn 0.41541 0.90963 0
vn 0.41542 -0.90963 0
vn 0.92388 0.38268 0
vn 0.92388 -0.38268 0
vn 0.83147 0.55557 0
vn 0.83147 -0.55557 0
vn 0.70711 0.70711 0
vn 0.28173 0.95949 0
vn 0.28173 -0.95949 0
vn 0.55557 0.83147 0
vn 0.55557 -0.83147 0
vn 0.5 -0.86603 0
vn 0.5 0.86603 0
vn 0.38268 0.92388 0
vn 0.38268 -0.92388 0
vn 0.14232 0.98982 0
vn 0.14231 -0.98982 0
vn 0.19509 0.98079 0
vn 0.19509 -0.98079 0
vn -0 1 0
vn -0 -1 0
vn 0.5509 -0.83457 0
vn -0.19509 0.98079 0
vn -0.19509 -0.98079 0
vn -0.14232 0.98982 0
vn -0.14231 -0.98982 0
vn 0.5509 0.83457 0
vn -0.38268 0.92388 0
vn -0.38268 -0.92388 0
vn -0.28173 0.95949 0
vn -0.28173 -0.95949 0
vn -0.55557 0.83147 0
vn -0.55557 -0.83147 0
vn -0.41541 0.90963 0
vn -0.41541 -0.90963 0
vn 0.59982 -0.80013 0
vn 0.59982 0.80013 0
vn -0.70711 -0.70711 0
vn -0.83147 0.55557 0
vn -0.83147 -0.55557 0
vn -0.54064 0.84125 0
vn -0.54064 -0.84125 0
vn -0.92388 0.38268 0
vn -0.92388 -0.38268 0
vn -0.98079 0.19509 0
vn -0.98079 -0.19509 0
vn -1 0 0
vn -0.65486 0.75575 0
vn -0.65486 -0.75575 0
vn 0.6466 -0.76283 0
vn 0.6466 0.76283 0
vn -0.75575 0.65486 0
vn -0.75575 -0.65486 0
vn -0.84125 0.54064 0
vn -0.84125 -0.54064 0
vn -0.90963 0.41542 0
vn -0.90963 -0.41541 0
vn 0.69106 -0.7228 0
vn 0.69106 0.7228 0
vn -0.95949 0.28173 0
vn -0.95949 -0.28173 0
vn -0.98982 0.14231 0
vn -0.98982 -0.14231 0
vn 0.73305 -0.68017 0
vn 0.73305 0.68017 0
vn 0.77242 -0.63512 0
vn 0.77242 0.63512 0
vn 0.80902 -0.58779 0
vn 0.80902 0.58779 0
vn 0.84272 -0.53835 0
vn 0.84272 0.53835 0
vn 0.87341 -0.48699 0
vn 0.87341 0.48699 0
vn 0.90097 -0.43388 0
vn 0.90097 0.43388 0
vn 0.9253 -0.37923 0
vn 0.9253 0.37923 0
vn 0.94633 -0.32321 0
vn 0.94633 0.32321 0
vn 0.96396 -0.26604 0
vn 0.96396 0.26604 0
vn 0.97815 -0.20791 0
vn 0.97815 0.20791 0
vn 0.98883 -0.14904 0
vn 0.98883 0.14904 0
vn 0.99597 -0.08964 0
vn 0.99597 0.08964 0
vn 0.99955 -0.02992 0
vn 0.99955 0.02992 0
usemtl mat0
f 1//1 2//1 3//2
f 1//1 4//3 2//1
f 3//2 2//1 5//2
f 6//4 5//4 2//4
f 6//4 2//4 4//4
f 3//5 7//5 1//5
f 8//3 4//3 1//1
f 1//5 7//5 8//5
f 3//2 5//2 9//6
f 9//6 5//2 10//6
f 5//4 11//4 10//4
f 11//4 5//4 6//4
f 9//5 12//5 3//5
f 3//5 12//5 7//5
f 8//3 13//7 4//3
f 13//4 14//4 4//4
f 4//4 15//4 6//4
f 4//4 14//4 15//4
f 16//7 13//7 8//3
f 8//5 17//5 16//5
f 8//5 7//5 18//5
f 18//5 17//5 8//5
f 9//6 10//6 19//8
f 19//8 10//6 20//8
f 21//4 20//4 10//4
f 10//4 11//4 21//4
f 19//5 22//5 9//5
f 9//5 22//5 12//5
f 16//7 23//9 13//7
f 23//4 24//4 13//4
f 13//4 24//4 14//4
f 25//9 23//9 16//7
f 16//5 26//5 25//5
f 16//5 17//5 26//5
f 19//8 20//8 27//10
f 27//10 20//8 28//10
f 21//4 28//4 20//4
f 27//5 22//5 19//5
f 25//9 29//11 23//9
f 29//4 24//4 23//4
f 30//11 29//11 25//9
f 25//5 26//5 30//5
f 27//10 28//10 31//12
f 31//12 28//10 32//12
f 33//4 32//4 28//4
f 33//4 28//4 21//4
f 31//5 34//5 27//5
f 27//5 34//5 22//5
f 30//11 35//13 29//11
f 35//4 36//4 29//4
f 29//4 36//4 24//4
f 37//13 35//13 30//11
f 30//5 38//5 37//5
f 30//5 26//5 38//5
f 31//12 32//12 39//14
f 39//14 32//12 40//14
f 41//4 40//4 32//4
f 41//4 32//4 33//4
f 39//5 42//5 31//5
f 31//5 42//5 34//5
f 37//13 43//15 35//13
f 43//4 44//4 35//4
f 35//4 44//4 36//4
f 45//15 43//15 37//13
f 46//5 45//5 37//5
f 37//5 38//5 46//5
f 39//14 40//14 47//16
f 47//16 40//14 48//16
f 49//4 48//4 40//4
f 49//4 40//4 41//4
f 47//5 50//5 39//5
f 39//5 50//5 42//5
f 45//15 51//17 43//15
f 51//4 44//4 43//4
f 52//17 51//17 45//15
f 46//5 52//5 45//5
f 47//16 48//16 53//18
f 53//18 48//16 54//18
f 55//4 54//4 48//4
f 55//4 48//4 49//4
f 53//5 56//5 47//5
f 47//5 56//5 50//5
f 52//17 57//19 51//17
f 57//4 58//4 51//4
f 51//4 58//4 44//4
f 59//19 57//19 52//17
f 60//5 59//5 52//5
f 60//5 52//5 46//5
f 53//18 54//18 61//20
f 61//20 54//18 62//20
f 63//4 62//4 54//4
f 63//4 54//4 55//4
f 61//5 64//5 53//5
f 53//5 64//5 56//5
f 59//19 65//21 57//19
f 65//4 66//4 57//4
f 57//4 66//4 58//4
f 67//21 65//21 59//19
f 68//5 67//5 59//5
f 68//5 59//5 60//5
f 61//20 62//20 69//22
f 69//22 62//20 70//22
f 71//4 70//4 62//4
f 71//4 62//4 72//4
f 72//4 62//4 63//4
f 73//5 61//5 69//5
f 74//5 61//5 73//5
f 74//5 64//5 61//5
f 67//21 75//23 65//21
f 75//4 76//4 65//4
f 65//4 76//4 66//4
f 77//23 75//23 67//21
f 78//5 77//5 67//5
f 78//5 67//5 68//5
f 69//22 70//22 79//24
f 79//24 70//22 80//24
f 70//4 81//4 80//4
f 81//4 70//4 71//4
f 82//5 69//5 79//5
f 73//5 69//5 82//5
f 77//23 83//25 75//23
f 84//4 75//4 83//4
f 76//4 75//4 84//4
f 85//25 83//25 77//23
f 86//5 85//5 77//5
f 86//5 77//5 78//5
f 79//24 80//24 87//26
f 87//26 80//24 88//26
f 80//4 89//4 88//4
f 80//4 81//4 90//4
f 80//4 90//4 89//4
f 91//5 79//5 87//5
f 82//5 79//5 92//5
f 92//5 79//5 91//5
f 85//25 93//27 83//25
f 94//4 83//4 93//4
f 84//4 83//4 95//4
f 95//4 83//4 96//4
f 96//4 83//4 97//4
f 97//4 83//4 98//4
f 98//4 83//4 99//4
f 99//4 83//4 100//4
f 100//4 83//4 101//4
f 101//4 83//4 94//4
f 102//27 93//27 85//25
f 85//5 103//5 102//5
f 104//5 85//5 86//5
f 104//5 105//5 85//5
f 85//5 105//5 106//5
f 85//5 106//5 107//5
f 107//5 108//5 85//5
f 85//5 108//5 109//5
f 85//5 109//5 110//5
f 110//5 103//5 85//5
f 87//26 88//26 111//28
f 111//28 88//26 112//28
f 88//4 113//4 112//4
f 88//4 89//4 113//4
f 114//5 87//5 111//5
f 91//5 87//5 114//5
f 102//27 115//29 93//27
f 94//4 93//4 115//4
f 116//29 115//29 102//27
f 102//5 103//5 116//5
f 111//28 112//28 117//30
f 117//30 112//28 118//30
f 112//4 119//4 118//4
f 112//4 113//4 120//4
f 112//4 120//4 119//4
f 121//5 111//5 117//5
f 114//5 111//5 122//5
f 122//5 111//5 121//5
f 116//29 123//31 115//29
f 115//4 123//4 94//4
f 124//31 123//31 116//29
f 116//5 103//5 124//5
f 73//32 81//33 71//32
f 73//32 71//32 74//34
f 74//34 71//32 72//34
f 82//33 81//33 73//32
f 82//33 90//35 81//33
f 92//35 90//35 82//33
f 74//34 72//34 64//36
f 64//36 72//34 63//36
f 117//30 118//30 125//37
f 125//37 118//30 126//37
f 118//4 127//4 126//4
f 118//4 119//4 128//4
f 118//4 128//4 127//4
f 129//5 117//5 125//5
f 121//5 117//5 130//5
f 130//5 117//5 129//5
f 124//31 131//38 123//31
f 94//4 123//4 131//4
f 132//38 131//38 124//31
f 124//5 103//5 132//5
f 92//35 89//39 90//35
f 91//39 89//39 92//35
f 64//36 63//36 56//40
f 56//40 63//36 55//40
f 91//39 113//41 89//39
f 114//41 113//41 91//39
f 56//40 55//40 50//42
f 50//42 55//40 49//42
f 114//41 120//43 113//41
f 122//43 120//43 114//41
f 50//42 49//42 42//44
f 42//44 49//42 41//44
f 122//43 119//45 120//43
f 121//45 119//45 122//43
f 42//44 41//44 34//46
f 34//46 41//44 33//46
f 125//37 126//37 133//47
f 133//47 126//37 134//47
f 126//4 135//4 134//4
f 126//4 127//4 135//4
f 136//5 125//5 133//5
f 129//5 125//5 136//5
f 132//38 137//48 131//38
f 94//4 131//4 137//4
f 138//48 137//48 132//38
f 132//5 103//5 138//5
f 121//45 128//49 119//45
f 130//49 128//49 121//45
f 34//46 33//46 22//50
f 22//50 33//46 21//50
f 86//51 76//52 84//51
f 86//51 84//51 104//53
f 104//53 84//51 95//53
f 78//52 76//52 86//51
f 130//49 127//54 128//49
f 129//54 127//54 130//49
f 22//50 21//50 12//55
f 12//55 21//50 11//55
f 78//52 66//56 76//52
f 68//56 66//56 78//52
f 104//53 95//53 105//57
f 105//57 95//53 96//57
f 68//56 58//58 66//56
f 60//58 58//58 68//56
f 105//57 96//57 106//59
f 106//59 96//57 97//59
f 60//58 44//60 58//58
f 46//60 44//60 60//58
f 106//59 97//59 107//61
f 107//61 97//59 98//61
f 133//47 134//47 139//62
f 134//4 135//4 140//4
f 139//62 134//47 141//62
f 134//4 142//4 141//4
f 134//4 140//4 142//4
f 136//5 133//5 143//5
f 144//5 133//5 139//5
f 143//5 133//5 144//5
f 138//48 145//63 137//48
f 137//4 145//4 94//4
f 146//63 145//63 138//48
f 138//5 103//5 146//5
f 129//54 135//64 127//54
f 136//64 135//64 129//54
f 12//55 11//55 7//65
f 7//65 11//55 6//65
f 46//60 36//66 44//60
f 38//66 36//66 46//60
f 107//61 98//61 108//67
f 108//67 98//61 99//67
f 38//66 24//68 36//66
f 26//68 24//68 38//66
f 108//67 99//67 109//69
f 109//69 99//67 100//69
f 136//64 140//70 135//64
f 143//70 140//70 136//64
f 7//65 6//65 18//71
f 18//71 6//65 15//71
f 26//68 14//72 24//68
f 17//72 14//72 26//68
f 109//69 100//69 110//73
f 110//73 100//69 101//73
f 139//62 141//62 147//74
f 141//4 142//4 148//4
f 141//4 148//4 149//4
f 147//74 141//62 149//74
f 144//5 139//5 150//5
f 150//5 139//5 147//5
f 146//63 151//75 145//63
f 145//4 152//4 94//4
f 145//4 153//4 152//4
f 151//4 153//4 145//4
f 146//5 103//5 154//5
f 146//5 154//5 155//5
f 156//75 151//75 146//63
f 146//5 155//5 156//5
f 143//70 142//76 140//70
f 144//76 142//76 143//70
f 18//71 15//71 157//77
f 14//4 158//4 15//4
f 157//77 15//71 159//77
f 15//4 158//4 159//4
f 18//5 160//5 17//5
f 157//5 160//5 18//5
f 17//72 158//78 14//72
f 160//78 158//78 17//72
f 110//73 101//73 103//79
f 103//79 101//73 94//79
f 144//76 148//80 142//76
f 150//80 148//80 144//76
f 157//77 159//77 161//81
f 159//4 158//4 162//4
f 161//81 159//77 162//81
f 161//5 160//5 157//5
f 160//78 163//82 158//78
f 162//4 158//4 163//4
f 164//82 163//82 160//78
f 164//5 160//5 161//5
f 103//79 94//79 154//83
f 154//83 94//79 152//83
f 164//82 165//84 163//82
f 162//4 163//4 165//4
f 161//5 166//5 164//5
f 166//84 165//84 164//82
f 154//83 152//83 155//85
f 155//85 152//83 153//85
f 150//80 167//86 148//80
f 149//4 148//4 167//4
f 150//5 147//5 168//5
f 168//86 167//86 150//80
f 161//81 162//81 169//87
f 165//4 170//4 162//4
f 169//87 162//81 171//87
f 172//4 171//4 162//4
f 162//4 170//4 173//4
f 162//4 173//4 174//4
f 174//4 175//4 162//4
f 162//4 175//4 176//4
f 162//4 176//4 177//4
f 177//4 172//4 162//4
f 161//5 178//5 166//5
f 179//5 161//5 169//5
f 180//5 178//5 161//5
f 181//5 180//5 161//5
f 181//5 161//5 182//5
f 182//5 161//5 183//5
f 183//5 161//5 184//5
f 184//5 161//5 179//5
f 147//74 149//74 185//88
f 149//4 167//4 186//4
f 149//4 186//4 187//4
f 185//88 149//74 187//88
f 168//5 147//5 188//5
f 188//5 147//5 185//5
f 156//75 189//89 151//75
f 151//4 190//4 153//4
f 189//4 190//4 151//4
f 156//5 155//5 191//5
f 156//5 191//5 192//5
f 192//89 189//89 156//75
f 166//84 170//90 165//84
f 178//90 170//90 166//84
f 155//85 153//85 191//91
f 191//91 153//85 190//91
f 168//86 186//92 167//86
f 188//92 186//92 168//86
f 169//87 171//87 193//93
f 193//93 171//87 194//93
f 172//4 194//4 171//4
f 179//5 169//5 193//5
f 178//90 173//94 170//90
f 180//94 173//94 178//90
f 191//91 190//91 195//95
f 195//95 190//91 196//95
f 197//4 196//4 190//4
f 197//4 190//4 189//4
f 198//5 191//5 195//5
f 192//5 191//5 198//5
f 180//94 199//96 173//94
f 200//4 173//4 199//4
f 174//4 173//4 200//4
f 201//96 199//96 180//94
f 202//5 201//5 180//5
f 202//5 180//5 181//5
f 195//95 196//95 203//97
f 203//97 196//95 204//97
f 205//4 204//4 196//4
f 205//4 196//4 197//4
f 206//5 195//5 203//5
f 198//5 195//5 206//5
f 188//92 207//98 186//92
f 187//4 186//4 207//4
f 188//5 185//5 208//5
f 208//98 207//98 188//92
f 193//93 194//93 209//99
f 209//99 194//93 210//99
f 210//4 194//4 172//4
f 193//5 209//5 179//5
f 201//96 211//100 199//96
f 212//4 199//4 211//4
f 200//4 199//4 212//4
f 213//100 211//100 201//96
f 214//5 213//5 201//5
f 214//5 201//5 202//5
f 203//97 204//97 215//101
f 215//101 204//97 216//101
f 217//4 216//4 204//4
f 218//4 204//4 205//4
f 217//4 204//4 218//4
f 219//5 203//5 215//5
f 206//5 203//5 220//5
f 220//5 203//5 219//5
f 185//88 187//88 221//102
f 187//4 207//4 222//4
f 221//102 187//88 222//102
f 208//5 185//5 221//5
f 192//89 197//103 189//89
f 198//103 197//103 192//89
f 213//100 223//104 211//100
f 224//4 211//4 223//4
f 212//4 211//4 224//4
f 225//104 223//104 213//100
f 226//5 225//5 213//5
f 226//5 213//5 214//5
f 215//101 216//101 227//105
f 227//105 216//101 228//105
f 229//4 228//4 216//4
f 230//4 216//4 217//4
f 229//4 216//4 230//4
f 231//5 215//5 227//5
f 219//5 215//5 232//5
f 232//5 215//5 231//5
f 225//104 233//106 223//104
f 234//4 223//4 233//4
f 224//4 223//4 234//4
f 235//106 233//106 225//104
f 236//5 235//5 225//5
f 236//5 225//5 226//5
f 227//105 228//105 235//106
f 235//106 228//105 233//106
f 237//4 233//4 228//4
f 237//4 228//4 229//4
f 238//5 227//5 235//5
f 231//5 227//5 238//5
f 208//98 239//107 207//98
f 222//4 207//4 239//4
f 240//107 239//107 208//98
f 208//5 221//5 240//5
f 209//99 210//99 241//108
f 241//108 210//99 242//108
f 172//4 242//4 210//4
f 179//5 209//5 241//5
f 234//4 233//4 243//4
f 243//4 233//4 237//4
f 244//5 235//5 236//5
f 238//5 235//5 244//5
f 240//107 245//109 239//107
f 246//4 239//4 245//4
f 222//4 239//4 246//4
f 247//109 245//109 240//107
f 240//5 248//5 247//5
f 240//5 221//5 248//5
f 241//108 242//108 249//110
f 249//110 242//108 250//110
f 172//4 250//4 242//4
f 179//5 241//5 249//5
f 247//109 251//111 245//109
f 252//4 245//4 251//4
f 246//4 245//4 252//4
f 253//111 251//111 247//109
f 247//5 254//5 253//5
f 247//5 248//5 254//5
f 249//110 250//110 255//112
f 255//112 250//110 256//112
f 257//4 256//4 250//4
f 257//4 250//4 172//4
f 258//5 249//5 255//5
f 179//5 249//5 258//5
f 221//102 222//102 248//113
f 248//113 222//102 246//113
f 198//103 205//114 197//103
f 206//114 205//114 198//103
f 253//111 259//115 251//111
f 260//4 251//4 259//4
f 252//4 251//4 261//4
f 261//4 251//4 260//4
f 262//115 259//115 253//111
f 263//5 262//5 253//5
f 253//5 254//5 264//5
f 253//5 264//5 263//5
f 255//112 256//112 265//116
f 265//116 256//112 266//116
f 267//4 266//4 256//4
f 267//4 256//4 257//4
f 268//5 255//5 265//5
f 258//5 255//5 268//5
f 262//115 269//117 259//115
f 270//4 259//4 269//4
f 260//4 259//4 270//4
f 271//117 269//117 262//115
f 262//5 272//5 271//5
f 272//5 262//5 263//5
f 265//116 266//116 273//118
f 273//118 266//116 274//118
f 275//4 274//4 266//4
f 275//4 266//4 267//4
f 276//5 265//5 273//5
f 268//5 265//5 276//5
f 271//117 277//119 269//117
f 278//4 269//4 277//4
f 270//4 269//4 279//4
f 279//4 269//4 278//4
f 280//119 277//119 271//117
f 271//5 281//5 280//5
f 271//5 272//5 282//5
f 271//5 282//5 281//5
f 273//118 274//118 283//120
f 283//120 274//118 284//120
f 285//4 284//4 274//4
f 285//4 274//4 275//4
f 286//5 273//5 283//5
f 276//5 273//5 286//5
f 280//119 287//1 277//119
f 288//4 277//4 287//4
f 278//4 277//4 289//4
f 289//4 277//4 288//4
f 290//1 287//1 280//119
f 291//5 290//5 280//5
f 280//5 281//5 292//5
f 280//5 292//5 291//5
f 283//120 284//120 290//1
f 290//1 284//120 287//1
f 288//4 287//4 284//4
f 288//4 284//4 285//4
f 291//5 283//5 290//5
f 286//5 283//5 291//5
f 248//113 246//113 254//121
f 254//121 246//113 252//121
f 206//114 218//122 205//114
f 220//122 218//122 206//114
f 254//121 252//121 264//123
f 264//123 252//121 261//123
f 220//122 217//124 218//122
f 219//124 217//124 220//122
f 264//123 261//123 263//125
f 263//125 261//123 260//125
f 219//124 230//126 217//124
f 232//126 230//126 219//124
f 263//125 260//125 272//127
f 272//127 260//125 270//127
f 232//126 229//128 230//126
f 231//128 229//128 232//126
f 272//127 270//127 282//129
f 282//129 270//127 279//129
f 231//128 293//130 229//128
f 293//4 294//4 229//4
f 229//4 294//4 237//4
f 295//130 293//130 231//128
f 231//5 296//5 295//5
f 238//5 296//5 231//5
f 282//129 279//129 281//131
f 281//131 279//129 278//131
f 295//130 297//132 293//130
f 297//4 294//4 293//4
f 298//132 297//132 295//130
f 295//5 296//5 298//5
f 281//131 278//131 299//133
f 299//133 278//131 300//133
f 278//4 289//4 300//4
f 299//5 292//5 281//5
f 298//132 301//134 297//132
f 301//4 302//4 297//4
f 297//4 302//4 294//4
f 303//134 301//134 298//132
f 298//5 304//5 303//5
f 298//5 296//5 304//5
f 299//133 300//133 305//135
f 305//135 300//133 306//135
f 300//4 307//4 306//4
f 300//4 289//4 307//4
f 305//5 308//5 299//5
f 299//5 308//5 292//5
f 303//134 309//136 301//134
f 309//4 302//4 301//4
f 310//136 309//136 303//134
f 303//5 304//5 310//5
f 305//135 306//135 311//137
f 311//137 306//135 312//137
f 306//4 307//4 312//4
f 311//5 308//5 305//5
f 310//136 313//138 309//136
f 313//4 314//4 309//4
f 309//4 314//4 302//4
f 315//138 313//138 310//136
f 310//5 316//5 315//5
f 310//5 304//5 316//5
f 311//137 312//137 317//139
f 317//139 312//137 318//139
f 312//4 319//4 318//4
f 312//4 307//4 319//4
f 317//5 320//5 311//5
f 311//5 320//5 308//5
f 315//138 321//140 313//138
f 321//4 322//4 313//4
f 313//4 322//4 314//4
f 323//140 321//140 315//138
f 315//5 324//5 323//5
f 315//5 316//5 324//5
f 317//139 318//139 325//141
f 325//141 318//139 326//141
f 318//4 319//4 326//4
f 325//5 320//5 317//5
f 323//140 327//142 321//140
f 327//4 328//4 321//4
f 321//4 328//4 322//4
f 329//142 327//142 323//140
f 323//5 330//5 329//5
f 323//5 324//5 330//5
f 244//32 234//143 243//32
f 244//32 243//32 238//144
f 238//144 243//32 237//144
f 236//143 234//143 244//32
f 236//143 224//145 234//143
f 226//145 224//145 236//143
f 238//144 237//144 296//146
f 296//146 237//144 294//146
f 226//145 212//147 224//145
f 214//147 212//147 226//145
f 296//146 294//146 304//148
f 304//148 294//146 302//148
f 325//141 326//141 331//149
f 331//149 326//141 332//149
f 326//4 333//4 332//4
f 326//4 319//4 333//4
f 331//5 334//5 325//5
f 325//5 334//5 320//5
f 329//142 335//150 327//142
f 327//4 336//4 328//4
f 335//4 336//4 327//4
f 329//5 330//5 337//5
f 338//150 335//150 329//142
f 329//5 337//5 338//5
f 214//147 200//151 212//147
f 202//151 200//151 214//147
f 304//148 302//148 316//152
f 316//152 302//148 314//152
f 202//151 174//153 200//151
f 181//153 174//153 202//151
f 316//152 314//152 324//154
f 324//154 314//152 322//154
f 181//153 175//155 174//153
f 182//155 175//155 181//153
f 324//154 322//154 330//156
f 330//156 322//154 328//156
f 182//155 176//157 175//155
f 183//157 176//157 182//155
f 330//156 328//156 337//158
f 337//158 328//156 336//158
f 331//149 332//149 339//159
f 332//4 333//4 340//4
f 339//159 332//149 341//159
f 332//4 340//4 341//4
f 331//5 342//5 334//5
f 339//5 342//5 331//5
f 338//150 343//160 335//150
f 335//4 344//4 336//4
f 343//4 344//4 335//4
f 338//5 337//5 345//5
f 338//5 345//5 346//5
f 346//160 343//160 338//150
f 291//161 289//162 288//161
f 291//161 288//161 286//163
f 286//163 288//161 285//163
f 292//162 289//162 291//161
f 183//157 177//164 176//157
f 184//164 177//164 183//157
f 337//158 336//158 345//165
f 345//165 336//158 344//165
f 292//162 307//166 289//162
f 308//166 307//166 292//162
f 286//163 285//163 276//167
f 276//167 285//163 275//167
f 308//166 319//168 307//166
f 320//168 319//168 308//166
f 276//167 275//167 268//169
f 268//169 275//167 267//169
f 320//168 333//170 319//168
f 334//170 333//170 320//168
f 268//169 267//169 258//61
f 258//61 267//169 257//61
f 184//164 172//171 177//164
f 179//171 172//171 184//164
f 345//165 344//165 347//172
f 343//4 348//4 344//4
f 347//172 344//165 348//172
f 346//5 345//5 347//5
f 334//170 340//173 333//170
f 342//173 340//173 334//170
f 258//61 257//61 349//174
f 349//174 257//61 350//174
f 350//4 257//4 172//4
f 258//5 349//5 179//5
f 339//159 341//159 351//175
f 341//4 340//4 352//4
f 341//4 352//4 353//4
f 351//175 341//159 353//175
f 339//5 354//5 342//5
f 351//5 354//5 339//5
f 346//160 355//176 343//160
f 355//4 348//4 343//4
f 346//5 347//5 356//5
f 356//176 355//176 346//160
f 342//173 352//177 340//173
f 354//177 352//177 342//173
f 349//174 350//174 357//178
f 172//4 358//4 350//4
f 357//178 350//174 358//178
f 179//5 349//5 357//5
f 179//171 359//179 172//171
f 172//4 360//4 358//4
f 172//4 359//4 361//4
f 361//4 360//4 172//4
f 179//5 357//5 362//5
f 363//179 359//179 179//171
f 364//5 363//5 179//5
f 362//5 365//5 179//5
f 179//5 365//5 366//5
f 179//5 366//5 367//5
f 179//5 367//5 364//5
f 347//172 348//172 368//180
f 368//180 348//172 369//180
f 355//4 369//4 348//4
f 356//5 347//5 368//5
f 354//177 370//181 352//177
f 353//4 352//4 370//4
f 371//181 370//181 354//177
f 351//5 371//5 354//5
f 357//178 358//178 362//182
f 362//182 358//178 360//182
f 363//179 372//76 359//179
f 361//4 359//4 372//4
f 373//76 372//76 363//179
f 364//5 373//5 363//5
f 368//180 369//180 374//77
f 374//77 369//180 375//77
f 376//4 375//4 369//4
f 376//4 369//4 355//4
f 377//5 368//5 374//5
f 356//5 368//5 377//5
f 371//181 378//183 370//181
f 353//4 370//4 379//4
f 379//4 370//4 378//4
f 380//5 371//5 351//5
f 381//183 378//183 371//181
f 380//5 381//5 371//5
f 362//182 360//182 365//184
f 365//184 360//182 382//184
f 361//4 382//4 360//4
f 351//175 353//175 380//185
f 380//185 353//175 379//185
f 381//183 383//186 378//183
f 384//4 378//4 383//4
f 379//4 378//4 384//4
f 385//186 383//186 381//183
f 386//5 385//5 381//5
f 386//5 381//5 380//5
f 365//184 382//184 366//187
f 366//187 382//184 387//187
f 361//4 387//4 382//4
f 373//76 388//188 372//76
f 389//4 372//4 388//4
f 361//4 372//4 390//4
f 390//4 372//4 389//4
f 391//188 388//188 373//76
f 392//5 391//5 373//5
f 393//5 373//5 364//5
f 392//5 373//5 393//5
f 374//77 375//77 394//189
f 394//189 375//77 395//189
f 396//4 395//4 375//4
f 397//4 375//4 376//4
f 398//4 375//4 397//4
f 399//4 375//4 398//4
f 396//4 375//4 399//4
f 400//5 374//5 394//5
f 377//5 374//5 401//5
f 401//5 374//5 402//5
f 402//5 374//5 403//5
f 403//5 374//5 400//5
f 356//176 376//190 355//176
f 377//190 376//190 356//176
f 385//186 404//191 383//186
f 405//4 383//4 404//4
f 384//4 383//4 405//4
f 406//191 404//191 385//186
f 407//5 406//5 385//5
f 407//5 385//5 386//5
f 366//187 387//187 367//192
f 367//192 387//187 408//192
f 408//4 387//4 361//4
f 391//188 409//193 388//188
f 410//4 388//4 409//4
f 389//4 388//4 411//4
f 411//4 388//4 410//4
f 412//193 409//193 391//188
f 413//5 412//5 391//5
f 414//5 391//5 392//5
f 413//5 391//5 414//5
f 394//189 395//189 415//194
f 415//194 395//189 416//194
f 416//4 395//4 396//4
f 400//5 394//5 415//5
f 406//191 417//195 404//191
f 405//4 404//4 417//4
f 418//195 417//195 406//191
f 407//5 418//5 406//5
f 367//192 408//192 419//196
f 419//196 408//192 420//196
f 361//4 420//4 408//4
f 364//5 367//5 419//5
f 412//193 421//197 409//193
f 422//4 409//4 421//4
f 410//4 409//4 423//4
f 423//4 409//4 422//4
f 424//197 421//197 412//193
f 425//5 424//5 412//5
f 426//5 412//5 413//5
f 425//5 412//5 426//5
f 415//194 416//194 427//198
f 427//198 416//194 428//198
f 396//4 428//4 416//4
f 415//5 427//5 400//5
f 380//185 379//185 386//199
f 386//199 379//185 384//199
f 377//190 397//200 376//190
f 401//200 397//200 377//190
f 418//195 429//94 417//195
f 430//4 417//4 429//4
f 405//4 417//4 430//4
f 431//94 429//94 418//195
f 432//5 431//5 418//5
f 432//5 418//5 407//5
f 419//196 420//196 433//201
f 433//201 420//196 434//201
f 361//4 434//4 420//4
f 364//5 419//5 433//5
f 431//94 435//202 429//94
f 436//4 429//4 435//4
f 430//4 429//4 436//4
f 437//202 435//202 431//94
f 438//5 437//5 431//5
f 438//5 431//5 432//5
f 433//201 434//201 439//203
f 439//203 434//201 440//203
f 441//4 440//4 434//4
f 441//4 434//4 361//4
f 442//5 433//5 439//5
f 364//5 433//5 442//5
f 424//197 443//204 421//197
f 444//4 421//4 443//4
f 445//4 421//4 444//4
f 422//4 421//4 445//4
f 446//204 443//204 424//197
f 447//5 446//5 424//5
f 447//5 424//5 448//5
f 448//5 424//5 425//5
f 427//198 428//198 449//205
f 449//205 428//198 450//205
f 396//4 450//4 428//4
f 400//5 427//5 449//5
f 437//202 451//206 435//202
f 436//4 435//4 451//4
f 452//206 451//206 437//202
f 438//5 452//5 437//5
f 439//203 440//203 453//207
f 453//207 440//203 454//207
f 455//4 454//4 440//4
f 455//4 440//4 441//4
f 456//5 439//5 453//5
f 442//5 439//5 456//5
f 452//206 457//208 451//206
f 458//4 451//4 457//4
f 436//4 451//4 458//4
f 459//208 457//208 452//206
f 460//5 459//5 452//5
f 460//5 452//5 438//5
f 453//207 454//207 461//209
f 461//209 454//207 462//209
f 463//4 462//4 454//4
f 463//4 454//4 455//4
f 464//5 453//5 461//5
f 456//5 453//5 464//5
f 459//208 465//210 457//208
f 466//4 457//4 465//4
f 458//4 457//4 466//4
f 467//210 465//210 459//208
f 468//5 467//5 459//5
f 468//5 459//5 460//5
f 461//209 462//209 467//210
f 467//210 462//209 465//210
f 469//4 465//4 462//4
f 469//4 462//4 463//4
f 470//5 461//5 467//5
f 464//5 461//5 470//5
f 446//204 471//211 443//204
f 472//4 443//4 471//4
f 444//4 443//4 472//4
f 473//211 471//211 446//204
f 474//5 473//5 446//5
f 474//5 446//5 447//5
f 449//205 450//205 475//212
f 475//212 450//205 476//212
f 476//4 450//4 396//4
f 400//5 449//5 475//5
f 466//4 465//4 469//4
f 470//5 467//5 468//5
f 386//199 384//199 407//213
f 407//213 384//199 405//213
f 401//200 398//214 397//200
f 402//214 398//214 401//200
f 473//211 477//215 471//211
f 478//4 471//4 477//4
f 472//4 471//4 478//4
f 479//215 477//215 473//211
f 473//5 480//5 479//5
f 480//5 473//5 474//5
f 475//212 476//212 481//216
f 481//216 476//212 482//216
f 396//4 482//4 476//4
f 475//5 481//5 400//5
f 479//215 483//217 477//215
f 484//4 477//4 483//4
f 485//4 477//4 484//4
f 478//4 477//4 485//4
f 486//217 483//217 479//215
f 487//5 486//5 479//5
f 479//5 488//5 487//5
f 479//5 480//5 488//5
f 481//216 482//216 489//218
f 489//218 482//216 490//218
f 396//4 490//4 482//4
f 400//5 481//5 489//5
f 486//217 491//219 483//217
f 484//4 483//4 491//4
f 492//219 491//219 486//217
f 487//5 492//5 486//5
f 489//218 490//218 493//220
f 493//220 490//218 494//220
f 495//4 494//4 490//4
f 495//4 490//4 396//4
f 496//5 489//5 493//5
f 400//5 489//5 496//5
f 407//213 405//213 432//221
f 432//221 405//213 430//221
f 402//214 399//222 398//214
f 403//222 399//222 402//214
f 492//219 497//223 491//219
f 498//4 491//4 497//4
f 484//4 491//4 498//4
f 499//223 497//223 492//219
f 500//5 499//5 492//5
f 500//5 492//5 487//5
f 493//220 494//220 501//224
f 501//224 494//220 502//224
f 495//4 502//4 494//4
f 496//5 493//5 501//5
f 499//223 503//225 497//223
f 504//4 497//4 503//4
f 498//4 497//4 504//4
f 505//225 503//225 499//223
f 506//5 505//5 499//5
f 506//5 499//5 500//5
f 501//224 502//224 507//226
f 507//226 502//224 508//226
f 509//4 508//4 502//4
f 509//4 502//4 495//4
f 510//5 501//5 507//5
f 496//5 501//5 510//5
f 505//225 511//1 503//225
f 512//4 503//4 511//4
f 504//4 503//4 512//4
f 513//1 511//1 505//225
f 514//5 513//5 505//5
f 514//5 505//5 506//5
f 507//226 508//226 513//1
f 513//1 508//226 511//1
f 509//4 511//4 508//4
f 510//5 507//5 513//5
f 512//4 511//4 509//4
f 510//5 513//5 514//5
f 432//221 430//221 438//227
f 438//227 430//221 436//227
f 403//222 396//228 399//222
f 400//228 396//228 403//222
f 438//227 436//227 460//229
f 460//229 436//227 458//229
f 400//228 495//230 396//228
f 496//230 495//230 400//228
f 460//229 458//229 468//231
f 468//231 458//229 466//231
f 496//230 509//232 495//230
f 510//232 509//232 496//230
f 468//231 466//231 470//233
f 470//233 466//231 469//233
f 510//232 512//234 509//232
f 514//234 512//234 510//232
f 470//233 469//233 464//235
f 464//235 469//233 463//235
f 514//234 504//236 512//234
f 506//236 504//236 514//234
f 464//235 463//235 456//237
f 456//237 463//235 455//237
f 506//236 498//238 504//236
f 500//238 498//238 506//236
f 456//237 455//237 442//239
f 442//239 455//237 441//239
f 500//238 484//240 498//238
f 487//240 484//240 500//238
f 442//239 441//239 364//241
f 364//241 441//239 361//241
f 487//240 485//242 484//240
f 488//242 485//242 487//240
f 364//241 361//241 393//243
f 393//243 361//241 390//243
f 488//242 478//244 485//242
f 480//244 478//244 488//242
f 393//243 390//243 392//245
f 392//245 390//243 389//245
f 480//244 472//246 478//244
f 474//246 472//246 480//244
f 392//245 389//245 414//247
f 414//247 389//245 411//247
f 474//246 444//248 472//246
f 447//248 444//248 474//246
f 414//247 411//247 413//249
f 413//249 411//247 410//249
f 447//248 445//250 444//248
f 448//250 445//250 447//248
f 413//249 410//249 426//251
f 426//251 410//249 423//251
f 448//250 422//252 445//250
f 425//252 422//252 448//250
f 426//251 423//251 425//252
f 425//252 423//251 422//252
# Vertices: 514, normals: 252, texture coordinates: 0, faces: 1040

o obj2
v -0.012 -0.012 0
v -0.012 0.012 -0
v -0.012 -0.012 -0.025
v 0.012 -0.012 -0.025
v -0.012 0.012 -0.025
v 0.012 0.012 -0.025
v 0.012 -0.012 0
v 0.012 0.012 -0
vn -1 0 0
vn 0 -1 0
vn 0 0 -1
vn 0 0 1
vn 0 1 0
vn 1 0 0
usemtl mat1
f 515//253 516//253 517//253
f 518//254 515//254 517//254
f 517//253 516//253 519//253
f 520//255 517//255 519//255
f 518//255 517//255 520//255
f 521//256 516//256 515//256
f 521//254 515//254 518//254
f 516//257 522//257 519//257
f 519//257 522//257 520//257
f 522//256 516//256 521//256
f 520//258 521//258 518//258
f 522//258 521//258 520//258
# Vertices: 8, normals: 6, texture coordinates: 0, faces: 12

o obj3
v -0.013 -0.013 0.01
v -0.013 0.013 0.01
v -0.013 -0.013 0
v 0.013 -0.013 0
v -0.013 0.013 -0
v 0.013 0.013 -0
v 0.013 -0.013 0.01
v 0.013 0.013 0.01
vn -1 0 0
vn 0 -1 0
vn 0 -0 -1
vn 0 0 1
vn 0 1 0
vn 1 0 0
usemtl mat2
f 523//259 524//259 525//259
f 526//260 523//260 525//260
f 525//259 524//259 527//259
f 528//261 525//261 527//261
f 526//261 525//261 528//261
f 523//262 529//262 524//262
f 529//260 523//260 526//260
f 524//263 530//263 527//263
f 527//263 530//263 528//263
f 524//262 529//262 530//262
f 528//264 529//264 526//264
f 530//264 529//264 528//264
# Vertices: 8, normals: 6, texture coordinates: 0, faces: 12

