# File generated by ImageToStl.com - Free Image and 3D model conversion tools

mtllib random.mtl

o obj1
v 0.015 -0.015 -0.04
v -0.015 -0.015 -0.04
v 0.015 0.015 -0.04
v -0.015 0.015 -0.04
v 0.015 0.015 -0.03
v 0.015 -0.015 -0.03
v -0.015 -0.015 -0.03
v -0.015 0.015 -0.03
vn 0 0 -1
vn 1 0 0
vn -0 -1 -0
vn 0 0 1
vn -0 1 0
vn -1 0 0
usemtl mat1
f 1//1 2//1 3//1
f 3//1 2//1 4//1
f 5//2 6//2 3//2
f 3//2 6//2 1//2
f 6//3 7//3 1//3
f 1//3 7//3 2//3
f 5//4 8//4 6//4
f 6//4 8//4 7//4
f 8//5 5//5 4//5
f 4//5 5//5 3//5
f 7//6 8//6 2//6
f 2//6 8//6 4//6
# Vertices: 8, normals: 6, texture coordinates: 0, faces: 12

