# File generated by ImageToStl.com - Free Image and 3D model conversion tools

mtllib random.mtl

o obj1
v -0.01248 -0.015 -0.03
v -0.01248 -0.015 0
v -0.01248 -0.01248 -0.03
v -0.01248 -0.01248 0
v 0.01248 -0.015 0
v 0.01248 -0.01248 0
v 0.01248 -0.015 -0.03
v 0.01248 -0.01248 -0.03
vn -1 0 0
vn 0 0 1
vn 0 -1 0
vn 0 0 -1
vn 1 0 -0
vn -0 1 0
usemtl mat1
f 1//1 2//1 3//1
f 3//1 2//1 4//1
f 2//2 5//2 4//2
f 4//2 5//2 6//2
f 1//3 7//3 2//3
f 2//3 7//3 5//3
f 3//4 8//4 1//4
f 1//4 8//4 7//4
f 8//5 6//5 7//5
f 7//5 6//5 5//5
f 4//6 6//6 3//6
f 3//6 6//6 8//6
# Vertices: 8, normals: 6, texture coordinates: 0, faces: 12

