# File generated by ImageToStl.com - Free Image and 3D model conversion tools

mtllib body2.mtl

o obj1
v 0.013 -0.015 0
v 0.015 -0.015 0
v 0.013 0.015 0
v 0.015 0.015 0
v 0.013 0.015 -0.03
v 0.015 0.015 -0.03
v 0.013 -0.015 -0.03
v 0.015 -0.015 -0.03
vn 0 0 1
vn -0 1 0
vn -1 0 -0
vn -1 -0 0
vn 1 0 0
vn 0 0 -1
vn 0 -1 0
usemtl mat1
f 1//1 2//1 3//1
f 3//1 2//1 4//1
f 3//2 4//2 5//2
f 5//2 4//2 6//2
f 1//3 3//3 7//3
f 7//4 3//4 5//4
f 8//5 6//5 2//5
f 2//5 6//5 4//5
f 5//6 6//6 7//6
f 7//6 6//6 8//6
f 7//7 8//7 1//7
f 1//7 8//7 2//7
# Vertices: 8, normals: 7, texture coordinates: 0, faces: 12

