# File generated by ImageToStl.com - Free Image and 3D model conversion tools

mtllib random.mtl

o obj1
v -0.013 0.013 -0.03
v -0.013 0.013 0
v -0.013 0.015 -0.03
v -0.013 0.015 0
v 0.013 0.013 0
v 0.013 0.015 0
v 0.013 0.015 -0.03
v 0.013 0.013 -0.03
vn -1 0 0
vn -1 0 0
vn 0 0 1
vn 1 0 -0
vn 1 0 0
vn -0 1 0
vn 0 0 -1
vn -0 -1 -0
usemtl mat1
f 1//1 2//1 3//1
f 3//2 2//2 4//2
f 2//3 5//3 4//3
f 4//3 5//3 6//3
f 7//4 6//4 8//4
f 8//5 6//5 5//5
f 4//6 6//6 3//6
f 3//6 6//6 7//6
f 3//7 7//7 1//7
f 1//7 7//7 8//7
f 5//8 2//8 8//8
f 8//8 2//8 1//8
# Vertices: 8, normals: 8, texture coordinates: 0, faces: 12

