# File generated by ImageToStl.com - Free Image and 3D model conversion tools

mtllib random.mtl

o obj1
v -0.013 -0.013 0.01
v 0.013 -0.013 0.01
v -0.013 0.013 0.01
v 0.013 0.013 0.01
v 0.013 -0.013 0
v -0.013 -0.013 0
v 0.013 0.013 -0
v -0.013 0.013 -0
vn 0 0 1
vn -0 0 1
vn 0 -0 -1
vn -0 -0 -1
vn -0 -1 0
vn -1 0 -0
vn -1 0 -0
vn -0 1 -0
vn -0 1 0
vn 1 0 0
usemtl mat1
f 1//1 2//1 3//1
f 3//2 2//2 4//2
f 5//3 6//3 7//3
f 7//4 6//4 8//4
f 2//5 1//5 5//5
f 5//5 1//5 6//5
f 1//6 3//6 6//6
f 6//7 3//7 8//7
f 3//8 4//8 8//8
f 8//9 4//9 7//9
f 4//10 2//10 7//10
f 7//10 2//10 5//10
# Vertices: 8, normals: 10, texture coordinates: 0, faces: 12

