# File generated by ImageToStl.com - Free Image and 3D model conversion tools

mtllib random.mtl

o obj1
v -0.013 -0.013 0.01
v -0.013 0.013 0.01
v -0.013 -0.013 0
v 0.013 -0.013 0
v -0.013 0.013 -0
v 0.013 0.013 -0
v 0.013 -0.013 0.01
v 0.013 0.013 0.01
vn -1 0 0
vn 0 -1 0
vn 0 -0 -1
vn 0 0 1
vn 0 1 0
vn 1 0 0
usemtl mat0
f 1//1 2//1 3//1
f 4//2 1//2 3//2
f 3//1 2//1 5//1
f 6//3 3//3 5//3
f 4//3 3//3 6//3
f 1//4 7//4 2//4
f 7//2 1//2 4//2
f 2//5 8//5 5//5
f 5//5 8//5 6//5
f 2//4 7//4 8//4
f 6//6 7//6 4//6
f 8//6 7//6 6//6
# Vertices: 8, normals: 6, texture coordinates: 0, faces: 12

o obj2
v -0.035 0 0.02
v -0.035 0 0.01
v -0.03493736 -0.00209315 0.02
v -0.03493736 0.00209315 0.01
v -0.03493736 -0.00209315 0.01
v -0.0191904 -0.01174304 0.01
v -0.0191904 -0.01174304 0.02
v -0.03493736 0.00209315 0.02
v -0.03474964 -0.0041788 0.02
v -0.03474964 -0.0041788 0.01
v -0.01999249 -0.01204221 0.01
v -0.01999249 -0.01204221 0.02
v -0.03474964 0.0041788 0.01
v -0.01813404 0.01431245 0.01
v -0.01835389 -0.01156107 0.01
v -0.03474964 0.0041788 0.02
v -0.01813404 0.01431245 0.02
v -0.01835389 -0.01156107 0.02
v -0.03443754 -0.00624949 0.02
v -0.03443754 -0.00624949 0.01
v -0.02074385 -0.01245248 0.01
v -0.02074385 -0.01245248 0.02
v -0.03443754 0.00624949 0.01
v -0.01874372 0.01449739 0.01
v -0.03443754 0.00624949 0.02
v -0.01874372 0.01449739 0.02
v -0.03400215 -0.00829781 0.02
v -0.03400215 -0.00829781 0.01
v -0.03400215 0.00829781 0.01
v -0.03400215 0.00829781 0.02
v -0.03344505 -0.01031643 0.02
v -0.03344505 -0.01031643 0.01
v -0.02142916 -0.0129655 0.01
v -0.02142916 -0.0129655 0.02
v -0.03344505 0.01031643 0.01
v -0.0193056 0.01479772 0.01
v -0.03344505 0.01031643 0.02
v -0.0193056 0.01479772 0.02
v -0.03276822 -0.01229812 0.02
v -0.03276822 -0.01229812 0.01
v -0.0220345 -0.01357084 0.01
v -0.0220345 -0.01357084 0.02
v -0.03276822 0.01229812 0.01
v -0.0197981 0.0152019 0.01
v -0.03276822 0.01229812 0.02
v -0.0197981 0.0152019 0.02
v -0.03197409 -0.01423578 0.02
v -0.03197409 -0.01423578 0.01
v -0.02254752 -0.01425616 0.01
v -0.02254752 -0.01425616 0.02
v -0.03197409 0.01423578 0.01
v -0.03197409 0.01423578 0.02
v -0.0310655 -0.01612249 0.02
v -0.0310655 -0.01612249 0.01
v -0.02295779 -0.01500751 0.01
v -0.02295779 -0.01500751 0.02
v -0.0310655 0.01612249 0.01
v -0.02020228 0.0156944 0.01
v -0.0310655 0.01612249 0.02
v -0.02020228 0.0156944 0.02
v -0.03004571 -0.01795148 0.02
v -0.03004571 -0.01795148 0.01
v -0.02325696 -0.0158096 0.01
v -0.02325696 -0.0158096 0.02
v -0.03004571 0.01795148 0.01
v -0.02050261 0.01625628 0.01
v -0.03004571 0.01795148 0.02
v -0.02050261 0.01625628 0.02
v -0.02891836 -0.0197162 0.02
v -0.02891836 -0.0197162 0.01
v -0.0235 -0.0175 0.01
v -0.02343893 -0.01664611 0.01
v -0.0235 -0.0175 0.02
v -0.02343893 -0.01664611 0.02
v -0.02891836 0.0197162 0.01
v -0.02068755 0.01686596 0.01
v -0.02891836 0.0197162 0.02
v -0.02068755 0.01686596 0.02
v -0.02768749 -0.02141035 0.02
v -0.02768749 -0.02141035 0.01
v -0.02343893 -0.01835389 0.01
v -0.02343893 -0.01835389 0.02
v -0.02768749 0.02141035 0.01
v -0.02075 0.0175 0.01
v -0.02768749 0.02141035 0.02
v -0.02075 0.0175 0.02
v -0.0263575 -0.02302786 0.02
v -0.0263575 -0.02302786 0.01
v -0.02295779 -0.01999249 0.01
v -0.02325696 -0.0191904 0.01
v -0.02295779 -0.01999249 0.02
v -0.02325696 -0.0191904 0.02
v -0.0263575 0.02302786 0.01
v -0.0175 0.02075 0.01
v -0.02068755 0.01813404 0.01
v -0.02050261 0.01874372 0.01
v -0.02020228 0.0193056 0.01
v -0.0197981 0.0197981 0.01
v -0.0193056 0.02020228 0.01
v -0.01874372 0.02050261 0.01
v -0.01813404 0.02068755 0.01
v -0.0263575 0.02302786 0.02
v -0.0175 0.02075 0.02
v -0.02068755 0.01813404 0.02
v -0.02050261 0.01874372 0.02
v -0.02020228 0.0193056 0.02
v -0.0197981 0.0197981 0.02
v -0.0193056 0.02020228 0.02
v -0.01874372 0.02050261 0.02
v -0.01813404 0.02068755 0.02
v -0.02493316 -0.02456293 0.02
v -0.02493316 -0.02456293 0.01
v -0.02254752 -0.02074385 0.01
v -0.02254752 -0.02074385 0.02
v -0.02493316 0.02456293 0.01
v -0.02493316 0.02456293 0.02
v -0.02341957 -0.02601007 0.02
v -0.02341957 -0.02601007 0.01
v -0.02142916 -0.0220345 0.01
v -0.0220345 -0.02142916 0.01
v -0.02142916 -0.0220345 0.02
v -0.0220345 -0.02142916 0.02
v -0.02341957 0.02601007 0.01
v -0.02341957 0.02601007 0.02
v -0.02182214 -0.0273641 0.02
v -0.02182214 -0.0273641 0.01
v -0.01999249 -0.02295779 0.01
v -0.02074385 -0.02254752 0.01
v -0.01999249 -0.02295779 0.02
v -0.02074385 -0.02254752 0.02
v -0.02182214 0.0273641 0.01
v -0.02182214 0.0273641 0.02
v -0.0201466 -0.02862018 0.02
v -0.0201466 -0.02862018 0.01
v -0.0191904 -0.02325696 0.01
v -0.0191904 -0.02325696 0.02
v -0.0201466 0.02862018 0.01
v -0.0201466 0.02862018 0.02
v -0.01839893 -0.0297738 0.02
v -0.01835389 -0.02343893 0.01
v -0.01839893 -0.0297738 0.01
v -0.0175 -0.0235 0.01
v -0.01835389 -0.02343893 0.02
v -0.0175 -0.0235 0.02
v -0.01839893 0.0297738 0.01
v -0.01839893 0.0297738 0.02
v -0.0165854 -0.03082084 0.02
v -0.01664611 -0.02343893 0.01
v -0.0165854 -0.03082084 0.01
v -0.01664611 -0.02343893 0.02
v -0.0165854 0.03082084 0.01
v -0.01686596 0.02068755 0.01
v -0.01625628 0.02050261 0.01
v -0.01686596 0.02068755 0.02
v -0.01625628 0.02050261 0.02
v -0.0165854 0.03082084 0.02
v -0.0175 -0.0115 0.02
v -0.0175 0.01425 0.01
v -0.0175 -0.0115 0.01
v -0.0175 0.01425 0.02
v -0.01664611 -0.01156107 0.02
v -0.01664611 -0.01156107 0.01
v -0.01686596 0.01431245 0.01
v -0.01686596 0.01431245 0.02
v -0.01625628 0.01449739 0.01
v -0.01625628 0.01449739 0.02
v -0.0158096 -0.02325696 0.01
v -0.0158096 -0.02325696 0.02
v -0.0158096 -0.01174304 0.02
v -0.0156944 0.01479772 0.01
v -0.0158096 -0.01174304 0.01
v 0.0158096 0.01174304 0.01
v -0.0152019 0.0152019 0.01
v 0.0129655 0.01357084 0.01
v 0.01357084 0.0129655 0.01
v 0.01425616 0.01245248 0.01
v 0.01500751 0.01204221 0.01
v -0.0156944 0.01479772 0.02
v 0.0158096 0.01174304 0.02
v -0.0152019 0.0152019 0.02
v 0.0129655 0.01357084 0.02
v 0.01357084 0.0129655 0.02
v 0.01425616 0.01245248 0.02
v 0.01500751 0.01204221 0.02
v -0.0147125 -0.03175756 0.02
v -0.01500751 -0.02295779 0.01
v -0.0147125 -0.03175756 0.01
v -0.01500751 -0.02295779 0.02
v -0.0147125 0.03175756 0.01
v -0.0156944 0.02020228 0.01
v -0.0156944 0.02020228 0.02
v -0.0147125 0.03175756 0.02
v -0.01500751 -0.01204221 0.02
v -0.01500751 -0.01204221 0.01
v -0.0152019 0.0197981 0.02
v -0.0152019 0.0197981 0.01
v -0.01278694 0.03258058 0.01
v -0.01278694 0.03258058 0.02
v -0.01479772 0.0156944 0.01
v 0.01245248 0.01425616 0.01
v -0.01479772 0.0156944 0.02
v 0.01245248 0.01425616 0.02
v -0.01479772 0.0193056 0.02
v -0.01479772 0.0193056 0.01
v -0.01081559 0.03328698 0.01
v -0.01081559 0.03328698 0.02
v -0.01425616 -0.02254752 0.01
v -0.01425616 -0.02254752 0.02
v -0.01425616 -0.01245248 0.02
v -0.01425616 -0.01245248 0.01
v -0.01449739 0.01625628 0.01
v 0.01204221 0.01500751 0.01
v -0.01449739 0.01625628 0.02
v 0.01204221 0.01500751 0.02
v -0.01449739 0.01874372 0.02
v -0.01449739 0.01874372 0.01
v -0.00676396 0.03434019 0.01
v -0.00880554 0.03387422 0.01
v -0.00676396 0.03434019 0.02
v -0.00880554 0.03387422 0.02
v -0.01278694 -0.03258058 0.02
v -0.01278694 -0.03258058 0.01
v -0.01431245 0.01686596 0.01
v 0.01174304 0.0158096 0.01
v -0.01431245 0.01686596 0.02
v 0.01174304 0.0158096 0.02
v -0.01431245 0.01813404 0.02
v -0.01431245 0.01813404 0.01
v -0.00261555 0.03490213 0.01
v -0.00469816 0.03468324 0.01
v -0.00261555 0.03490213 0.02
v -0.00469816 0.03468324 0.02
v -0.01425 0.0175 0.01
v 0.01156107 0.01664611 0.01
v -0.01425 0.0175 0.02
v 0.01156107 0.01664611 0.02
v 0.01156107 0.01835389 0.01
v 0.01156107 0.01835389 0.02
v -0.01357084 -0.0220345 0.01
v -0.01357084 -0.0220345 0.02
v -0.01357084 -0.0129655 0.02
v -0.01357084 -0.0129655 0.01
v 0.0115 0.0175 0.01
v 0.0115 0.0175 0.02
v -0.0129655 -0.02142916 0.01
v -0.01081559 -0.03328698 0.01
v -0.0129655 -0.02142916 0.02
v -0.01081559 -0.03328698 0.02
v -0.0129655 -0.01357084 0.02
v -0.0129655 -0.01357084 0.01
v -0.01245248 -0.02074385 0.01
v -0.00880554 -0.03387422 0.01
v -0.01245248 -0.02074385 0.02
v -0.00880554 -0.03387422 0.02
v -0.01245248 -0.01425616 0.02
v -0.01245248 -0.01425616 0.01
v 0.0152019 -0.0152019 0.01
v 0.0152019 -0.0152019 0.02
v -0.01204221 -0.01999249 0.01
v -0.00469816 -0.03468324 0.01
v -0.00676396 -0.03434019 0.01
v -0.01204221 -0.01999249 0.02
v -0.00469816 -0.03468324 0.02
v -0.00676396 -0.03434019 0.02
v -0.01204221 -0.01500751 0.02
v -0.01204221 -0.01500751 0.01
v 0.01479772 -0.0156944 0.01
v 0.01479772 -0.0156944 0.02
v -0.01174304 -0.0191904 0.01
v -0.00261555 -0.03490213 0.01
v -0.01174304 -0.0191904 0.02
v -0.00261555 -0.03490213 0.02
v -0.01174304 -0.0158096 0.02
v -0.01174304 -0.0158096 0.01
v 0.01449739 -0.01625628 0.01
v 0.01449739 -0.01625628 0.02
v -0.01156107 -0.01835389 0.01
v 0.00157027 -0.03496476 0.01
v -0.00052358 -0.03499608 0.01
v -0.01156107 -0.01835389 0.02
v 0.00157027 -0.03496476 0.02
v -0.00052358 -0.03499608 0.02
v -0.01156107 -0.01664611 0.02
v -0.01156107 -0.01664611 0.01
v 0.01431245 -0.01686596 0.01
v 0.01431245 -0.01686596 0.02
v -0.0115 -0.0175 0.01
v 0.01425 -0.0175 0.01
v 0.01431245 -0.01813404 0.01
v -0.0115 -0.0175 0.02
v 0.01425 -0.0175 0.02
v 0.01431245 -0.01813404 0.02
v -0.00052358 0.03499608 0.01
v 0.01174304 0.0191904 0.01
v -0.00052358 0.03499608 0.02
v 0.01174304 0.0191904 0.02
v 0.00157027 0.03496476 0.01
v 0.00157027 0.03496476 0.02
v 0.0036585 -0.03480827 0.02
v 0.0036585 -0.03480827 0.01
v 0.0036585 0.03480827 0.01
v 0.01204221 0.01999249 0.01
v 0.0036585 0.03480827 0.02
v 0.01204221 0.01999249 0.02
v 0.00573363 -0.03452717 0.02
v 0.00573363 -0.03452717 0.01
v 0.01449739 -0.01874372 0.01
v 0.01449739 -0.01874372 0.02
v 0.00573363 0.03452717 0.01
v 0.00573363 0.03452717 0.02
v 0.00778823 -0.03412248 0.02
v 0.00778823 -0.03412248 0.01
v 0.00778823 0.03412248 0.01
v 0.01245248 0.02074385 0.01
v 0.00778823 0.03412248 0.02
v 0.01245248 0.02074385 0.02
v 0.00981496 -0.03359563 0.02
v 0.00981496 -0.03359563 0.01
v 0.01479772 -0.0193056 0.01
v 0.01479772 -0.0193056 0.02
v 0.00981496 0.03359563 0.01
v 0.0129655 0.02142916 0.01
v 0.00981496 0.03359563 0.02
v 0.0129655 0.02142916 0.02
v 0.01180655 -0.03294853 0.02
v 0.01180655 -0.03294853 0.01
v 0.01180655 0.03294853 0.01
v 0.01357084 0.0220345 0.01
v 0.01180655 0.03294853 0.02
v 0.01357084 0.0220345 0.02
v 0.01375588 -0.03218347 0.02
v 0.01375588 -0.03218347 0.01
v 0.0152019 -0.0197981 0.01
v 0.0152019 -0.0197981 0.02
v 0.01375588 0.03218347 0.01
v 0.01425616 0.02254752 0.01
v 0.01425616 0.02254752 0.02
v 0.01375588 0.03218347 0.02
v 0.01565596 -0.03130321 0.02
v 0.0156944 -0.02020228 0.01
v 0.01565596 -0.03130321 0.01
v 0.0156944 -0.02020228 0.02
v 0.01565596 0.03130321 0.01
v 0.01500751 0.02295779 0.01
v 0.01500751 0.02295779 0.02
v 0.01565596 0.03130321 0.02
v 0.0158096 0.02325696 0.02
v 0.0158096 0.02325696 0.01
v 0.0156944 -0.01479772 0.02
v 0.0156944 -0.01479772 0.01
v 0.0175 -0.03031089 0.02
v 0.01625628 -0.02050261 0.01
v 0.0175 -0.03031089 0.01
v 0.01625628 -0.02050261 0.02
v 0.0175 0.03031089 0.01
v 0.0175 0.03031089 0.02
v 0.01625628 -0.01449739 0.02
v 0.01625628 -0.01449739 0.01
v 0.01664611 0.01156107 0.01
v 0.01686596 -0.01431245 0.01
v 0.03312146 -0.01131234 0.01
v 0.01686596 -0.01431245 0.02
v 0.01664611 0.01156107 0.02
v 0.03312146 -0.01131234 0.02
v 0.0175 -0.01425 0.02
v 0.01813404 -0.01431245 0.02
v 0.01874372 -0.01449739 0.02
v 0.01664611 0.02343893 0.02
v 0.01664611 0.02343893 0.01
v 0.01686596 -0.02068755 0.01
v 0.01686596 -0.02068755 0.02
v 0.0175 0.0115 0.01
v 0.0175 0.0115 0.02
v 0.0175 0.0235 0.02
v 0.0175 0.0235 0.01
v 0.01928139 0.02921006 0.01
v 0.01928139 0.02921006 0.02
v 0.0175 -0.02075 0.01
v 0.01928139 -0.02921006 0.01
v 0.01928139 -0.02921006 0.02
v 0.0175 -0.02075 0.02
v 0.0175 -0.01425 0.01
v 0.01813404 -0.02068755 0.01
v 0.02099377 -0.02800467 0.01
v 0.01813404 -0.02068755 0.02
v 0.02099377 -0.02800467 0.02
v 0.01813404 -0.01431245 0.01
v 0.01835389 0.01156107 0.01
v 0.03423516 -0.00727691 0.01
v 0.0337387 -0.00931129 0.01
v 0.01835389 0.01156107 0.02
v 0.03423516 -0.00727691 0.02
v 0.0337387 -0.00931129 0.02
v 0.01835389 0.02343893 0.02
v 0.01835389 0.02343893 0.01
v 0.02565682 0.02380605 0.01
v 0.02099377 0.02800467 0.01
v 0.02263099 0.02669903 0.01
v 0.02418719 0.02529782 0.01
v 0.02565682 0.02380605 0.02
v 0.02099377 0.02800467 0.02
v 0.02263099 0.02669903 0.02
v 0.02418719 0.02529782 0.02
v 0.01874372 -0.02050261 0.01
v 0.02263099 -0.02669903 0.01
v 0.01874372 -0.02050261 0.02
v 0.02263099 -0.02669903 0.02
v 0.01874372 -0.01449739 0.01
v 0.0191904 0.01174304 0.01
v 0.0348591 -0.00313738 0.01
v 0.03460908 -0.00521648 0.01
v 0.0191904 0.01174304 0.02
v 0.0348591 -0.00313738 0.02
v 0.03460908 -0.00521648 0.02
v 0.0191904 0.02325696 0.02
v 0.0191904 0.02325696 0.01
v 0.0193056 -0.02020228 0.01
v 0.0193056 -0.02020228 0.02
v 0.0193056 -0.01479772 0.02
v 0.0193056 -0.01479772 0.01
v 0.01999249 0.01204221 0.01
v 0.03498434 0.00104704 0.01
v 0.03498434 -0.00104704 0.01
v 0.01999249 0.01204221 0.02
v 0.03498434 0.00104704 0.02
v 0.03498434 -0.00104704 0.02
v 0.01999249 0.02295779 0.02
v 0.01999249 0.02295779 0.01
v 0.0197981 -0.0197981 0.01
v 0.02418719 -0.02529782 0.01
v 0.0197981 -0.0197981 0.02
v 0.02418719 -0.02529782 0.02
v 0.0197981 -0.0152019 0.02
v 0.0197981 -0.0152019 0.01
v 0.02020228 -0.0193056 0.01
v 0.02565682 -0.02380605 0.01
v 0.02020228 -0.0193056 0.02
v 0.02565682 -0.02380605 0.02
v 0.02020228 -0.0156944 0.02
v 0.02020228 -0.0156944 0.01
v 0.03238565 -0.01327289 0.01
v 0.03238565 -0.01327289 0.02
v 0.02074385 0.01245248 0.01
v 0.03460908 0.00521648 0.01
v 0.0348591 0.00313738 0.01
v 0.02074385 0.01245248 0.02
v 0.03460908 0.00521648 0.02
v 0.0348591 0.00313738 0.02
v 0.02074385 0.02254752 0.02
v 0.02074385 0.02254752 0.01
v 0.02050261 -0.01874372 0.01
v 0.02050261 -0.01874372 0.02
v 0.02050261 -0.01625628 0.02
v 0.02050261 -0.01625628 0.01
v 0.03153391 -0.01518593 0.01
v 0.03153391 -0.01518593 0.02
v 0.02068755 -0.01813404 0.01
v 0.02703459 -0.02222905 0.01
v 0.02068755 -0.01813404 0.02
v 0.02703459 -0.02222905 0.02
v 0.02068755 -0.01686596 0.02
v 0.02068755 -0.01686596 0.01
v 0.03056929 -0.01704461 0.01
v 0.03056929 -0.01704461 0.02
v 0.02075 -0.0175 0.01
v 0.02831559 -0.02057248 0.01
v 0.02075 -0.0175 0.02
v 0.02831559 -0.02057248 0.02
v 0.02949523 -0.01884227 0.01
v 0.02949523 -0.01884227 0.02
v 0.02142916 0.0129655 0.01
v 0.03423516 0.00727691 0.01
v 0.02142916 0.0129655 0.02
v 0.03423516 0.00727691 0.02
v 0.02142916 0.0220345 0.02
v 0.02142916 0.0220345 0.01
v 0.0220345 0.01357084 0.01
v 0.0337387 0.00931129 0.01
v 0.0220345 0.01357084 0.02
v 0.0337387 0.00931129 0.02
v 0.0220345 0.02142916 0.02
v 0.0220345 0.02142916 0.01
v 0.02254752 0.01425616 0.01
v 0.03238565 0.01327289 0.01
v 0.03312146 0.01131234 0.01
v 0.02254752 0.01425616 0.02
v 0.03238565 0.01327289 0.02
v 0.03312146 0.01131234 0.02
v 0.02254752 0.02074385 0.02
v 0.02254752 0.02074385 0.01
v 0.02295779 0.01500751 0.01
v 0.02295779 0.01500751 0.02
v 0.02295779 0.01999249 0.02
v 0.02295779 0.01999249 0.01
v 0.02703459 0.02222905 0.01
v 0.02703459 0.02222905 0.02
v 0.02325696 0.0158096 0.01
v 0.03153391 0.01518593 0.01
v 0.02325696 0.0158096 0.02
v 0.03153391 0.01518593 0.02
v 0.02325696 0.0191904 0.02
v 0.02325696 0.0191904 0.01
v 0.02343893 0.01664611 0.01
v 0.03056929 0.01704461 0.01
v 0.02343893 0.01664611 0.02
v 0.03056929 0.01704461 0.02
v 0.02343893 0.01835389 0.02
v 0.02343893 0.01835389 0.01
v 0.02831559 0.02057248 0.01
v 0.02831559 0.02057248 0.02
v 0.0235 0.0175 0.01
v 0.02949523 0.01884227 0.01
v 0.0235 0.0175 0.02
v 0.02949523 0.01884227 0.02
vn -1 0 0
vn -0.99821 -0.0598 0
vn -0.99821 0.0598 -0
vn 0 0 -1
vn 0 0 1
vn -0.99285 -0.11939 0
vn -0.99285 0.11939 0
vn -0.98393 -0.17856 0
vn -0.98393 0.17856 0
vn -0.97149 -0.23708 0
vn -0.97149 0.23708 0
vn -0.95557 -0.29476 0
vn -0.95557 0.29476 0
vn -0.93623 -0.35137 0
vn -0.93623 0.35137 0
vn -0.91355 -0.40674 0
vn -0.91355 0.40674 0
vn -0.88759 -0.46064 0
vn -0.88759 0.46064 0
vn -0.85845 -0.5129 0
vn -0.85845 0.5129 0
vn -0.82624 -0.56332 0
vn -0.82624 0.56332 0
vn -0.79107 -0.61172 0
vn -0.79107 0.61172 0
vn -0.75307 -0.65794 0
vn -0.75307 0.65794 0
vn -0.71238 -0.7018 0
vn -0.71238 0.7018 0
vn -0.66913 -0.74314 0
vn -0.66913 0.74314 0
vn 1 0 0
vn 0.98982 0.14231 0
vn 0.98982 -0.14231 0
vn 0.95949 0.28173 0
vn 0.95949 -0.28173 0
vn -0.62349 -0.78183 0
vn -0.62349 0.78183 0
vn 0.90963 0.41541 0
vn 0.90963 -0.41542 0
vn 0.84125 0.54064 0
vn 0.84125 -0.54064 0
vn 0.75575 0.65486 0
vn 0.75575 -0.65486 0
vn 0.65486 0.75575 0
vn 0.65486 -0.75575 0
vn -0.57562 -0.81772 0
vn -0.57562 0.81772 0
vn 0.54064 0.84125 0
vn 0.54064 -0.84125 0
vn 1 -0 0
vn 0.98079 0.19509 0
vn 0.98079 -0.19509 0
vn 0.41541 0.90963 0
vn 0.41541 -0.90963 0
vn 0.92388 0.38268 0
vn 0.92388 -0.38268 0
vn 0.83147 0.55557 0
vn 0.83147 -0.55557 0
vn 0.70711 0.70711 0
vn 0.70711 -0.70711 0
vn -0.52568 -0.85068 0
vn -0.52568 0.85068 0
vn 0.28173 0.95949 0
vn 0.28173 -0.95949 0
vn 0.55557 0.83147 0
vn 0.55557 -0.83147 0
vn 0.38268 0.92388 0
vn 0.38268 -0.92388 0
vn 0.14231 0.98982 0
vn 0.14232 -0.98982 0
vn 0.19509 0.98079 0
vn 0.19509 -0.98079 0
vn -0.47387 -0.8806 0
vn -0.47387 0.8806 0
vn 0 1 0
vn 0 -1 0
vn 0 1 0
vn 0 -1 0
vn -0.14231 0.98982 0
vn -0.14232 -0.98982 0
vn -0.19509 0.98079 0
vn -0.19509 -0.98079 0
vn -0.38268 0.92388 0
vn -0.38268 -0.92388 0
vn -0.28173 0.95949 0
vn -0.28173 -0.95949 0
vn -0.42036 -0.90736 0
vn -0.42036 0.90736 0
vn -0.55557 0.83147 0
vn -0.55557 -0.83147 0
vn -0.41542 0.90963 0
vn -0.41541 -0.90963 0
vn -0.70711 0.70711 0
vn -0.70711 -0.70711 0
vn -0.83147 0.55557 0
vn -0.83147 -0.55557 0
vn -0.54064 0.84125 0
vn -0.54064 -0.84125 0
vn -0.92388 0.38268 0
vn -0.92388 -0.38268 0
vn -0.36534 -0.93087 0
vn -0.36534 0.93087 0
vn -0.98079 0.19509 0
vn -0.98079 -0.19509 0
vn -1 -0 0
vn -0.65486 0.75575 0
vn -0.65486 -0.75575 0
vn -0.75575 0.65486 0
vn -0.75575 -0.65486 0
vn -0.84125 0.54064 0
vn -0.84125 -0.54064 0
vn -0.30902 -0.95106 0
vn -0.30902 0.95106 0
vn -0.90963 0.41541 0
vn -0.90963 -0.41541 0
vn -0.95949 0.28173 0
vn -0.95949 -0.28173 0
vn -0.98982 0.14232 0
vn -0.98982 -0.14232 0
vn -0.25159 -0.96783 0
vn -0.25159 0.96783 0
vn -0.19326 -0.98115 0
vn -0.19326 0.98115 0
vn -0.13423 -0.99095 0
vn -0.13423 0.99095 0
vn -0.07473 -0.9972 0
vn -0.07473 0.9972 0
vn -0.01496 -0.99989 0
vn -0.01496 0.99989 0
vn 0.04487 -0.99899 0
vn 0.04487 0.99899 0
vn 0.10453 -0.99452 0
vn 0.10453 0.99452 0
vn 0.16382 -0.98649 0
vn 0.16382 0.98649 0
vn 0.22252 -0.97493 0
vn 0.22252 0.97493 0
vn 0.28043 -0.95988 0
vn 0.28043 0.95988 0
vn 0.33733 -0.94139 0
vn 0.33733 0.94139 0
vn 0.98982 0.14232 0
vn 0.98982 -0.14232 0
vn 0.95949 0.28173 0
vn 0.95949 -0.28173 0
vn 0.90963 0.41541 0
vn 0.90963 -0.41541 0
vn 0.39303 -0.91953 0
vn 0.39303 0.91953 0
vn 0.84125 0.54064 0
vn 0.84125 -0.54064 0
vn 0.75575 0.65486 0
vn 0.75575 -0.65486 0
vn 0.65486 0.75575 0
vn 0.65486 -0.75575 0
vn 0.54064 0.84125 0
vn 0.54064 -0.84125 0
vn 0.44731 -0.89438 0
vn 0.44731 0.89438 0
vn 1 0 0
vn 0.98079 0.19509 0
vn 0.98079 -0.19509 0
vn 0.41541 0.90963 0
vn 0.41542 -0.90963 0
vn 0.92388 0.38268 0
vn 0.92388 -0.38268 0
vn 0.83147 0.55557 0
vn 0.83147 -0.55557 0
vn 0.70711 0.70711 0
vn 0.28173 0.95949 0
vn 0.28173 -0.95949 0
vn 0.55557 0.83147 0
vn 0.55557 -0.83147 0
vn 0.5 -0.86603 0
vn 0.5 0.86603 0
vn 0.38268 0.92388 0
vn 0.38268 -0.92388 0
vn 0.14232 0.98982 0
vn 0.14231 -0.98982 0
vn 0.19509 0.98079 0
vn 0.19509 -0.98079 0
vn -0 1 0
vn -0 -1 0
vn 0.5509 -0.83457 0
vn -0.19509 0.98079 0
vn -0.19509 -0.98079 0
vn -0.14232 0.98982 0
vn -0.14231 -0.98982 0
vn 0.5509 0.83457 0
vn -0.38268 0.92388 0
vn -0.38268 -0.92388 0
vn -0.28173 0.95949 0
vn -0.28173 -0.95949 0
vn -0.55557 0.83147 0
vn -0.55557 -0.83147 0
vn -0.41541 0.90963 0
vn -0.41541 -0.90963 0
vn 0.59982 -0.80013 0
vn 0.59982 0.80013 0
vn -0.70711 -0.70711 0
vn -0.83147 0.55557 0
vn -0.83147 -0.55557 0
vn -0.54064 0.84125 0
vn -0.54064 -0.84125 0
vn -0.92388 0.38268 0
vn -0.92388 -0.38268 0
vn -0.98079 0.19509 0
vn -0.98079 -0.19509 0
vn -1 0 0
vn -0.65486 0.75575 0
vn -0.65486 -0.75575 0
vn 0.6466 -0.76283 0
vn 0.6466 0.76283 0
vn -0.75575 0.65486 0
vn -0.75575 -0.65486 0
vn -0.84125 0.54064 0
vn -0.84125 -0.54064 0
vn -0.90963 0.41542 0
vn -0.90963 -0.41541 0
vn 0.69106 -0.7228 0
vn 0.69106 0.7228 0
vn -0.95949 0.28173 0
vn -0.95949 -0.28173 0
vn -0.98982 0.14231 0
vn -0.98982 -0.14231 0
vn 0.73305 -0.68017 0
vn 0.73305 0.68017 0
vn 0.77242 -0.63512 0
vn 0.77242 0.63512 0
vn 0.80902 -0.58779 0
vn 0.80902 0.58779 0
vn 0.84272 -0.53835 0
vn 0.84272 0.53835 0
vn 0.87341 -0.48699 0
vn 0.87341 0.48699 0
vn 0.90097 -0.43388 0
vn 0.90097 0.43388 0
vn 0.9253 -0.37923 0
vn 0.9253 0.37923 0
vn 0.94633 -0.32321 0
vn 0.94633 0.32321 0
vn 0.96396 -0.26604 0
vn 0.96396 0.26604 0
vn 0.97815 -0.20791 0
vn 0.97815 0.20791 0
vn 0.98883 -0.14904 0
vn 0.98883 0.14904 0
vn 0.99597 -0.08964 0
vn 0.99597 0.08964 0
vn 0.99955 -0.02992 0
vn 0.99955 0.02992 0
usemtl mat1
f 9//7 10//7 11//8
f 9//7 12//9 10//7
f 11//8 10//7 13//8
f 14//10 13//10 10//10
f 14//10 10//10 12//10
f 11//11 15//11 9//11
f 16//9 12//9 9//7
f 9//11 15//11 16//11
f 11//8 13//8 17//12
f 17//12 13//8 18//12
f 13//10 19//10 18//10
f 19//10 13//10 14//10
f 17//11 20//11 11//11
f 11//11 20//11 15//11
f 16//9 21//13 12//9
f 21//10 22//10 12//10
f 12//10 23//10 14//10
f 12//10 22//10 23//10
f 24//13 21//13 16//9
f 16//11 25//11 24//11
f 16//11 15//11 26//11
f 26//11 25//11 16//11
f 17//12 18//12 27//14
f 27//14 18//12 28//14
f 29//10 28//10 18//10
f 18//10 19//10 29//10
f 27//11 30//11 17//11
f 17//11 30//11 20//11
f 24//13 31//15 21//13
f 31//10 32//10 21//10
f 21//10 32//10 22//10
f 33//15 31//15 24//13
f 24//11 34//11 33//11
f 24//11 25//11 34//11
f 27//14 28//14 35//16
f 35//16 28//14 36//16
f 29//10 36//10 28//10
f 35//11 30//11 27//11
f 33//15 37//17 31//15
f 37//10 32//10 31//10
f 38//17 37//17 33//15
f 33//11 34//11 38//11
f 35//16 36//16 39//18
f 39//18 36//16 40//18
f 41//10 40//10 36//10
f 41//10 36//10 29//10
f 39//11 42//11 35//11
f 35//11 42//11 30//11
f 38//17 43//19 37//17
f 43//10 44//10 37//10
f 37//10 44//10 32//10
f 45//19 43//19 38//17
f 38//11 46//11 45//11
f 38//11 34//11 46//11
f 39//18 40//18 47//20
f 47//20 40//18 48//20
f 49//10 48//10 40//10
f 49//10 40//10 41//10
f 47//11 50//11 39//11
f 39//11 50//11 42//11
f 45//19 51//21 43//19
f 51//10 52//10 43//10
f 43//10 52//10 44//10
f 53//21 51//21 45//19
f 54//11 53//11 45//11
f 45//11 46//11 54//11
f 47//20 48//20 55//22
f 55//22 48//20 56//22
f 57//10 56//10 48//10
f 57//10 48//10 49//10
f 55//11 58//11 47//11
f 47//11 58//11 50//11
f 53//21 59//23 51//21
f 59//10 52//10 51//10
f 60//23 59//23 53//21
f 54//11 60//11 53//11
f 55//22 56//22 61//24
f 61//24 56//22 62//24
f 63//10 62//10 56//10
f 63//10 56//10 57//10
f 61//11 64//11 55//11
f 55//11 64//11 58//11
f 60//23 65//25 59//23
f 65//10 66//10 59//10
f 59//10 66//10 52//10
f 67//25 65//25 60//23
f 68//11 67//11 60//11
f 68//11 60//11 54//11
f 61//24 62//24 69//26
f 69//26 62//24 70//26
f 71//10 70//10 62//10
f 71//10 62//10 63//10
f 69//11 72//11 61//11
f 61//11 72//11 64//11
f 67//25 73//27 65//25
f 73//10 74//10 65//10
f 65//10 74//10 66//10
f 75//27 73//27 67//25
f 76//11 75//11 67//11
f 76//11 67//11 68//11
f 69//26 70//26 77//28
f 77//28 70//26 78//28
f 79//10 78//10 70//10
f 79//10 70//10 80//10
f 80//10 70//10 71//10
f 81//11 69//11 77//11
f 82//11 69//11 81//11
f 82//11 72//11 69//11
f 75//27 83//29 73//27
f 83//10 84//10 73//10
f 73//10 84//10 74//10
f 85//29 83//29 75//27
f 86//11 85//11 75//11
f 86//11 75//11 76//11
f 77//28 78//28 87//30
f 87//30 78//28 88//30
f 78//10 89//10 88//10
f 89//10 78//10 79//10
f 90//11 77//11 87//11
f 81//11 77//11 90//11
f 85//29 91//31 83//29
f 92//10 83//10 91//10
f 84//10 83//10 92//10
f 93//31 91//31 85//29
f 94//11 93//11 85//11
f 94//11 85//11 86//11
f 87//30 88//30 95//32
f 95//32 88//30 96//32
f 88//10 97//10 96//10
f 88//10 89//10 98//10
f 88//10 98//10 97//10
f 99//11 87//11 95//11
f 90//11 87//11 100//11
f 100//11 87//11 99//11
f 93//31 101//33 91//31
f 102//10 91//10 101//10
f 92//10 91//10 103//10
f 103//10 91//10 104//10
f 104//10 91//10 105//10
f 105//10 91//10 106//10
f 106//10 91//10 107//10
f 107//10 91//10 108//10
f 108//10 91//10 109//10
f 109//10 91//10 102//10
f 110//33 101//33 93//31
f 93//11 111//11 110//11
f 112//11 93//11 94//11
f 112//11 113//11 93//11
f 93//11 113//11 114//11
f 93//11 114//11 115//11
f 115//11 116//11 93//11
f 93//11 116//11 117//11
f 93//11 117//11 118//11
f 118//11 111//11 93//11
f 95//32 96//32 119//34
f 119//34 96//32 120//34
f 96//10 121//10 120//10
f 96//10 97//10 121//10
f 122//11 95//11 119//11
f 99//11 95//11 122//11
f 110//33 123//35 101//33
f 102//10 101//10 123//10
f 124//35 123//35 110//33
f 110//11 111//11 124//11
f 119//34 120//34 125//36
f 125//36 120//34 126//36
f 120//10 127//10 126//10
f 120//10 121//10 128//10
f 120//10 128//10 127//10
f 129//11 119//11 125//11
f 122//11 119//11 130//11
f 130//11 119//11 129//11
f 124//35 131//37 123//35
f 123//10 131//10 102//10
f 132//37 131//37 124//35
f 124//11 111//11 132//11
f 81//38 89//39 79//38
f 81//38 79//38 82//40
f 82//40 79//38 80//40
f 90//39 89//39 81//38
f 90//39 98//41 89//39
f 100//41 98//41 90//39
f 82//40 80//40 72//42
f 72//42 80//40 71//42
f 125//36 126//36 133//43
f 133//43 126//36 134//43
f 126//10 135//10 134//10
f 126//10 127//10 136//10
f 126//10 136//10 135//10
f 137//11 125//11 133//11
f 129//11 125//11 138//11
f 138//11 125//11 137//11
f 132//37 139//44 131//37
f 102//10 131//10 139//10
f 140//44 139//44 132//37
f 132//11 111//11 140//11
f 100//41 97//45 98//41
f 99//45 97//45 100//41
f 72//42 71//42 64//46
f 64//46 71//42 63//46
f 99//45 121//47 97//45
f 122//47 121//47 99//45
f 64//46 63//46 58//48
f 58//48 63//46 57//48
f 122//47 128//49 121//47
f 130//49 128//49 122//47
f 58//48 57//48 50//50
f 50//50 57//48 49//50
f 130//49 127//51 128//49
f 129//51 127//51 130//49
f 50//50 49//50 42//52
f 42//52 49//50 41//52
f 133//43 134//43 141//53
f 141//53 134//43 142//53
f 134//10 143//10 142//10
f 134//10 135//10 143//10
f 144//11 133//11 141//11
f 137//11 133//11 144//11
f 140//44 145//54 139//44
f 102//10 139//10 145//10
f 146//54 145//54 140//44
f 140//11 111//11 146//11
f 129//51 136//55 127//51
f 138//55 136//55 129//51
f 42//52 41//52 30//56
f 30//56 41//52 29//56
f 94//57 84//58 92//57
f 94//57 92//57 112//59
f 112//59 92//57 103//59
f 86//58 84//58 94//57
f 138//55 135//60 136//55
f 137//60 135//60 138//55
f 30//56 29//56 20//61
f 20//61 29//56 19//61
f 86//58 74//62 84//58
f 76//62 74//62 86//58
f 112//59 103//59 113//63
f 113//63 103//59 104//63
f 76//62 66//64 74//62
f 68//64 66//64 76//62
f 113//63 104//63 114//65
f 114//65 104//63 105//65
f 68//64 52//66 66//64
f 54//66 52//66 68//64
f 114//65 105//65 115//67
f 115//67 105//65 106//67
f 141//53 142//53 147//68
f 142//10 143//10 148//10
f 147//68 142//53 149//68
f 142//10 150//10 149//10
f 142//10 148//10 150//10
f 144//11 141//11 151//11
f 152//11 141//11 147//11
f 151//11 141//11 152//11
f 146//54 153//69 145//54
f 145//10 153//10 102//10
f 154//69 153//69 146//54
f 146//11 111//11 154//11
f 137//60 143//70 135//60
f 144//70 143//70 137//60
f 20//61 19//61 15//71
f 15//71 19//61 14//71
f 54//66 44//72 52//66
f 46//72 44//72 54//66
f 115//67 106//67 116//73
f 116//73 106//67 107//73
f 46//72 32//74 44//72
f 34//74 32//74 46//72
f 116//73 107//73 117//75
f 117//75 107//73 108//75
f 144//70 148//76 143//70
f 151//76 148//76 144//70
f 15//71 14//71 26//77
f 26//77 14//71 23//77
f 34//74 22//78 32//74
f 25//78 22//78 34//74
f 117//75 108//75 118//79
f 118//79 108//75 109//79
f 147//68 149//68 155//80
f 149//10 150//10 156//10
f 149//10 156//10 157//10
f 155//80 149//68 157//80
f 152//11 147//11 158//11
f 158//11 147//11 155//11
f 154//69 159//81 153//69
f 153//10 160//10 102//10
f 153//10 161//10 160//10
f 159//10 161//10 153//10
f 154//11 111//11 162//11
f 154//11 162//11 163//11
f 164//81 159//81 154//69
f 154//11 163//11 164//11
f 151//76 150//82 148//76
f 152//82 150//82 151//76
f 26//77 23//77 165//83
f 22//10 166//10 23//10
f 165//83 23//77 167//83
f 23//10 166//10 167//10
f 26//11 168//11 25//11
f 165//11 168//11 26//11
f 25//78 166//84 22//78
f 168//84 166//84 25//78
f 118//79 109//79 111//85
f 111//85 109//79 102//85
f 152//82 156//86 150//82
f 158//86 156//86 152//82
f 165//83 167//83 169//87
f 167//10 166//10 170//10
f 169//87 167//83 170//87
f 169//11 168//11 165//11
f 168//84 171//88 166//84
f 170//10 166//10 171//10
f 172//88 171//88 168//84
f 172//11 168//11 169//11
f 111//85 102//85 162//89
f 162//89 102//85 160//89
f 172//88 173//90 171//88
f 170//10 171//10 173//10
f 169//11 174//11 172//11
f 174//90 173//90 172//88
f 162//89 160//89 163//91
f 163//91 160//89 161//91
f 158//86 175//92 156//86
f 157//10 156//10 175//10
f 158//11 155//11 176//11
f 176//92 175//92 158//86
f 169//87 170//87 177//93
f 173//10 178//10 170//10
f 177//93 170//87 179//93
f 180//10 179//10 170//10
f 170//10 178//10 181//10
f 170//10 181//10 182//10
f 182//10 183//10 170//10
f 170//10 183//10 184//10
f 170//10 184//10 185//10
f 185//10 180//10 170//10
f 169//11 186//11 174//11
f 187//11 169//11 177//11
f 188//11 186//11 169//11
f 189//11 188//11 169//11
f 189//11 169//11 190//11
f 190//11 169//11 191//11
f 191//11 169//11 192//11
f 192//11 169//11 187//11
f 155//80 157//80 193//94
f 157//10 175//10 194//10
f 157//10 194//10 195//10
f 193//94 157//80 195//94
f 176//11 155//11 196//11
f 196//11 155//11 193//11
f 164//81 197//95 159//81
f 159//10 198//10 161//10
f 197//10 198//10 159//10
f 164//11 163//11 199//11
f 164//11 199//11 200//11
f 200//95 197//95 164//81
f 174//90 178//96 173//90
f 186//96 178//96 174//90
f 163//91 161//91 199//97
f 199//97 161//91 198//97
f 176//92 194//98 175//92
f 196//98 194//98 176//92
f 177//93 179//93 201//99
f 201//99 179//93 202//99
f 180//10 202//10 179//10
f 187//11 177//11 201//11
f 186//96 181//100 178//96
f 188//100 181//100 186//96
f 199//97 198//97 203//101
f 203//101 198//97 204//101
f 205//10 204//10 198//10
f 205//10 198//10 197//10
f 206//11 199//11 203//11
f 200//11 199//11 206//11
f 188//100 207//102 181//100
f 208//10 181//10 207//10
f 182//10 181//10 208//10
f 209//102 207//102 188//100
f 210//11 209//11 188//11
f 210//11 188//11 189//11
f 203//101 204//101 211//103
f 211//103 204//101 212//103
f 213//10 212//10 204//10
f 213//10 204//10 205//10
f 214//11 203//11 211//11
f 206//11 203//11 214//11
f 196//98 215//104 194//98
f 195//10 194//10 215//10
f 196//11 193//11 216//11
f 216//104 215//104 196//98
f 201//99 202//99 217//105
f 217//105 202//99 218//105
f 218//10 202//10 180//10
f 201//11 217//11 187//11
f 209//102 219//106 207//102
f 220//10 207//10 219//10
f 208//10 207//10 220//10
f 221//106 219//106 209//102
f 222//11 221//11 209//11
f 222//11 209//11 210//11
f 211//103 212//103 223//107
f 223//107 212//103 224//107
f 225//10 224//10 212//10
f 226//10 212//10 213//10
f 225//10 212//10 226//10
f 227//11 211//11 223//11
f 214//11 211//11 228//11
f 228//11 211//11 227//11
f 193//94 195//94 229//108
f 195//10 215//10 230//10
f 229//108 195//94 230//108
f 216//11 193//11 229//11
f 200//95 205//109 197//95
f 206//109 205//109 200//95
f 221//106 231//110 219//106
f 232//10 219//10 231//10
f 220//10 219//10 232//10
f 233//110 231//110 221//106
f 234//11 233//11 221//11
f 234//11 221//11 222//11
f 223//107 224//107 235//111
f 235//111 224//107 236//111
f 237//10 236//10 224//10
f 238//10 224//10 225//10
f 237//10 224//10 238//10
f 239//11 223//11 235//11
f 227//11 223//11 240//11
f 240//11 223//11 239//11
f 233//110 241//112 231//110
f 242//10 231//10 241//10
f 232//10 231//10 242//10
f 243//112 241//112 233//110
f 244//11 243//11 233//11
f 244//11 233//11 234//11
f 235//111 236//111 243//112
f 243//112 236//111 241//112
f 245//10 241//10 236//10
f 245//10 236//10 237//10
f 246//11 235//11 243//11
f 239//11 235//11 246//11
f 216//104 247//113 215//104
f 230//10 215//10 247//10
f 248//113 247//113 216//104
f 216//11 229//11 248//11
f 217//105 218//105 249//114
f 249//114 218//105 250//114
f 180//10 250//10 218//10
f 187//11 217//11 249//11
f 242//10 241//10 251//10
f 251//10 241//10 245//10
f 252//11 243//11 244//11
f 246//11 243//11 252//11
f 248//113 253//115 247//113
f 254//10 247//10 253//10
f 230//10 247//10 254//10
f 255//115 253//115 248//113
f 248//11 256//11 255//11
f 248//11 229//11 256//11
f 249//114 250//114 257//116
f 257//116 250//114 258//116
f 180//10 258//10 250//10
f 187//11 249//11 257//11
f 255//115 259//117 253//115
f 260//10 253//10 259//10
f 254//10 253//10 260//10
f 261//117 259//117 255//115
f 255//11 262//11 261//11
f 255//11 256//11 262//11
f 257//116 258//116 263//118
f 263//118 258//116 264//118
f 265//10 264//10 258//10
f 265//10 258//10 180//10
f 266//11 257//11 263//11
f 187//11 257//11 266//11
f 229//108 230//108 256//119
f 256//119 230//108 254//119
f 206//109 213//120 205//109
f 214//120 213//120 206//109
f 261//117 267//121 259//117
f 268//10 259//10 267//10
f 260//10 259//10 269//10
f 269//10 259//10 268//10
f 270//121 267//121 261//117
f 271//11 270//11 261//11
f 261//11 262//11 272//11
f 261//11 272//11 271//11
f 263//118 264//118 273//122
f 273//122 264//118 274//122
f 275//10 274//10 264//10
f 275//10 264//10 265//10
f 276//11 263//11 273//11
f 266//11 263//11 276//11
f 270//121 277//123 267//121
f 278//10 267//10 277//10
f 268//10 267//10 278//10
f 279//123 277//123 270//121
f 270//11 280//11 279//11
f 280//11 270//11 271//11
f 273//122 274//122 281//124
f 281//124 274//122 282//124
f 283//10 282//10 274//10
f 283//10 274//10 275//10
f 284//11 273//11 281//11
f 276//11 273//11 284//11
f 279//123 285//125 277//123
f 286//10 277//10 285//10
f 278//10 277//10 287//10
f 287//10 277//10 286//10
f 288//125 285//125 279//123
f 279//11 289//11 288//11
f 279//11 280//11 290//11
f 279//11 290//11 289//11
f 281//124 282//124 291//126
f 291//126 282//124 292//126
f 293//10 292//10 282//10
f 293//10 282//10 283//10
f 294//11 281//11 291//11
f 284//11 281//11 294//11
f 288//125 295//7 285//125
f 296//10 285//10 295//10
f 286//10 285//10 297//10
f 297//10 285//10 296//10
f 298//7 295//7 288//125
f 299//11 298//11 288//11
f 288//11 289//11 300//11
f 288//11 300//11 299//11
f 291//126 292//126 298//7
f 298//7 292//126 295//7
f 296//10 295//10 292//10
f 296//10 292//10 293//10
f 299//11 291//11 298//11
f 294//11 291//11 299//11
f 256//119 254//119 262//127
f 262//127 254//119 260//127
f 214//120 226//128 213//120
f 228//128 226//128 214//120
f 262//127 260//127 272//129
f 272//129 260//127 269//129
f 228//128 225//130 226//128
f 227//130 225//130 228//128
f 272//129 269//129 271//131
f 271//131 269//129 268//131
f 227//130 238//132 225//130
f 240//132 238//132 227//130
f 271//131 268//131 280//133
f 280//133 268//131 278//133
f 240//132 237//134 238//132
f 239//134 237//134 240//132
f 280//133 278//133 290//135
f 290//135 278//133 287//135
f 239//134 301//136 237//134
f 301//10 302//10 237//10
f 237//10 302//10 245//10
f 303//136 301//136 239//134
f 239//11 304//11 303//11
f 246//11 304//11 239//11
f 290//135 287//135 289//137
f 289//137 287//135 286//137
f 303//136 305//138 301//136
f 305//10 302//10 301//10
f 306//138 305//138 303//136
f 303//11 304//11 306//11
f 289//137 286//137 307//139
f 307//139 286//137 308//139
f 286//10 297//10 308//10
f 307//11 300//11 289//11
f 306//138 309//140 305//138
f 309//10 310//10 305//10
f 305//10 310//10 302//10
f 311//140 309//140 306//138
f 306//11 312//11 311//11
f 306//11 304//11 312//11
f 307//139 308//139 313//141
f 313//141 308//139 314//141
f 308//10 315//10 314//10
f 308//10 297//10 315//10
f 313//11 316//11 307//11
f 307//11 316//11 300//11
f 311//140 317//142 309//140
f 317//10 310//10 309//10
f 318//142 317//142 311//140
f 311//11 312//11 318//11
f 313//141 314//141 319//143
f 319//143 314//141 320//143
f 314//10 315//10 320//10
f 319//11 316//11 313//11
f 318//142 321//144 317//142
f 321//10 322//10 317//10
f 317//10 322//10 310//10
f 323//144 321//144 318//142
f 318//11 324//11 323//11
f 318//11 312//11 324//11
f 319//143 320//143 325//145
f 325//145 320//143 326//145
f 320//10 327//10 326//10
f 320//10 315//10 327//10
f 325//11 328//11 319//11
f 319//11 328//11 316//11
f 323//144 329//146 321//144
f 329//10 330//10 321//10
f 321//10 330//10 322//10
f 331//146 329//146 323//144
f 323//11 332//11 331//11
f 323//11 324//11 332//11
f 325//145 326//145 333//147
f 333//147 326//145 334//147
f 326//10 327//10 334//10
f 333//11 328//11 325//11
f 331//146 335//148 329//146
f 335//10 336//10 329//10
f 329//10 336//10 330//10
f 337//148 335//148 331//146
f 331//11 338//11 337//11
f 331//11 332//11 338//11
f 252//38 242//149 251//38
f 252//38 251//38 246//150
f 246//150 251//38 245//150
f 244//149 242//149 252//38
f 244//149 232//151 242//149
f 234//151 232//151 244//149
f 246//150 245//150 304//152
f 304//152 245//150 302//152
f 234//151 220//153 232//151
f 222//153 220//153 234//151
f 304//152 302//152 312//154
f 312//154 302//152 310//154
f 333//147 334//147 339//155
f 339//155 334//147 340//155
f 334//10 341//10 340//10
f 334//10 327//10 341//10
f 339//11 342//11 333//11
f 333//11 342//11 328//11
f 337//148 343//156 335//148
f 335//10 344//10 336//10
f 343//10 344//10 335//10
f 337//11 338//11 345//11
f 346//156 343//156 337//148
f 337//11 345//11 346//11
f 222//153 208//157 220//153
f 210//157 208//157 222//153
f 312//154 310//154 324//158
f 324//158 310//154 322//158
f 210//157 182//159 208//157
f 189//159 182//159 210//157
f 324//158 322//158 332//160
f 332//160 322//158 330//160
f 189//159 183//161 182//159
f 190//161 183//161 189//159
f 332//160 330//160 338//162
f 338//162 330//160 336//162
f 190//161 184//163 183//161
f 191//163 184//163 190//161
f 338//162 336//162 345//164
f 345//164 336//162 344//164
f 339//155 340//155 347//165
f 340//10 341//10 348//10
f 347//165 340//155 349//165
f 340//10 348//10 349//10
f 339//11 350//11 342//11
f 347//11 350//11 339//11
f 346//156 351//166 343//156
f 343//10 352//10 344//10
f 351//10 352//10 343//10
f 346//11 345//11 353//11
f 346//11 353//11 354//11
f 354//166 351//166 346//156
f 299//167 297//168 296//167
f 299//167 296//167 294//169
f 294//169 296//167 293//169
f 300//168 297//168 299//167
f 191//163 185//170 184//163
f 192//170 185//170 191//163
f 345//164 344//164 353//171
f 353//171 344//164 352//171
f 300//168 315//172 297//168
f 316//172 315//172 300//168
f 294//169 293//169 284//173
f 284//173 293//169 283//173
f 316//172 327//174 315//172
f 328//174 327//174 316//172
f 284//173 283//173 276//175
f 276//175 283//173 275//175
f 328//174 341//176 327//174
f 342//176 341//176 328//174
f 276//175 275//175 266//67
f 266//67 275//175 265//67
f 192//170 180//177 185//170
f 187//177 180//177 192//170
f 353//171 352//171 355//178
f 351//10 356//10 352//10
f 355//178 352//171 356//178
f 354//11 353//11 355//11
f 342//176 348//179 341//176
f 350//179 348//179 342//176
f 266//67 265//67 357//180
f 357//180 265//67 358//180
f 358//10 265//10 180//10
f 266//11 357//11 187//11
f 347//165 349//165 359//181
f 349//10 348//10 360//10
f 349//10 360//10 361//10
f 359//181 349//165 361//181
f 347//11 362//11 350//11
f 359//11 362//11 347//11
f 354//166 363//182 351//166
f 363//10 356//10 351//10
f 354//11 355//11 364//11
f 364//182 363//182 354//166
f 350//179 360//183 348//179
f 362//183 360//183 350//179
f 357//180 358//180 365//184
f 180//10 366//10 358//10
f 365//184 358//180 366//184
f 187//11 357//11 365//11
f 187//177 367//185 180//177
f 180//10 368//10 366//10
f 180//10 367//10 369//10
f 369//10 368//10 180//10
f 187//11 365//11 370//11
f 371//185 367//185 187//177
f 372//11 371//11 187//11
f 370//11 373//11 187//11
f 187//11 373//11 374//11
f 187//11 374//11 375//11
f 187//11 375//11 372//11
f 355//178 356//178 376//186
f 376//186 356//178 377//186
f 363//10 377//10 356//10
f 364//11 355//11 376//11
f 362//183 378//187 360//183
f 361//10 360//10 378//10
f 379//187 378//187 362//183
f 359//11 379//11 362//11
f 365//184 366//184 370//188
f 370//188 366//184 368//188
f 371//185 380//82 367//185
f 369//10 367//10 380//10
f 381//82 380//82 371//185
f 372//11 381//11 371//11
f 376//186 377//186 382//83
f 382//83 377//186 383//83
f 384//10 383//10 377//10
f 384//10 377//10 363//10
f 385//11 376//11 382//11
f 364//11 376//11 385//11
f 379//187 386//189 378//187
f 361//10 378//10 387//10
f 387//10 378//10 386//10
f 388//11 379//11 359//11
f 389//189 386//189 379//187
f 388//11 389//11 379//11
f 370//188 368//188 373//190
f 373//190 368//188 390//190
f 369//10 390//10 368//10
f 359//181 361//181 388//191
f 388//191 361//181 387//191
f 389//189 391//192 386//189
f 392//10 386//10 391//10
f 387//10 386//10 392//10
f 393//192 391//192 389//189
f 394//11 393//11 389//11
f 394//11 389//11 388//11
f 373//190 390//190 374//193
f 374//193 390//190 395//193
f 369//10 395//10 390//10
f 381//82 396//194 380//82
f 397//10 380//10 396//10
f 369//10 380//10 398//10
f 398//10 380//10 397//10
f 399//194 396//194 381//82
f 400//11 399//11 381//11
f 401//11 381//11 372//11
f 400//11 381//11 401//11
f 382//83 383//83 402//195
f 402//195 383//83 403//195
f 404//10 403//10 383//10
f 405//10 383//10 384//10
f 406//10 383//10 405//10
f 407//10 383//10 406//10
f 404//10 383//10 407//10
f 408//11 382//11 402//11
f 385//11 382//11 409//11
f 409//11 382//11 410//11
f 410//11 382//11 411//11
f 411//11 382//11 408//11
f 364//182 384//196 363//182
f 385//196 384//196 364//182
f 393//192 412//197 391//192
f 413//10 391//10 412//10
f 392//10 391//10 413//10
f 414//197 412//197 393//192
f 415//11 414//11 393//11
f 415//11 393//11 394//11
f 374//193 395//193 375//198
f 375//198 395//193 416//198
f 416//10 395//10 369//10
f 399//194 417//199 396//194
f 418//10 396//10 417//10
f 397//10 396//10 419//10
f 419//10 396//10 418//10
f 420//199 417//199 399//194
f 421//11 420//11 399//11
f 422//11 399//11 400//11
f 421//11 399//11 422//11
f 402//195 403//195 423//200
f 423//200 403//195 424//200
f 424//10 403//10 404//10
f 408//11 402//11 423//11
f 414//197 425//201 412//197
f 413//10 412//10 425//10
f 426//201 425//201 414//197
f 415//11 426//11 414//11
f 375//198 416//198 427//202
f 427//202 416//198 428//202
f 369//10 428//10 416//10
f 372//11 375//11 427//11
f 420//199 429//203 417//199
f 430//10 417//10 429//10
f 418//10 417//10 431//10
f 431//10 417//10 430//10
f 432//203 429//203 420//199
f 433//11 432//11 420//11
f 434//11 420//11 421//11
f 433//11 420//11 434//11
f 423//200 424//200 435//204
f 435//204 424//200 436//204
f 404//10 436//10 424//10
f 423//11 435//11 408//11
f 388//191 387//191 394//205
f 394//205 387//191 392//205
f 385//196 405//206 384//196
f 409//206 405//206 385//196
f 426//201 437//100 425//201
f 438//10 425//10 437//10
f 413//10 425//10 438//10
f 439//100 437//100 426//201
f 440//11 439//11 426//11
f 440//11 426//11 415//11
f 427//202 428//202 441//207
f 441//207 428//202 442//207
f 369//10 442//10 428//10
f 372//11 427//11 441//11
f 439//100 443//208 437//100
f 444//10 437//10 443//10
f 438//10 437//10 444//10
f 445//208 443//208 439//100
f 446//11 445//11 439//11
f 446//11 439//11 440//11
f 441//207 442//207 447//209
f 447//209 442//207 448//209
f 449//10 448//10 442//10
f 449//10 442//10 369//10
f 450//11 441//11 447//11
f 372//11 441//11 450//11
f 432//203 451//210 429//203
f 452//10 429//10 451//10
f 453//10 429//10 452//10
f 430//10 429//10 453//10
f 454//210 451//210 432//203
f 455//11 454//11 432//11
f 455//11 432//11 456//11
f 456//11 432//11 433//11
f 435//204 436//204 457//211
f 457//211 436//204 458//211
f 404//10 458//10 436//10
f 408//11 435//11 457//11
f 445//208 459//212 443//208
f 444//10 443//10 459//10
f 460//212 459//212 445//208
f 446//11 460//11 445//11
f 447//209 448//209 461//213
f 461//213 448//209 462//213
f 463//10 462//10 448//10
f 463//10 448//10 449//10
f 464//11 447//11 461//11
f 450//11 447//11 464//11
f 460//212 465//214 459//212
f 466//10 459//10 465//10
f 444//10 459//10 466//10
f 467//214 465//214 460//212
f 468//11 467//11 460//11
f 468//11 460//11 446//11
f 461//213 462//213 469//215
f 469//215 462//213 470//215
f 471//10 470//10 462//10
f 471//10 462//10 463//10
f 472//11 461//11 469//11
f 464//11 461//11 472//11
f 467//214 473//216 465//214
f 474//10 465//10 473//10
f 466//10 465//10 474//10
f 475//216 473//216 467//214
f 476//11 475//11 467//11
f 476//11 467//11 468//11
f 469//215 470//215 475//216
f 475//216 470//215 473//216
f 477//10 473//10 470//10
f 477//10 470//10 471//10
f 478//11 469//11 475//11
f 472//11 469//11 478//11
f 454//210 479//217 451//210
f 480//10 451//10 479//10
f 452//10 451//10 480//10
f 481//217 479//217 454//210
f 482//11 481//11 454//11
f 482//11 454//11 455//11
f 457//211 458//211 483//218
f 483//218 458//211 484//218
f 484//10 458//10 404//10
f 408//11 457//11 483//11
f 474//10 473//10 477//10
f 478//11 475//11 476//11
f 394//205 392//205 415//219
f 415//219 392//205 413//219
f 409//206 406//220 405//206
f 410//220 406//220 409//206
f 481//217 485//221 479//217
f 486//10 479//10 485//10
f 480//10 479//10 486//10
f 487//221 485//221 481//217
f 481//11 488//11 487//11
f 488//11 481//11 482//11
f 483//218 484//218 489//222
f 489//222 484//218 490//222
f 404//10 490//10 484//10
f 483//11 489//11 408//11
f 487//221 491//223 485//221
f 492//10 485//10 491//10
f 493//10 485//10 492//10
f 486//10 485//10 493//10
f 494//223 491//223 487//221
f 495//11 494//11 487//11
f 487//11 496//11 495//11
f 487//11 488//11 496//11
f 489//222 490//222 497//224
f 497//224 490//222 498//224
f 404//10 498//10 490//10
f 408//11 489//11 497//11
f 494//223 499//225 491//223
f 492//10 491//10 499//10
f 500//225 499//225 494//223
f 495//11 500//11 494//11
f 497//224 498//224 501//226
f 501//226 498//224 502//226
f 503//10 502//10 498//10
f 503//10 498//10 404//10
f 504//11 497//11 501//11
f 408//11 497//11 504//11
f 415//219 413//219 440//227
f 440//227 413//219 438//227
f 410//220 407//228 406//220
f 411//228 407//228 410//220
f 500//225 505//229 499//225
f 506//10 499//10 505//10
f 492//10 499//10 506//10
f 507//229 505//229 500//225
f 508//11 507//11 500//11
f 508//11 500//11 495//11
f 501//226 502//226 509//230
f 509//230 502//226 510//230
f 503//10 510//10 502//10
f 504//11 501//11 509//11
f 507//229 511//231 505//229
f 512//10 505//10 511//10
f 506//10 505//10 512//10
f 513//231 511//231 507//229
f 514//11 513//11 507//11
f 514//11 507//11 508//11
f 509//230 510//230 515//232
f 515//232 510//230 516//232
f 517//10 516//10 510//10
f 517//10 510//10 503//10
f 518//11 509//11 515//11
f 504//11 509//11 518//11
f 513//231 519//7 511//231
f 520//10 511//10 519//10
f 512//10 511//10 520//10
f 521//7 519//7 513//231
f 522//11 521//11 513//11
f 522//11 513//11 514//11
f 515//232 516//232 521//7
f 521//7 516//232 519//7
f 517//10 519//10 516//10
f 518//11 515//11 521//11
f 520//10 519//10 517//10
f 518//11 521//11 522//11
f 440//227 438//227 446//233
f 446//233 438//227 444//233
f 411//228 404//234 407//228
f 408//234 404//234 411//228
f 446//233 444//233 468//235
f 468//235 444//233 466//235
f 408//234 503//236 404//234
f 504//236 503//236 408//234
f 468//235 466//235 476//237
f 476//237 466//235 474//237
f 504//236 517//238 503//236
f 518//238 517//238 504//236
f 476//237 474//237 478//239
f 478//239 474//237 477//239
f 518//238 520//240 517//238
f 522//240 520//240 518//238
f 478//239 477//239 472//241
f 472//241 477//239 471//241
f 522//240 512//242 520//240
f 514//242 512//242 522//240
f 472//241 471//241 464//243
f 464//243 471//241 463//243
f 514//242 506//244 512//242
f 508//244 506//244 514//242
f 464//243 463//243 450//245
f 450//245 463//243 449//245
f 508//244 492//246 506//244
f 495//246 492//246 508//244
f 450//245 449//245 372//247
f 372//247 449//245 369//247
f 495//246 493//248 492//246
f 496//248 493//248 495//246
f 372//247 369//247 401//249
f 401//249 369//247 398//249
f 496//248 486//250 493//248
f 488//250 486//250 496//248
f 401//249 398//249 400//251
f 400//251 398//249 397//251
f 488//250 480//252 486//250
f 482//252 480//252 488//250
f 400//251 397//251 422//253
f 422//253 397//251 419//253
f 482//252 452//254 480//252
f 455//254 452//254 482//252
f 422//253 419//253 421//255
f 421//255 419//253 418//255
f 455//254 453//256 452//254
f 456//256 453//256 455//254
f 421//255 418//255 434//257
f 434//257 418//255 431//257
f 456//256 430//258 453//256
f 433//258 430//258 456//256
f 434//257 431//257 433//258
f 433//258 431//257 430//258
# Vertices: 514, normals: 252, texture coordinates: 0, faces: 1040

o obj3
v -0.01225 -0.01225 0
v -0.01225 0.01225 -0
v -0.01225 -0.01225 -0.025
v 0.01225 -0.01225 -0.025
v -0.01225 0.01225 -0.025
v 0.01225 0.01225 -0.025
v 0.01225 -0.01225 0
v 0.01225 0.01225 -0
vn -1 0 0
vn 0 -1 0
vn 0 0 -1
vn 0 0 1
vn 0 1 0
vn 1 0 0
usemtl mat1
f 523//259 524//259 525//259
f 526//260 523//260 525//260
f 525//259 524//259 527//259
f 528//261 525//261 527//261
f 526//261 525//261 528//261
f 529//262 524//262 523//262
f 529//260 523//260 526//260
f 524//263 530//263 527//263
f 527//263 530//263 528//263
f 530//262 524//262 529//262
f 528//264 529//264 526//264
f 530//264 529//264 528//264
# Vertices: 8, normals: 6, texture coordinates: 0, faces: 12

