# File generated by ImageToStl.com - Free Image and 3D model conversion tools

mtllib random.mtl

o obj1
v -0.015 0.015 0
v -0.015 -0.015 -0.03
v -0.015 -0.015 0
v -0.01274 -0.015 -0.03
v -0.015 0.015 -0.03
v -0.01274 0.015 -0.03
v -0.01274 -0.015 0
v -0.01274 0.015 0
vn -1 0 0
vn 0 -1 0
vn 0 0 -1
vn 0 0 1
vn 0 1 0
vn 1 0 0
usemtl mat0
f 1//1 2//1 3//1
f 4//2 3//2 2//2
f 5//1 2//1 1//1
f 6//3 2//3 5//3
f 4//3 2//3 6//3
f 7//4 1//4 3//4
f 7//2 3//2 4//2
f 8//5 5//5 1//5
f 6//5 5//5 8//5
f 8//4 1//4 7//4
f 4//6 8//6 7//6
f 6//6 8//6 4//6
# Vertices: 8, normals: 6, texture coordinates: 0, faces: 12

o obj2
v -0.015 -0.015 -0.03
v -0.015 0.015 -0.03
v -0.015 -0.015 -0.04
v 0.015 -0.015 -0.04
v -0.015 0.015 -0.04
v 0.015 0.015 -0.04
v 0.015 -0.015 -0.03
v 0.015 0.015 -0.03
vn -1 0 0
vn 0 -1 0
vn 0 0 -1
vn 0 0 1
vn 0 1 0
vn 1 0 0
usemtl mat0
f 9//7 10//7 11//7
f 12//8 9//8 11//8
f 11//7 10//7 13//7
f 14//9 11//9 13//9
f 12//9 11//9 14//9
f 15//10 10//10 9//10
f 15//8 9//8 12//8
f 10//11 16//11 13//11
f 13//11 16//11 14//11
f 16//10 10//10 15//10
f 14//12 15//12 12//12
f 16//12 15//12 14//12
# Vertices: 8, normals: 6, texture coordinates: 0, faces: 12

o obj3
v 0.01274 -0.015 0
v 0.01274 0.015 0
v 0.01274 -0.015 -0.03
v 0.015 -0.015 -0.03
v 0.01274 0.015 -0.03
v 0.015 0.015 -0.03
v 0.015 -0.015 0
v 0.015 0.015 0
vn -1 0 0
vn 0 -1 0
vn 0 0 -1
vn 0 0 1
vn 0 1 0
vn 1 0 0
usemtl mat1
f 17//13 18//13 19//13
f 19//14 20//14 17//14
f 19//13 18//13 21//13
f 21//15 22//15 19//15
f 19//15 22//15 20//15
f 17//16 23//16 18//16
f 17//14 20//14 23//14
f 18//17 24//17 21//17
f 21//17 24//17 22//17
f 18//16 23//16 24//16
f 20//18 22//18 23//18
f 23//18 22//18 24//18
# Vertices: 8, normals: 6, texture coordinates: 0, faces: 12

o obj4
v -0.01274 -0.015 -0.03
v -0.01274 -0.015 0
v -0.01274 -0.01274 -0.03
v 0.01274 -0.015 -0.03
v 0.01274 -0.01274 -0.03
v -0.01274 -0.01274 0
v 0.01274 -0.015 0
v 0.01274 -0.01274 0
vn -1 0 0
vn 0 -1 0
vn 0 0 -1
vn 0 0 1
vn 0 1 0
vn 1 0 0
usemtl mat2
f 25//19 26//19 27//19
f 25//20 28//20 26//20
f 27//21 29//21 25//21
f 25//21 29//21 28//21
f 27//19 26//19 30//19
f 26//22 31//22 30//22
f 26//20 28//20 31//20
f 30//23 32//23 27//23
f 27//23 32//23 29//23
f 30//22 31//22 32//22
f 28//24 32//24 31//24
f 29//24 32//24 28//24
# Vertices: 8, normals: 6, texture coordinates: 0, faces: 12

o obj5
v -0.01274 0.01274 -0.03
v -0.01274 0.01274 0
v -0.01274 0.015 -0.03
v 0.01274 0.01274 -0.03
v 0.01274 0.015 -0.03
v -0.01274 0.015 0
v 0.01274 0.01274 0
v 0.01274 0.015 0
vn -1 0 0
vn 0 -1 0
vn 0 0 -1
vn 0 0 1
vn 0 1 0
vn 1 0 0
usemtl mat3
f 33//25 34//25 35//25
f 36//26 34//26 33//26
f 35//27 37//27 33//27
f 33//27 37//27 36//27
f 35//25 34//25 38//25
f 34//28 39//28 38//28
f 39//26 34//26 36//26
f 38//29 40//29 35//29
f 35//29 40//29 37//29
f 38//28 39//28 40//28
f 36//30 40//30 39//30
f 37//30 40//30 36//30
# Vertices: 8, normals: 6, texture coordinates: 0, faces: 12

