# File generated by ImageToStl.com - Free Image and 3D model conversion tools

mtllib random.mtl

o obj1
v 0.0125 0.0125 -0
v -0.0125 0.0125 -0
v 0.0125 -0.0125 0
v -0.0125 -0.0125 0
v -0.0125 0.0125 -0.025
v 0.0125 0.0125 -0.025
v -0.0125 -0.0125 -0.025
v 0.0125 -0.0125 -0.025
vn 0 0 1
vn 0 1 -0
vn -1 0 -0
vn 0 -1 0
vn 1 0 0
vn 0 0 -1
usemtl mat1
f 1//1 2//1 3//1
f 3//1 2//1 4//1
f 2//2 1//2 5//2
f 5//2 1//2 6//2
f 4//3 2//3 7//3
f 7//3 2//3 5//3
f 3//4 4//4 8//4
f 8//4 4//4 7//4
f 1//5 3//5 6//5
f 6//5 3//5 8//5
f 8//6 7//6 6//6
f 6//6 7//6 5//6
# Vertices: 8, normals: 6, texture coordinates: 0, faces: 12

