# File generated by ImageToStl.com - Free Image and 3D model conversion tools

mtllib random.mtl

o obj1
v -0.013 -0.013 0.01
v -0.013 0.013 0.01
v -0.013 -0.013 0
v 0.013 -0.013 0
v -0.013 0.013 -0
v 0.013 0.013 -0
v 0.013 -0.013 0.01
v 0.013 0.013 0.01
vn -1 0 0
vn 0 -1 0
vn 0 -0 -1
vn 0 0 1
vn 0 1 0
vn 1 0 0
usemtl mat0
f 1//1 2//1 3//1
f 4//2 1//2 3//2
f 3//1 2//1 5//1
f 6//3 3//3 5//3
f 4//3 3//3 6//3
f 1//4 7//4 2//4
f 7//2 1//2 4//2
f 2//5 8//5 5//5
f 5//5 8//5 6//5
f 2//4 7//4 8//4
f 6//6 7//6 4//6
f 8//6 7//6 6//6
# Vertices: 8, normals: 6, texture coordinates: 0, faces: 12

o obj2
v -0.0125 -0.0125 0
v -0.0125 0.0125 -0
v -0.0125 -0.0125 -0.025
v 0.0125 -0.0125 -0.025
v -0.0125 0.0125 -0.025
v 0.0125 0.0125 -0.025
v 0.0125 -0.0125 0
v 0.0125 0.0125 -0
vn -1 0 0
vn 0 -1 0
vn 0 0 -1
vn 0 0 1
vn 0 1 0
vn 1 0 0
usemtl mat1
f 9//7 10//7 11//7
f 12//8 9//8 11//8
f 11//7 10//7 13//7
f 14//9 11//9 13//9
f 12//9 11//9 14//9
f 15//10 10//10 9//10
f 15//8 9//8 12//8
f 10//11 16//11 13//11
f 13//11 16//11 14//11
f 16//10 10//10 15//10
f 14//12 15//12 12//12
f 16//12 15//12 14//12
# Vertices: 8, normals: 6, texture coordinates: 0, faces: 12

o obj3
v -0.035 0 0.02
v -0.035 0 0.01
v -0.03493736 -0.00209315 0.02
v -0.03493736 0.00209315 0.01
v -0.03493736 -0.00209315 0.01
v -0.0191904 -0.01174304 0.01
v -0.0191904 -0.01174304 0.02
v -0.03493736 0.00209315 0.02
v -0.03474964 -0.0041788 0.02
v -0.03474964 -0.0041788 0.01
v -0.01999249 -0.01204221 0.01
v -0.01999249 -0.01204221 0.02
v -0.03474964 0.0041788 0.01
v -0.01813404 0.01431245 0.01
v -0.01835389 -0.01156107 0.01
v -0.03474964 0.0041788 0.02
v -0.01813404 0.01431245 0.02
v -0.01835389 -0.01156107 0.02
v -0.03443754 -0.00624949 0.02
v -0.03443754 -0.00624949 0.01
v -0.02074385 -0.01245248 0.01
v -0.02074385 -0.01245248 0.02
v -0.03443754 0.00624949 0.01
v -0.01874372 0.01449739 0.01
v -0.03443754 0.00624949 0.02
v -0.01874372 0.01449739 0.02
v -0.03400215 -0.00829781 0.02
v -0.03400215 -0.00829781 0.01
v -0.03400215 0.00829781 0.01
v -0.03400215 0.00829781 0.02
v -0.03344505 -0.01031643 0.02
v -0.03344505 -0.01031643 0.01
v -0.02142916 -0.0129655 0.01
v -0.02142916 -0.0129655 0.02
v -0.03344505 0.01031643 0.01
v -0.0193056 0.01479772 0.01
v -0.03344505 0.01031643 0.02
v -0.0193056 0.01479772 0.02
v -0.03276822 -0.01229812 0.02
v -0.03276822 -0.01229812 0.01
v -0.0220345 -0.01357084 0.01
v -0.0220345 -0.01357084 0.02
v -0.03276822 0.01229812 0.01
v -0.0197981 0.0152019 0.01
v -0.03276822 0.01229812 0.02
v -0.0197981 0.0152019 0.02
v -0.03197409 -0.01423578 0.02
v -0.03197409 -0.01423578 0.01
v -0.02254752 -0.01425616 0.01
v -0.02254752 -0.01425616 0.02
v -0.03197409 0.01423578 0.01
v -0.03197409 0.01423578 0.02
v -0.0310655 -0.01612249 0.02
v -0.0310655 -0.01612249 0.01
v -0.02295779 -0.01500751 0.01
v -0.02295779 -0.01500751 0.02
v -0.0310655 0.01612249 0.01
v -0.02020228 0.0156944 0.01
v -0.0310655 0.01612249 0.02
v -0.02020228 0.0156944 0.02
v -0.03004571 -0.01795148 0.02
v -0.03004571 -0.01795148 0.01
v -0.02325696 -0.0158096 0.01
v -0.02325696 -0.0158096 0.02
v -0.03004571 0.01795148 0.01
v -0.02050261 0.01625628 0.01
v -0.03004571 0.01795148 0.02
v -0.02050261 0.01625628 0.02
v -0.02891836 -0.0197162 0.02
v -0.02891836 -0.0197162 0.01
v -0.0235 -0.0175 0.01
v -0.02343893 -0.01664611 0.01
v -0.0235 -0.0175 0.02
v -0.02343893 -0.01664611 0.02
v -0.02891836 0.0197162 0.01
v -0.02068755 0.01686596 0.01
v -0.02891836 0.0197162 0.02
v -0.02068755 0.01686596 0.02
v -0.02768749 -0.02141035 0.02
v -0.02768749 -0.02141035 0.01
v -0.02343893 -0.01835389 0.01
v -0.02343893 -0.01835389 0.02
v -0.02768749 0.02141035 0.01
v -0.02075 0.0175 0.01
v -0.02768749 0.02141035 0.02
v -0.02075 0.0175 0.02
v -0.0263575 -0.02302786 0.02
v -0.0263575 -0.02302786 0.01
v -0.02295779 -0.01999249 0.01
v -0.02325696 -0.0191904 0.01
v -0.02295779 -0.01999249 0.02
v -0.02325696 -0.0191904 0.02
v -0.0263575 0.02302786 0.01
v -0.0175 0.02075 0.01
v -0.02068755 0.01813404 0.01
v -0.02050261 0.01874372 0.01
v -0.02020228 0.0193056 0.01
v -0.0197981 0.0197981 0.01
v -0.0193056 0.02020228 0.01
v -0.01874372 0.02050261 0.01
v -0.01813404 0.02068755 0.01
v -0.0263575 0.02302786 0.02
v -0.0175 0.02075 0.02
v -0.02068755 0.01813404 0.02
v -0.02050261 0.01874372 0.02
v -0.02020228 0.0193056 0.02
v -0.0197981 0.0197981 0.02
v -0.0193056 0.02020228 0.02
v -0.01874372 0.02050261 0.02
v -0.01813404 0.02068755 0.02
v -0.02493316 -0.02456293 0.02
v -0.02493316 -0.02456293 0.01
v -0.02254752 -0.02074385 0.01
v -0.02254752 -0.02074385 0.02
v -0.02493316 0.02456293 0.01
v -0.02493316 0.02456293 0.02
v -0.02341957 -0.02601007 0.02
v -0.02341957 -0.02601007 0.01
v -0.02142916 -0.0220345 0.01
v -0.0220345 -0.02142916 0.01
v -0.02142916 -0.0220345 0.02
v -0.0220345 -0.02142916 0.02
v -0.02341957 0.02601007 0.01
v -0.02341957 0.02601007 0.02
v -0.02182214 -0.0273641 0.02
v -0.02182214 -0.0273641 0.01
v -0.01999249 -0.02295779 0.01
v -0.02074385 -0.02254752 0.01
v -0.01999249 -0.02295779 0.02
v -0.02074385 -0.02254752 0.02
v -0.02182214 0.0273641 0.01
v -0.02182214 0.0273641 0.02
v -0.0201466 -0.02862018 0.02
v -0.0201466 -0.02862018 0.01
v -0.0191904 -0.02325696 0.01
v -0.0191904 -0.02325696 0.02
v -0.0201466 0.02862018 0.01
v -0.0201466 0.02862018 0.02
v -0.01839893 -0.0297738 0.02
v -0.01835389 -0.02343893 0.01
v -0.01839893 -0.0297738 0.01
v -0.0175 -0.0235 0.01
v -0.01835389 -0.02343893 0.02
v -0.0175 -0.0235 0.02
v -0.01839893 0.0297738 0.01
v -0.01839893 0.0297738 0.02
v -0.0165854 -0.03082084 0.02
v -0.01664611 -0.02343893 0.01
v -0.0165854 -0.03082084 0.01
v -0.01664611 -0.02343893 0.02
v -0.0165854 0.03082084 0.01
v -0.01686596 0.02068755 0.01
v -0.01625628 0.02050261 0.01
v -0.01686596 0.02068755 0.02
v -0.01625628 0.02050261 0.02
v -0.0165854 0.03082084 0.02
v -0.0175 -0.0115 0.02
v -0.0175 0.01425 0.01
v -0.0175 -0.0115 0.01
v -0.0175 0.01425 0.02
v -0.01664611 -0.01156107 0.02
v -0.01664611 -0.01156107 0.01
v -0.01686596 0.01431245 0.01
v -0.01686596 0.01431245 0.02
v -0.01625628 0.01449739 0.01
v -0.01625628 0.01449739 0.02
v -0.0158096 -0.02325696 0.01
v -0.0158096 -0.02325696 0.02
v -0.0158096 -0.01174304 0.02
v -0.0156944 0.01479772 0.01
v -0.0158096 -0.01174304 0.01
v 0.0158096 0.01174304 0.01
v -0.0152019 0.0152019 0.01
v 0.0129655 0.01357084 0.01
v 0.01357084 0.0129655 0.01
v 0.01425616 0.01245248 0.01
v 0.01500751 0.01204221 0.01
v -0.0156944 0.01479772 0.02
v 0.0158096 0.01174304 0.02
v -0.0152019 0.0152019 0.02
v 0.0129655 0.01357084 0.02
v 0.01357084 0.0129655 0.02
v 0.01425616 0.01245248 0.02
v 0.01500751 0.01204221 0.02
v -0.0147125 -0.03175756 0.02
v -0.01500751 -0.02295779 0.01
v -0.0147125 -0.03175756 0.01
v -0.01500751 -0.02295779 0.02
v -0.0147125 0.03175756 0.01
v -0.0156944 0.02020228 0.01
v -0.0156944 0.02020228 0.02
v -0.0147125 0.03175756 0.02
v -0.01500751 -0.01204221 0.02
v -0.01500751 -0.01204221 0.01
v -0.0152019 0.0197981 0.02
v -0.0152019 0.0197981 0.01
v -0.01278694 0.03258058 0.01
v -0.01278694 0.03258058 0.02
v -0.01479772 0.0156944 0.01
v 0.01245248 0.01425616 0.01
v -0.01479772 0.0156944 0.02
v 0.01245248 0.01425616 0.02
v -0.01479772 0.0193056 0.02
v -0.01479772 0.0193056 0.01
v -0.01081559 0.03328698 0.01
v -0.01081559 0.03328698 0.02
v -0.01425616 -0.02254752 0.01
v -0.01425616 -0.02254752 0.02
v -0.01425616 -0.01245248 0.02
v -0.01425616 -0.01245248 0.01
v -0.01449739 0.01625628 0.01
v 0.01204221 0.01500751 0.01
v -0.01449739 0.01625628 0.02
v 0.01204221 0.01500751 0.02
v -0.01449739 0.01874372 0.02
v -0.01449739 0.01874372 0.01
v -0.00676396 0.03434019 0.01
v -0.00880554 0.03387422 0.01
v -0.00676396 0.03434019 0.02
v -0.00880554 0.03387422 0.02
v -0.01278694 -0.03258058 0.02
v -0.01278694 -0.03258058 0.01
v -0.01431245 0.01686596 0.01
v 0.01174304 0.0158096 0.01
v -0.01431245 0.01686596 0.02
v 0.01174304 0.0158096 0.02
v -0.01431245 0.01813404 0.02
v -0.01431245 0.01813404 0.01
v -0.00261555 0.03490213 0.01
v -0.00469816 0.03468324 0.01
v -0.00261555 0.03490213 0.02
v -0.00469816 0.03468324 0.02
v -0.01425 0.0175 0.01
v 0.01156107 0.01664611 0.01
v -0.01425 0.0175 0.02
v 0.01156107 0.01664611 0.02
v 0.01156107 0.01835389 0.01
v 0.01156107 0.01835389 0.02
v -0.01357084 -0.0220345 0.01
v -0.01357084 -0.0220345 0.02
v -0.01357084 -0.0129655 0.02
v -0.01357084 -0.0129655 0.01
v 0.0115 0.0175 0.01
v 0.0115 0.0175 0.02
v -0.0129655 -0.02142916 0.01
v -0.01081559 -0.03328698 0.01
v -0.0129655 -0.02142916 0.02
v -0.01081559 -0.03328698 0.02
v -0.0129655 -0.01357084 0.02
v -0.0129655 -0.01357084 0.01
v -0.01245248 -0.02074385 0.01
v -0.00880554 -0.03387422 0.01
v -0.01245248 -0.02074385 0.02
v -0.00880554 -0.03387422 0.02
v -0.01245248 -0.01425616 0.02
v -0.01245248 -0.01425616 0.01
v 0.0152019 -0.0152019 0.01
v 0.0152019 -0.0152019 0.02
v -0.01204221 -0.01999249 0.01
v -0.00469816 -0.03468324 0.01
v -0.00676396 -0.03434019 0.01
v -0.01204221 -0.01999249 0.02
v -0.00469816 -0.03468324 0.02
v -0.00676396 -0.03434019 0.02
v -0.01204221 -0.01500751 0.02
v -0.01204221 -0.01500751 0.01
v 0.01479772 -0.0156944 0.01
v 0.01479772 -0.0156944 0.02
v -0.01174304 -0.0191904 0.01
v -0.00261555 -0.03490213 0.01
v -0.01174304 -0.0191904 0.02
v -0.00261555 -0.03490213 0.02
v -0.01174304 -0.0158096 0.02
v -0.01174304 -0.0158096 0.01
v 0.01449739 -0.01625628 0.01
v 0.01449739 -0.01625628 0.02
v -0.01156107 -0.01835389 0.01
v 0.00157027 -0.03496476 0.01
v -0.00052358 -0.03499608 0.01
v -0.01156107 -0.01835389 0.02
v 0.00157027 -0.03496476 0.02
v -0.00052358 -0.03499608 0.02
v -0.01156107 -0.01664611 0.02
v -0.01156107 -0.01664611 0.01
v 0.01431245 -0.01686596 0.01
v 0.01431245 -0.01686596 0.02
v -0.0115 -0.0175 0.01
v 0.01425 -0.0175 0.01
v 0.01431245 -0.01813404 0.01
v -0.0115 -0.0175 0.02
v 0.01425 -0.0175 0.02
v 0.01431245 -0.01813404 0.02
v -0.00052358 0.03499608 0.01
v 0.01174304 0.0191904 0.01
v -0.00052358 0.03499608 0.02
v 0.01174304 0.0191904 0.02
v 0.00157027 0.03496476 0.01
v 0.00157027 0.03496476 0.02
v 0.0036585 -0.03480827 0.02
v 0.0036585 -0.03480827 0.01
v 0.0036585 0.03480827 0.01
v 0.01204221 0.01999249 0.01
v 0.0036585 0.03480827 0.02
v 0.01204221 0.01999249 0.02
v 0.00573363 -0.03452717 0.02
v 0.00573363 -0.03452717 0.01
v 0.01449739 -0.01874372 0.01
v 0.01449739 -0.01874372 0.02
v 0.00573363 0.03452717 0.01
v 0.00573363 0.03452717 0.02
v 0.00778823 -0.03412248 0.02
v 0.00778823 -0.03412248 0.01
v 0.00778823 0.03412248 0.01
v 0.01245248 0.02074385 0.01
v 0.00778823 0.03412248 0.02
v 0.01245248 0.02074385 0.02
v 0.00981496 -0.03359563 0.02
v 0.00981496 -0.03359563 0.01
v 0.01479772 -0.0193056 0.01
v 0.01479772 -0.0193056 0.02
v 0.00981496 0.03359563 0.01
v 0.0129655 0.02142916 0.01
v 0.00981496 0.03359563 0.02
v 0.0129655 0.02142916 0.02
v 0.01180655 -0.03294853 0.02
v 0.01180655 -0.03294853 0.01
v 0.01180655 0.03294853 0.01
v 0.01357084 0.0220345 0.01
v 0.01180655 0.03294853 0.02
v 0.01357084 0.0220345 0.02
v 0.01375588 -0.03218347 0.02
v 0.01375588 -0.03218347 0.01
v 0.0152019 -0.0197981 0.01
v 0.0152019 -0.0197981 0.02
v 0.01375588 0.03218347 0.01
v 0.01425616 0.02254752 0.01
v 0.01425616 0.02254752 0.02
v 0.01375588 0.03218347 0.02
v 0.01565596 -0.03130321 0.02
v 0.0156944 -0.02020228 0.01
v 0.01565596 -0.03130321 0.01
v 0.0156944 -0.02020228 0.02
v 0.01565596 0.03130321 0.01
v 0.01500751 0.02295779 0.01
v 0.01500751 0.02295779 0.02
v 0.01565596 0.03130321 0.02
v 0.0158096 0.02325696 0.02
v 0.0158096 0.02325696 0.01
v 0.0156944 -0.01479772 0.02
v 0.0156944 -0.01479772 0.01
v 0.0175 -0.03031089 0.02
v 0.01625628 -0.02050261 0.01
v 0.0175 -0.03031089 0.01
v 0.01625628 -0.02050261 0.02
v 0.0175 0.03031089 0.01
v 0.0175 0.03031089 0.02
v 0.01625628 -0.01449739 0.02
v 0.01625628 -0.01449739 0.01
v 0.01664611 0.01156107 0.01
v 0.01686596 -0.01431245 0.01
v 0.03312146 -0.01131234 0.01
v 0.01686596 -0.01431245 0.02
v 0.01664611 0.01156107 0.02
v 0.03312146 -0.01131234 0.02
v 0.0175 -0.01425 0.02
v 0.01813404 -0.01431245 0.02
v 0.01874372 -0.01449739 0.02
v 0.01664611 0.02343893 0.02
v 0.01664611 0.02343893 0.01
v 0.01686596 -0.02068755 0.01
v 0.01686596 -0.02068755 0.02
v 0.0175 0.0115 0.01
v 0.0175 0.0115 0.02
v 0.0175 0.0235 0.02
v 0.0175 0.0235 0.01
v 0.01928139 0.02921006 0.01
v 0.01928139 0.02921006 0.02
v 0.0175 -0.02075 0.01
v 0.01928139 -0.02921006 0.01
v 0.01928139 -0.02921006 0.02
v 0.0175 -0.02075 0.02
v 0.0175 -0.01425 0.01
v 0.01813404 -0.02068755 0.01
v 0.02099377 -0.02800467 0.01
v 0.01813404 -0.02068755 0.02
v 0.02099377 -0.02800467 0.02
v 0.01813404 -0.01431245 0.01
v 0.01835389 0.01156107 0.01
v 0.03423516 -0.00727691 0.01
v 0.0337387 -0.00931129 0.01
v 0.01835389 0.01156107 0.02
v 0.03423516 -0.00727691 0.02
v 0.0337387 -0.00931129 0.02
v 0.01835389 0.02343893 0.02
v 0.01835389 0.02343893 0.01
v 0.02565682 0.02380605 0.01
v 0.02099377 0.02800467 0.01
v 0.02263099 0.02669903 0.01
v 0.02418719 0.02529782 0.01
v 0.02565682 0.02380605 0.02
v 0.02099377 0.02800467 0.02
v 0.02263099 0.02669903 0.02
v 0.02418719 0.02529782 0.02
v 0.01874372 -0.02050261 0.01
v 0.02263099 -0.02669903 0.01
v 0.01874372 -0.02050261 0.02
v 0.02263099 -0.02669903 0.02
v 0.01874372 -0.01449739 0.01
v 0.0191904 0.01174304 0.01
v 0.0348591 -0.00313738 0.01
v 0.03460908 -0.00521648 0.01
v 0.0191904 0.01174304 0.02
v 0.0348591 -0.00313738 0.02
v 0.03460908 -0.00521648 0.02
v 0.0191904 0.02325696 0.02
v 0.0191904 0.02325696 0.01
v 0.0193056 -0.02020228 0.01
v 0.0193056 -0.02020228 0.02
v 0.0193056 -0.01479772 0.02
v 0.0193056 -0.01479772 0.01
v 0.01999249 0.01204221 0.01
v 0.03498434 0.00104704 0.01
v 0.03498434 -0.00104704 0.01
v 0.01999249 0.01204221 0.02
v 0.03498434 0.00104704 0.02
v 0.03498434 -0.00104704 0.02
v 0.01999249 0.02295779 0.02
v 0.01999249 0.02295779 0.01
v 0.0197981 -0.0197981 0.01
v 0.02418719 -0.02529782 0.01
v 0.0197981 -0.0197981 0.02
v 0.02418719 -0.02529782 0.02
v 0.0197981 -0.0152019 0.02
v 0.0197981 -0.0152019 0.01
v 0.02020228 -0.0193056 0.01
v 0.02565682 -0.02380605 0.01
v 0.02020228 -0.0193056 0.02
v 0.02565682 -0.02380605 0.02
v 0.02020228 -0.0156944 0.02
v 0.02020228 -0.0156944 0.01
v 0.03238565 -0.01327289 0.01
v 0.03238565 -0.01327289 0.02
v 0.02074385 0.01245248 0.01
v 0.03460908 0.00521648 0.01
v 0.0348591 0.00313738 0.01
v 0.02074385 0.01245248 0.02
v 0.03460908 0.00521648 0.02
v 0.0348591 0.00313738 0.02
v 0.02074385 0.02254752 0.02
v 0.02074385 0.02254752 0.01
v 0.02050261 -0.01874372 0.01
v 0.02050261 -0.01874372 0.02
v 0.02050261 -0.01625628 0.02
v 0.02050261 -0.01625628 0.01
v 0.03153391 -0.01518593 0.01
v 0.03153391 -0.01518593 0.02
v 0.02068755 -0.01813404 0.01
v 0.02703459 -0.02222905 0.01
v 0.02068755 -0.01813404 0.02
v 0.02703459 -0.02222905 0.02
v 0.02068755 -0.01686596 0.02
v 0.02068755 -0.01686596 0.01
v 0.03056929 -0.01704461 0.01
v 0.03056929 -0.01704461 0.02
v 0.02075 -0.0175 0.01
v 0.02831559 -0.02057248 0.01
v 0.02075 -0.0175 0.02
v 0.02831559 -0.02057248 0.02
v 0.02949523 -0.01884227 0.01
v 0.02949523 -0.01884227 0.02
v 0.02142916 0.0129655 0.01
v 0.03423516 0.00727691 0.01
v 0.02142916 0.0129655 0.02
v 0.03423516 0.00727691 0.02
v 0.02142916 0.0220345 0.02
v 0.02142916 0.0220345 0.01
v 0.0220345 0.01357084 0.01
v 0.0337387 0.00931129 0.01
v 0.0220345 0.01357084 0.02
v 0.0337387 0.00931129 0.02
v 0.0220345 0.02142916 0.02
v 0.0220345 0.02142916 0.01
v 0.02254752 0.01425616 0.01
v 0.03238565 0.01327289 0.01
v 0.03312146 0.01131234 0.01
v 0.02254752 0.01425616 0.02
v 0.03238565 0.01327289 0.02
v 0.03312146 0.01131234 0.02
v 0.02254752 0.02074385 0.02
v 0.02254752 0.02074385 0.01
v 0.02295779 0.01500751 0.01
v 0.02295779 0.01500751 0.02
v 0.02295779 0.01999249 0.02
v 0.02295779 0.01999249 0.01
v 0.02703459 0.02222905 0.01
v 0.02703459 0.02222905 0.02
v 0.02325696 0.0158096 0.01
v 0.03153391 0.01518593 0.01
v 0.02325696 0.0158096 0.02
v 0.03153391 0.01518593 0.02
v 0.02325696 0.0191904 0.02
v 0.02325696 0.0191904 0.01
v 0.02343893 0.01664611 0.01
v 0.03056929 0.01704461 0.01
v 0.02343893 0.01664611 0.02
v 0.03056929 0.01704461 0.02
v 0.02343893 0.01835389 0.02
v 0.02343893 0.01835389 0.01
v 0.02831559 0.02057248 0.01
v 0.02831559 0.02057248 0.02
v 0.0235 0.0175 0.01
v 0.02949523 0.01884227 0.01
v 0.0235 0.0175 0.02
v 0.02949523 0.01884227 0.02
vn -1 0 0
vn -0.99821 -0.0598 0
vn -0.99821 0.0598 -0
vn 0 0 -1
vn 0 0 1
vn -0.99285 -0.11939 0
vn -0.99285 0.11939 0
vn -0.98393 -0.17856 0
vn -0.98393 0.17856 0
vn -0.97149 -0.23708 0
vn -0.97149 0.23708 0
vn -0.95557 -0.29476 0
vn -0.95557 0.29476 0
vn -0.93623 -0.35137 0
vn -0.93623 0.35137 0
vn -0.91355 -0.40674 0
vn -0.91355 0.40674 0
vn -0.88759 -0.46064 0
vn -0.88759 0.46064 0
vn -0.85845 -0.5129 0
vn -0.85845 0.5129 0
vn -0.82624 -0.56332 0
vn -0.82624 0.56332 0
vn -0.79107 -0.61172 0
vn -0.79107 0.61172 0
vn -0.75307 -0.65794 0
vn -0.75307 0.65794 0
vn -0.71238 -0.7018 0
vn -0.71238 0.7018 0
vn -0.66913 -0.74314 0
vn -0.66913 0.74314 0
vn 1 0 0
vn 0.98982 0.14231 0
vn 0.98982 -0.14231 0
vn 0.95949 0.28173 0
vn 0.95949 -0.28173 0
vn -0.62349 -0.78183 0
vn -0.62349 0.78183 0
vn 0.90963 0.41541 0
vn 0.90963 -0.41542 0
vn 0.84125 0.54064 0
vn 0.84125 -0.54064 0
vn 0.75575 0.65486 0
vn 0.75575 -0.65486 0
vn 0.65486 0.75575 0
vn 0.65486 -0.75575 0
vn -0.57562 -0.81772 0
vn -0.57562 0.81772 0
vn 0.54064 0.84125 0
vn 0.54064 -0.84125 0
vn 1 -0 0
vn 0.98079 0.19509 0
vn 0.98079 -0.19509 0
vn 0.41541 0.90963 0
vn 0.41541 -0.90963 0
vn 0.92388 0.38268 0
vn 0.92388 -0.38268 0
vn 0.83147 0.55557 0
vn 0.83147 -0.55557 0
vn 0.70711 0.70711 0
vn 0.70711 -0.70711 0
vn -0.52568 -0.85068 0
vn -0.52568 0.85068 0
vn 0.28173 0.95949 0
vn 0.28173 -0.95949 0
vn 0.55557 0.83147 0
vn 0.55557 -0.83147 0
vn 0.38268 0.92388 0
vn 0.38268 -0.92388 0
vn 0.14231 0.98982 0
vn 0.14232 -0.98982 0
vn 0.19509 0.98079 0
vn 0.19509 -0.98079 0
vn -0.47387 -0.8806 0
vn -0.47387 0.8806 0
vn 0 1 0
vn 0 -1 0
vn 0 1 0
vn 0 -1 0
vn -0.14231 0.98982 0
vn -0.14232 -0.98982 0
vn -0.19509 0.98079 0
vn -0.19509 -0.98079 0
vn -0.38268 0.92388 0
vn -0.38268 -0.92388 0
vn -0.28173 0.95949 0
vn -0.28173 -0.95949 0
vn -0.42036 -0.90736 0
vn -0.42036 0.90736 0
vn -0.55557 0.83147 0
vn -0.55557 -0.83147 0
vn -0.41542 0.90963 0
vn -0.41541 -0.90963 0
vn -0.70711 0.70711 0
vn -0.70711 -0.70711 0
vn -0.83147 0.55557 0
vn -0.83147 -0.55557 0
vn -0.54064 0.84125 0
vn -0.54064 -0.84125 0
vn -0.92388 0.38268 0
vn -0.92388 -0.38268 0
vn -0.36534 -0.93087 0
vn -0.36534 0.93087 0
vn -0.98079 0.19509 0
vn -0.98079 -0.19509 0
vn -1 -0 0
vn -0.65486 0.75575 0
vn -0.65486 -0.75575 0
vn -0.75575 0.65486 0
vn -0.75575 -0.65486 0
vn -0.84125 0.54064 0
vn -0.84125 -0.54064 0
vn -0.30902 -0.95106 0
vn -0.30902 0.95106 0
vn -0.90963 0.41541 0
vn -0.90963 -0.41541 0
vn -0.95949 0.28173 0
vn -0.95949 -0.28173 0
vn -0.98982 0.14232 0
vn -0.98982 -0.14232 0
vn -0.25159 -0.96783 0
vn -0.25159 0.96783 0
vn -0.19326 -0.98115 0
vn -0.19326 0.98115 0
vn -0.13423 -0.99095 0
vn -0.13423 0.99095 0
vn -0.07473 -0.9972 0
vn -0.07473 0.9972 0
vn -0.01496 -0.99989 0
vn -0.01496 0.99989 0
vn 0.04487 -0.99899 0
vn 0.04487 0.99899 0
vn 0.10453 -0.99452 0
vn 0.10453 0.99452 0
vn 0.16382 -0.98649 0
vn 0.16382 0.98649 0
vn 0.22252 -0.97493 0
vn 0.22252 0.97493 0
vn 0.28043 -0.95988 0
vn 0.28043 0.95988 0
vn 0.33733 -0.94139 0
vn 0.33733 0.94139 0
vn 0.98982 0.14232 0
vn 0.98982 -0.14232 0
vn 0.95949 0.28173 0
vn 0.95949 -0.28173 0
vn 0.90963 0.41541 0
vn 0.90963 -0.41541 0
vn 0.39303 -0.91953 0
vn 0.39303 0.91953 0
vn 0.84125 0.54064 0
vn 0.84125 -0.54064 0
vn 0.75575 0.65486 0
vn 0.75575 -0.65486 0
vn 0.65486 0.75575 0
vn 0.65486 -0.75575 0
vn 0.54064 0.84125 0
vn 0.54064 -0.84125 0
vn 0.44731 -0.89438 0
vn 0.44731 0.89438 0
vn 1 0 0
vn 0.98079 0.19509 0
vn 0.98079 -0.19509 0
vn 0.41541 0.90963 0
vn 0.41542 -0.90963 0
vn 0.92388 0.38268 0
vn 0.92388 -0.38268 0
vn 0.83147 0.55557 0
vn 0.83147 -0.55557 0
vn 0.70711 0.70711 0
vn 0.28173 0.95949 0
vn 0.28173 -0.95949 0
vn 0.55557 0.83147 0
vn 0.55557 -0.83147 0
vn 0.5 -0.86603 0
vn 0.5 0.86603 0
vn 0.38268 0.92388 0
vn 0.38268 -0.92388 0
vn 0.14232 0.98982 0
vn 0.14231 -0.98982 0
vn 0.19509 0.98079 0
vn 0.19509 -0.98079 0
vn -0 1 0
vn -0 -1 0
vn 0.5509 -0.83457 0
vn -0.19509 0.98079 0
vn -0.19509 -0.98079 0
vn -0.14232 0.98982 0
vn -0.14231 -0.98982 0
vn 0.5509 0.83457 0
vn -0.38268 0.92388 0
vn -0.38268 -0.92388 0
vn -0.28173 0.95949 0
vn -0.28173 -0.95949 0
vn -0.55557 0.83147 0
vn -0.55557 -0.83147 0
vn -0.41541 0.90963 0
vn -0.41541 -0.90963 0
vn 0.59982 -0.80013 0
vn 0.59982 0.80013 0
vn -0.70711 -0.70711 0
vn -0.83147 0.55557 0
vn -0.83147 -0.55557 0
vn -0.54064 0.84125 0
vn -0.54064 -0.84125 0
vn -0.92388 0.38268 0
vn -0.92388 -0.38268 0
vn -0.98079 0.19509 0
vn -0.98079 -0.19509 0
vn -1 0 0
vn -0.65486 0.75575 0
vn -0.65486 -0.75575 0
vn 0.6466 -0.76283 0
vn 0.6466 0.76283 0
vn -0.75575 0.65486 0
vn -0.75575 -0.65486 0
vn -0.84125 0.54064 0
vn -0.84125 -0.54064 0
vn -0.90963 0.41542 0
vn -0.90963 -0.41541 0
vn 0.69106 -0.7228 0
vn 0.69106 0.7228 0
vn -0.95949 0.28173 0
vn -0.95949 -0.28173 0
vn -0.98982 0.14231 0
vn -0.98982 -0.14231 0
vn 0.73305 -0.68017 0
vn 0.73305 0.68017 0
vn 0.77242 -0.63512 0
vn 0.77242 0.63512 0
vn 0.80902 -0.58779 0
vn 0.80902 0.58779 0
vn 0.84272 -0.53835 0
vn 0.84272 0.53835 0
vn 0.87341 -0.48699 0
vn 0.87341 0.48699 0
vn 0.90097 -0.43388 0
vn 0.90097 0.43388 0
vn 0.9253 -0.37923 0
vn 0.9253 0.37923 0
vn 0.94633 -0.32321 0
vn 0.94633 0.32321 0
vn 0.96396 -0.26604 0
vn 0.96396 0.26604 0
vn 0.97815 -0.20791 0
vn 0.97815 0.20791 0
vn 0.98883 -0.14904 0
vn 0.98883 0.14904 0
vn 0.99597 -0.08964 0
vn 0.99597 0.08964 0
vn 0.99955 -0.02992 0
vn 0.99955 0.02992 0
usemtl mat2
f 17//13 18//13 19//14
f 17//13 20//15 18//13
f 19//14 18//13 21//14
f 22//16 21//16 18//16
f 22//16 18//16 20//16
f 19//17 23//17 17//17
f 24//15 20//15 17//13
f 17//17 23//17 24//17
f 19//14 21//14 25//18
f 25//18 21//14 26//18
f 21//16 27//16 26//16
f 27//16 21//16 22//16
f 25//17 28//17 19//17
f 19//17 28//17 23//17
f 24//15 29//19 20//15
f 29//16 30//16 20//16
f 20//16 31//16 22//16
f 20//16 30//16 31//16
f 32//19 29//19 24//15
f 24//17 33//17 32//17
f 24//17 23//17 34//17
f 34//17 33//17 24//17
f 25//18 26//18 35//20
f 35//20 26//18 36//20
f 37//16 36//16 26//16
f 26//16 27//16 37//16
f 35//17 38//17 25//17
f 25//17 38//17 28//17
f 32//19 39//21 29//19
f 39//16 40//16 29//16
f 29//16 40//16 30//16
f 41//21 39//21 32//19
f 32//17 42//17 41//17
f 32//17 33//17 42//17
f 35//20 36//20 43//22
f 43//22 36//20 44//22
f 37//16 44//16 36//16
f 43//17 38//17 35//17
f 41//21 45//23 39//21
f 45//16 40//16 39//16
f 46//23 45//23 41//21
f 41//17 42//17 46//17
f 43//22 44//22 47//24
f 47//24 44//22 48//24
f 49//16 48//16 44//16
f 49//16 44//16 37//16
f 47//17 50//17 43//17
f 43//17 50//17 38//17
f 46//23 51//25 45//23
f 51//16 52//16 45//16
f 45//16 52//16 40//16
f 53//25 51//25 46//23
f 46//17 54//17 53//17
f 46//17 42//17 54//17
f 47//24 48//24 55//26
f 55//26 48//24 56//26
f 57//16 56//16 48//16
f 57//16 48//16 49//16
f 55//17 58//17 47//17
f 47//17 58//17 50//17
f 53//25 59//27 51//25
f 59//16 60//16 51//16
f 51//16 60//16 52//16
f 61//27 59//27 53//25
f 62//17 61//17 53//17
f 53//17 54//17 62//17
f 55//26 56//26 63//28
f 63//28 56//26 64//28
f 65//16 64//16 56//16
f 65//16 56//16 57//16
f 63//17 66//17 55//17
f 55//17 66//17 58//17
f 61//27 67//29 59//27
f 67//16 60//16 59//16
f 68//29 67//29 61//27
f 62//17 68//17 61//17
f 63//28 64//28 69//30
f 69//30 64//28 70//30
f 71//16 70//16 64//16
f 71//16 64//16 65//16
f 69//17 72//17 63//17
f 63//17 72//17 66//17
f 68//29 73//31 67//29
f 73//16 74//16 67//16
f 67//16 74//16 60//16
f 75//31 73//31 68//29
f 76//17 75//17 68//17
f 76//17 68//17 62//17
f 69//30 70//30 77//32
f 77//32 70//30 78//32
f 79//16 78//16 70//16
f 79//16 70//16 71//16
f 77//17 80//17 69//17
f 69//17 80//17 72//17
f 75//31 81//33 73//31
f 81//16 82//16 73//16
f 73//16 82//16 74//16
f 83//33 81//33 75//31
f 84//17 83//17 75//17
f 84//17 75//17 76//17
f 77//32 78//32 85//34
f 85//34 78//32 86//34
f 87//16 86//16 78//16
f 87//16 78//16 88//16
f 88//16 78//16 79//16
f 89//17 77//17 85//17
f 90//17 77//17 89//17
f 90//17 80//17 77//17
f 83//33 91//35 81//33
f 91//16 92//16 81//16
f 81//16 92//16 82//16
f 93//35 91//35 83//33
f 94//17 93//17 83//17
f 94//17 83//17 84//17
f 85//34 86//34 95//36
f 95//36 86//34 96//36
f 86//16 97//16 96//16
f 97//16 86//16 87//16
f 98//17 85//17 95//17
f 89//17 85//17 98//17
f 93//35 99//37 91//35
f 100//16 91//16 99//16
f 92//16 91//16 100//16
f 101//37 99//37 93//35
f 102//17 101//17 93//17
f 102//17 93//17 94//17
f 95//36 96//36 103//38
f 103//38 96//36 104//38
f 96//16 105//16 104//16
f 96//16 97//16 106//16
f 96//16 106//16 105//16
f 107//17 95//17 103//17
f 98//17 95//17 108//17
f 108//17 95//17 107//17
f 101//37 109//39 99//37
f 110//16 99//16 109//16
f 100//16 99//16 111//16
f 111//16 99//16 112//16
f 112//16 99//16 113//16
f 113//16 99//16 114//16
f 114//16 99//16 115//16
f 115//16 99//16 116//16
f 116//16 99//16 117//16
f 117//16 99//16 110//16
f 118//39 109//39 101//37
f 101//17 119//17 118//17
f 120//17 101//17 102//17
f 120//17 121//17 101//17
f 101//17 121//17 122//17
f 101//17 122//17 123//17
f 123//17 124//17 101//17
f 101//17 124//17 125//17
f 101//17 125//17 126//17
f 126//17 119//17 101//17
f 103//38 104//38 127//40
f 127//40 104//38 128//40
f 104//16 129//16 128//16
f 104//16 105//16 129//16
f 130//17 103//17 127//17
f 107//17 103//17 130//17
f 118//39 131//41 109//39
f 110//16 109//16 131//16
f 132//41 131//41 118//39
f 118//17 119//17 132//17
f 127//40 128//40 133//42
f 133//42 128//40 134//42
f 128//16 135//16 134//16
f 128//16 129//16 136//16
f 128//16 136//16 135//16
f 137//17 127//17 133//17
f 130//17 127//17 138//17
f 138//17 127//17 137//17
f 132//41 139//43 131//41
f 131//16 139//16 110//16
f 140//43 139//43 132//41
f 132//17 119//17 140//17
f 89//44 97//45 87//44
f 89//44 87//44 90//46
f 90//46 87//44 88//46
f 98//45 97//45 89//44
f 98//45 106//47 97//45
f 108//47 106//47 98//45
f 90//46 88//46 80//48
f 80//48 88//46 79//48
f 133//42 134//42 141//49
f 141//49 134//42 142//49
f 134//16 143//16 142//16
f 134//16 135//16 144//16
f 134//16 144//16 143//16
f 145//17 133//17 141//17
f 137//17 133//17 146//17
f 146//17 133//17 145//17
f 140//43 147//50 139//43
f 110//16 139//16 147//16
f 148//50 147//50 140//43
f 140//17 119//17 148//17
f 108//47 105//51 106//47
f 107//51 105//51 108//47
f 80//48 79//48 72//52
f 72//52 79//48 71//52
f 107//51 129//53 105//51
f 130//53 129//53 107//51
f 72//52 71//52 66//54
f 66//54 71//52 65//54
f 130//53 136//55 129//53
f 138//55 136//55 130//53
f 66//54 65//54 58//56
f 58//56 65//54 57//56
f 138//55 135//57 136//55
f 137//57 135//57 138//55
f 58//56 57//56 50//58
f 50//58 57//56 49//58
f 141//49 142//49 149//59
f 149//59 142//49 150//59
f 142//16 151//16 150//16
f 142//16 143//16 151//16
f 152//17 141//17 149//17
f 145//17 141//17 152//17
f 148//50 153//60 147//50
f 110//16 147//16 153//16
f 154//60 153//60 148//50
f 148//17 119//17 154//17
f 137//57 144//61 135//57
f 146//61 144//61 137//57
f 50//58 49//58 38//62
f 38//62 49//58 37//62
f 102//63 92//64 100//63
f 102//63 100//63 120//65
f 120//65 100//63 111//65
f 94//64 92//64 102//63
f 146//61 143//66 144//61
f 145//66 143//66 146//61
f 38//62 37//62 28//67
f 28//67 37//62 27//67
f 94//64 82//68 92//64
f 84//68 82//68 94//64
f 120//65 111//65 121//69
f 121//69 111//65 112//69
f 84//68 74//70 82//68
f 76//70 74//70 84//68
f 121//69 112//69 122//71
f 122//71 112//69 113//71
f 76//70 60//72 74//70
f 62//72 60//72 76//70
f 122//71 113//71 123//73
f 123//73 113//71 114//73
f 149//59 150//59 155//74
f 150//16 151//16 156//16
f 155//74 150//59 157//74
f 150//16 158//16 157//16
f 150//16 156//16 158//16
f 152//17 149//17 159//17
f 160//17 149//17 155//17
f 159//17 149//17 160//17
f 154//60 161//75 153//60
f 153//16 161//16 110//16
f 162//75 161//75 154//60
f 154//17 119//17 162//17
f 145//66 151//76 143//66
f 152//76 151//76 145//66
f 28//67 27//67 23//77
f 23//77 27//67 22//77
f 62//72 52//78 60//72
f 54//78 52//78 62//72
f 123//73 114//73 124//79
f 124//79 114//73 115//79
f 54//78 40//80 52//78
f 42//80 40//80 54//78
f 124//79 115//79 125//81
f 125//81 115//79 116//81
f 152//76 156//82 151//76
f 159//82 156//82 152//76
f 23//77 22//77 34//83
f 34//83 22//77 31//83
f 42//80 30//84 40//80
f 33//84 30//84 42//80
f 125//81 116//81 126//85
f 126//85 116//81 117//85
f 155//74 157//74 163//86
f 157//16 158//16 164//16
f 157//16 164//16 165//16
f 163//86 157//74 165//86
f 160//17 155//17 166//17
f 166//17 155//17 163//17
f 162//75 167//87 161//75
f 161//16 168//16 110//16
f 161//16 169//16 168//16
f 167//16 169//16 161//16
f 162//17 119//17 170//17
f 162//17 170//17 171//17
f 172//87 167//87 162//75
f 162//17 171//17 172//17
f 159//82 158//88 156//82
f 160//88 158//88 159//82
f 34//83 31//83 173//89
f 30//16 174//16 31//16
f 173//89 31//83 175//89
f 31//16 174//16 175//16
f 34//17 176//17 33//17
f 173//17 176//17 34//17
f 33//84 174//90 30//84
f 176//90 174//90 33//84
f 126//85 117//85 119//91
f 119//91 117//85 110//91
f 160//88 164//92 158//88
f 166//92 164//92 160//88
f 173//89 175//89 177//93
f 175//16 174//16 178//16
f 177//93 175//89 178//93
f 177//17 176//17 173//17
f 176//90 179//94 174//90
f 178//16 174//16 179//16
f 180//94 179//94 176//90
f 180//17 176//17 177//17
f 119//91 110//91 170//95
f 170//95 110//91 168//95
f 180//94 181//96 179//94
f 178//16 179//16 181//16
f 177//17 182//17 180//17
f 182//96 181//96 180//94
f 170//95 168//95 171//97
f 171//97 168//95 169//97
f 166//92 183//98 164//92
f 165//16 164//16 183//16
f 166//17 163//17 184//17
f 184//98 183//98 166//92
f 177//93 178//93 185//99
f 181//16 186//16 178//16
f 185//99 178//93 187//99
f 188//16 187//16 178//16
f 178//16 186//16 189//16
f 178//16 189//16 190//16
f 190//16 191//16 178//16
f 178//16 191//16 192//16
f 178//16 192//16 193//16
f 193//16 188//16 178//16
f 177//17 194//17 182//17
f 195//17 177//17 185//17
f 196//17 194//17 177//17
f 197//17 196//17 177//17
f 197//17 177//17 198//17
f 198//17 177//17 199//17
f 199//17 177//17 200//17
f 200//17 177//17 195//17
f 163//86 165//86 201//100
f 165//16 183//16 202//16
f 165//16 202//16 203//16
f 201//100 165//86 203//100
f 184//17 163//17 204//17
f 204//17 163//17 201//17
f 172//87 205//101 167//87
f 167//16 206//16 169//16
f 205//16 206//16 167//16
f 172//17 171//17 207//17
f 172//17 207//17 208//17
f 208//101 205//101 172//87
f 182//96 186//102 181//96
f 194//102 186//102 182//96
f 171//97 169//97 207//103
f 207//103 169//97 206//103
f 184//98 202//104 183//98
f 204//104 202//104 184//98
f 185//99 187//99 209//105
f 209//105 187//99 210//105
f 188//16 210//16 187//16
f 195//17 185//17 209//17
f 194//102 189//106 186//102
f 196//106 189//106 194//102
f 207//103 206//103 211//107
f 211//107 206//103 212//107
f 213//16 212//16 206//16
f 213//16 206//16 205//16
f 214//17 207//17 211//17
f 208//17 207//17 214//17
f 196//106 215//108 189//106
f 216//16 189//16 215//16
f 190//16 189//16 216//16
f 217//108 215//108 196//106
f 218//17 217//17 196//17
f 218//17 196//17 197//17
f 211//107 212//107 219//109
f 219//109 212//107 220//109
f 221//16 220//16 212//16
f 221//16 212//16 213//16
f 222//17 211//17 219//17
f 214//17 211//17 222//17
f 204//104 223//110 202//104
f 203//16 202//16 223//16
f 204//17 201//17 224//17
f 224//110 223//110 204//104
f 209//105 210//105 225//111
f 225//111 210//105 226//111
f 226//16 210//16 188//16
f 209//17 225//17 195//17
f 217//108 227//112 215//108
f 228//16 215//16 227//16
f 216//16 215//16 228//16
f 229//112 227//112 217//108
f 230//17 229//17 217//17
f 230//17 217//17 218//17
f 219//109 220//109 231//113
f 231//113 220//109 232//113
f 233//16 232//16 220//16
f 234//16 220//16 221//16
f 233//16 220//16 234//16
f 235//17 219//17 231//17
f 222//17 219//17 236//17
f 236//17 219//17 235//17
f 201//100 203//100 237//114
f 203//16 223//16 238//16
f 237//114 203//100 238//114
f 224//17 201//17 237//17
f 208//101 213//115 205//101
f 214//115 213//115 208//101
f 229//112 239//116 227//112
f 240//16 227//16 239//16
f 228//16 227//16 240//16
f 241//116 239//116 229//112
f 242//17 241//17 229//17
f 242//17 229//17 230//17
f 231//113 232//113 243//117
f 243//117 232//113 244//117
f 245//16 244//16 232//16
f 246//16 232//16 233//16
f 245//16 232//16 246//16
f 247//17 231//17 243//17
f 235//17 231//17 248//17
f 248//17 231//17 247//17
f 241//116 249//118 239//116
f 250//16 239//16 249//16
f 240//16 239//16 250//16
f 251//118 249//118 241//116
f 252//17 251//17 241//17
f 252//17 241//17 242//17
f 243//117 244//117 251//118
f 251//118 244//117 249//118
f 253//16 249//16 244//16
f 253//16 244//16 245//16
f 254//17 243//17 251//17
f 247//17 243//17 254//17
f 224//110 255//119 223//110
f 238//16 223//16 255//16
f 256//119 255//119 224//110
f 224//17 237//17 256//17
f 225//111 226//111 257//120
f 257//120 226//111 258//120
f 188//16 258//16 226//16
f 195//17 225//17 257//17
f 250//16 249//16 259//16
f 259//16 249//16 253//16
f 260//17 251//17 252//17
f 254//17 251//17 260//17
f 256//119 261//121 255//119
f 262//16 255//16 261//16
f 238//16 255//16 262//16
f 263//121 261//121 256//119
f 256//17 264//17 263//17
f 256//17 237//17 264//17
f 257//120 258//120 265//122
f 265//122 258//120 266//122
f 188//16 266//16 258//16
f 195//17 257//17 265//17
f 263//121 267//123 261//121
f 268//16 261//16 267//16
f 262//16 261//16 268//16
f 269//123 267//123 263//121
f 263//17 270//17 269//17
f 263//17 264//17 270//17
f 265//122 266//122 271//124
f 271//124 266//122 272//124
f 273//16 272//16 266//16
f 273//16 266//16 188//16
f 274//17 265//17 271//17
f 195//17 265//17 274//17
f 237//114 238//114 264//125
f 264//125 238//114 262//125
f 214//115 221//126 213//115
f 222//126 221//126 214//115
f 269//123 275//127 267//123
f 276//16 267//16 275//16
f 268//16 267//16 277//16
f 277//16 267//16 276//16
f 278//127 275//127 269//123
f 279//17 278//17 269//17
f 269//17 270//17 280//17
f 269//17 280//17 279//17
f 271//124 272//124 281//128
f 281//128 272//124 282//128
f 283//16 282//16 272//16
f 283//16 272//16 273//16
f 284//17 271//17 281//17
f 274//17 271//17 284//17
f 278//127 285//129 275//127
f 286//16 275//16 285//16
f 276//16 275//16 286//16
f 287//129 285//129 278//127
f 278//17 288//17 287//17
f 288//17 278//17 279//17
f 281//128 282//128 289//130
f 289//130 282//128 290//130
f 291//16 290//16 282//16
f 291//16 282//16 283//16
f 292//17 281//17 289//17
f 284//17 281//17 292//17
f 287//129 293//131 285//129
f 294//16 285//16 293//16
f 286//16 285//16 295//16
f 295//16 285//16 294//16
f 296//131 293//131 287//129
f 287//17 297//17 296//17
f 287//17 288//17 298//17
f 287//17 298//17 297//17
f 289//130 290//130 299//132
f 299//132 290//130 300//132
f 301//16 300//16 290//16
f 301//16 290//16 291//16
f 302//17 289//17 299//17
f 292//17 289//17 302//17
f 296//131 303//13 293//131
f 304//16 293//16 303//16
f 294//16 293//16 305//16
f 305//16 293//16 304//16
f 306//13 303//13 296//131
f 307//17 306//17 296//17
f 296//17 297//17 308//17
f 296//17 308//17 307//17
f 299//132 300//132 306//13
f 306//13 300//132 303//13
f 304//16 303//16 300//16
f 304//16 300//16 301//16
f 307//17 299//17 306//17
f 302//17 299//17 307//17
f 264//125 262//125 270//133
f 270//133 262//125 268//133
f 222//126 234//134 221//126
f 236//134 234//134 222//126
f 270//133 268//133 280//135
f 280//135 268//133 277//135
f 236//134 233//136 234//134
f 235//136 233//136 236//134
f 280//135 277//135 279//137
f 279//137 277//135 276//137
f 235//136 246//138 233//136
f 248//138 246//138 235//136
f 279//137 276//137 288//139
f 288//139 276//137 286//139
f 248//138 245//140 246//138
f 247//140 245//140 248//138
f 288//139 286//139 298//141
f 298//141 286//139 295//141
f 247//140 309//142 245//140
f 309//16 310//16 245//16
f 245//16 310//16 253//16
f 311//142 309//142 247//140
f 247//17 312//17 311//17
f 254//17 312//17 247//17
f 298//141 295//141 297//143
f 297//143 295//141 294//143
f 311//142 313//144 309//142
f 313//16 310//16 309//16
f 314//144 313//144 311//142
f 311//17 312//17 314//17
f 297//143 294//143 315//145
f 315//145 294//143 316//145
f 294//16 305//16 316//16
f 315//17 308//17 297//17
f 314//144 317//146 313//144
f 317//16 318//16 313//16
f 313//16 318//16 310//16
f 319//146 317//146 314//144
f 314//17 320//17 319//17
f 314//17 312//17 320//17
f 315//145 316//145 321//147
f 321//147 316//145 322//147
f 316//16 323//16 322//16
f 316//16 305//16 323//16
f 321//17 324//17 315//17
f 315//17 324//17 308//17
f 319//146 325//148 317//146
f 325//16 318//16 317//16
f 326//148 325//148 319//146
f 319//17 320//17 326//17
f 321//147 322//147 327//149
f 327//149 322//147 328//149
f 322//16 323//16 328//16
f 327//17 324//17 321//17
f 326//148 329//150 325//148
f 329//16 330//16 325//16
f 325//16 330//16 318//16
f 331//150 329//150 326//148
f 326//17 332//17 331//17
f 326//17 320//17 332//17
f 327//149 328//149 333//151
f 333//151 328//149 334//151
f 328//16 335//16 334//16
f 328//16 323//16 335//16
f 333//17 336//17 327//17
f 327//17 336//17 324//17
f 331//150 337//152 329//150
f 337//16 338//16 329//16
f 329//16 338//16 330//16
f 339//152 337//152 331//150
f 331//17 340//17 339//17
f 331//17 332//17 340//17
f 333//151 334//151 341//153
f 341//153 334//151 342//153
f 334//16 335//16 342//16
f 341//17 336//17 333//17
f 339//152 343//154 337//152
f 343//16 344//16 337//16
f 337//16 344//16 338//16
f 345//154 343//154 339//152
f 339//17 346//17 345//17
f 339//17 340//17 346//17
f 260//44 250//155 259//44
f 260//44 259//44 254//156
f 254//156 259//44 253//156
f 252//155 250//155 260//44
f 252//155 240//157 250//155
f 242//157 240//157 252//155
f 254//156 253//156 312//158
f 312//158 253//156 310//158
f 242//157 228//159 240//157
f 230//159 228//159 242//157
f 312//158 310//158 320//160
f 320//160 310//158 318//160
f 341//153 342//153 347//161
f 347//161 342//153 348//161
f 342//16 349//16 348//16
f 342//16 335//16 349//16
f 347//17 350//17 341//17
f 341//17 350//17 336//17
f 345//154 351//162 343//154
f 343//16 352//16 344//16
f 351//16 352//16 343//16
f 345//17 346//17 353//17
f 354//162 351//162 345//154
f 345//17 353//17 354//17
f 230//159 216//163 228//159
f 218//163 216//163 230//159
f 320//160 318//160 332//164
f 332//164 318//160 330//164
f 218//163 190//165 216//163
f 197//165 190//165 218//163
f 332//164 330//164 340//166
f 340//166 330//164 338//166
f 197//165 191//167 190//165
f 198//167 191//167 197//165
f 340//166 338//166 346//168
f 346//168 338//166 344//168
f 198//167 192//169 191//167
f 199//169 192//169 198//167
f 346//168 344//168 353//170
f 353//170 344//168 352//170
f 347//161 348//161 355//171
f 348//16 349//16 356//16
f 355//171 348//161 357//171
f 348//16 356//16 357//16
f 347//17 358//17 350//17
f 355//17 358//17 347//17
f 354//162 359//172 351//162
f 351//16 360//16 352//16
f 359//16 360//16 351//16
f 354//17 353//17 361//17
f 354//17 361//17 362//17
f 362//172 359//172 354//162
f 307//173 305//174 304//173
f 307//173 304//173 302//175
f 302//175 304//173 301//175
f 308//174 305//174 307//173
f 199//169 193//176 192//169
f 200//176 193//176 199//169
f 353//170 352//170 361//177
f 361//177 352//170 360//177
f 308//174 323//178 305//174
f 324//178 323//178 308//174
f 302//175 301//175 292//179
f 292//179 301//175 291//179
f 324//178 335//180 323//178
f 336//180 335//180 324//178
f 292//179 291//179 284//181
f 284//181 291//179 283//181
f 336//180 349//182 335//180
f 350//182 349//182 336//180
f 284//181 283//181 274//73
f 274//73 283//181 273//73
f 200//176 188//183 193//176
f 195//183 188//183 200//176
f 361//177 360//177 363//184
f 359//16 364//16 360//16
f 363//184 360//177 364//184
f 362//17 361//17 363//17
f 350//182 356//185 349//182
f 358//185 356//185 350//182
f 274//73 273//73 365//186
f 365//186 273//73 366//186
f 366//16 273//16 188//16
f 274//17 365//17 195//17
f 355//171 357//171 367//187
f 357//16 356//16 368//16
f 357//16 368//16 369//16
f 367//187 357//171 369//187
f 355//17 370//17 358//17
f 367//17 370//17 355//17
f 362//172 371//188 359//172
f 371//16 364//16 359//16
f 362//17 363//17 372//17
f 372//188 371//188 362//172
f 358//185 368//189 356//185
f 370//189 368//189 358//185
f 365//186 366//186 373//190
f 188//16 374//16 366//16
f 373//190 366//186 374//190
f 195//17 365//17 373//17
f 195//183 375//191 188//183
f 188//16 376//16 374//16
f 188//16 375//16 377//16
f 377//16 376//16 188//16
f 195//17 373//17 378//17
f 379//191 375//191 195//183
f 380//17 379//17 195//17
f 378//17 381//17 195//17
f 195//17 381//17 382//17
f 195//17 382//17 383//17
f 195//17 383//17 380//17
f 363//184 364//184 384//192
f 384//192 364//184 385//192
f 371//16 385//16 364//16
f 372//17 363//17 384//17
f 370//189 386//193 368//189
f 369//16 368//16 386//16
f 387//193 386//193 370//189
f 367//17 387//17 370//17
f 373//190 374//190 378//194
f 378//194 374//190 376//194
f 379//191 388//88 375//191
f 377//16 375//16 388//16
f 389//88 388//88 379//191
f 380//17 389//17 379//17
f 384//192 385//192 390//89
f 390//89 385//192 391//89
f 392//16 391//16 385//16
f 392//16 385//16 371//16
f 393//17 384//17 390//17
f 372//17 384//17 393//17
f 387//193 394//195 386//193
f 369//16 386//16 395//16
f 395//16 386//16 394//16
f 396//17 387//17 367//17
f 397//195 394//195 387//193
f 396//17 397//17 387//17
f 378//194 376//194 381//196
f 381//196 376//194 398//196
f 377//16 398//16 376//16
f 367//187 369//187 396//197
f 396//197 369//187 395//197
f 397//195 399//198 394//195
f 400//16 394//16 399//16
f 395//16 394//16 400//16
f 401//198 399//198 397//195
f 402//17 401//17 397//17
f 402//17 397//17 396//17
f 381//196 398//196 382//199
f 382//199 398//196 403//199
f 377//16 403//16 398//16
f 389//88 404//200 388//88
f 405//16 388//16 404//16
f 377//16 388//16 406//16
f 406//16 388//16 405//16
f 407//200 404//200 389//88
f 408//17 407//17 389//17
f 409//17 389//17 380//17
f 408//17 389//17 409//17
f 390//89 391//89 410//201
f 410//201 391//89 411//201
f 412//16 411//16 391//16
f 413//16 391//16 392//16
f 414//16 391//16 413//16
f 415//16 391//16 414//16
f 412//16 391//16 415//16
f 416//17 390//17 410//17
f 393//17 390//17 417//17
f 417//17 390//17 418//17
f 418//17 390//17 419//17
f 419//17 390//17 416//17
f 372//188 392//202 371//188
f 393//202 392//202 372//188
f 401//198 420//203 399//198
f 421//16 399//16 420//16
f 400//16 399//16 421//16
f 422//203 420//203 401//198
f 423//17 422//17 401//17
f 423//17 401//17 402//17
f 382//199 403//199 383//204
f 383//204 403//199 424//204
f 424//16 403//16 377//16
f 407//200 425//205 404//200
f 426//16 404//16 425//16
f 405//16 404//16 427//16
f 427//16 404//16 426//16
f 428//205 425//205 407//200
f 429//17 428//17 407//17
f 430//17 407//17 408//17
f 429//17 407//17 430//17
f 410//201 411//201 431//206
f 431//206 411//201 432//206
f 432//16 411//16 412//16
f 416//17 410//17 431//17
f 422//203 433//207 420//203
f 421//16 420//16 433//16
f 434//207 433//207 422//203
f 423//17 434//17 422//17
f 383//204 424//204 435//208
f 435//208 424//204 436//208
f 377//16 436//16 424//16
f 380//17 383//17 435//17
f 428//205 437//209 425//205
f 438//16 425//16 437//16
f 426//16 425//16 439//16
f 439//16 425//16 438//16
f 440//209 437//209 428//205
f 441//17 440//17 428//17
f 442//17 428//17 429//17
f 441//17 428//17 442//17
f 431//206 432//206 443//210
f 443//210 432//206 444//210
f 412//16 444//16 432//16
f 431//17 443//17 416//17
f 396//197 395//197 402//211
f 402//211 395//197 400//211
f 393//202 413//212 392//202
f 417//212 413//212 393//202
f 434//207 445//106 433//207
f 446//16 433//16 445//16
f 421//16 433//16 446//16
f 447//106 445//106 434//207
f 448//17 447//17 434//17
f 448//17 434//17 423//17
f 435//208 436//208 449//213
f 449//213 436//208 450//213
f 377//16 450//16 436//16
f 380//17 435//17 449//17
f 447//106 451//214 445//106
f 452//16 445//16 451//16
f 446//16 445//16 452//16
f 453//214 451//214 447//106
f 454//17 453//17 447//17
f 454//17 447//17 448//17
f 449//213 450//213 455//215
f 455//215 450//213 456//215
f 457//16 456//16 450//16
f 457//16 450//16 377//16
f 458//17 449//17 455//17
f 380//17 449//17 458//17
f 440//209 459//216 437//209
f 460//16 437//16 459//16
f 461//16 437//16 460//16
f 438//16 437//16 461//16
f 462//216 459//216 440//209
f 463//17 462//17 440//17
f 463//17 440//17 464//17
f 464//17 440//17 441//17
f 443//210 444//210 465//217
f 465//217 444//210 466//217
f 412//16 466//16 444//16
f 416//17 443//17 465//17
f 453//214 467//218 451//214
f 452//16 451//16 467//16
f 468//218 467//218 453//214
f 454//17 468//17 453//17
f 455//215 456//215 469//219
f 469//219 456//215 470//219
f 471//16 470//16 456//16
f 471//16 456//16 457//16
f 472//17 455//17 469//17
f 458//17 455//17 472//17
f 468//218 473//220 467//218
f 474//16 467//16 473//16
f 452//16 467//16 474//16
f 475//220 473//220 468//218
f 476//17 475//17 468//17
f 476//17 468//17 454//17
f 469//219 470//219 477//221
f 477//221 470//219 478//221
f 479//16 478//16 470//16
f 479//16 470//16 471//16
f 480//17 469//17 477//17
f 472//17 469//17 480//17
f 475//220 481//222 473//220
f 482//16 473//16 481//16
f 474//16 473//16 482//16
f 483//222 481//222 475//220
f 484//17 483//17 475//17
f 484//17 475//17 476//17
f 477//221 478//221 483//222
f 483//222 478//221 481//222
f 485//16 481//16 478//16
f 485//16 478//16 479//16
f 486//17 477//17 483//17
f 480//17 477//17 486//17
f 462//216 487//223 459//216
f 488//16 459//16 487//16
f 460//16 459//16 488//16
f 489//223 487//223 462//216
f 490//17 489//17 462//17
f 490//17 462//17 463//17
f 465//217 466//217 491//224
f 491//224 466//217 492//224
f 492//16 466//16 412//16
f 416//17 465//17 491//17
f 482//16 481//16 485//16
f 486//17 483//17 484//17
f 402//211 400//211 423//225
f 423//225 400//211 421//225
f 417//212 414//226 413//212
f 418//226 414//226 417//212
f 489//223 493//227 487//223
f 494//16 487//16 493//16
f 488//16 487//16 494//16
f 495//227 493//227 489//223
f 489//17 496//17 495//17
f 496//17 489//17 490//17
f 491//224 492//224 497//228
f 497//228 492//224 498//228
f 412//16 498//16 492//16
f 491//17 497//17 416//17
f 495//227 499//229 493//227
f 500//16 493//16 499//16
f 501//16 493//16 500//16
f 494//16 493//16 501//16
f 502//229 499//229 495//227
f 503//17 502//17 495//17
f 495//17 504//17 503//17
f 495//17 496//17 504//17
f 497//228 498//228 505//230
f 505//230 498//228 506//230
f 412//16 506//16 498//16
f 416//17 497//17 505//17
f 502//229 507//231 499//229
f 500//16 499//16 507//16
f 508//231 507//231 502//229
f 503//17 508//17 502//17
f 505//230 506//230 509//232
f 509//232 506//230 510//232
f 511//16 510//16 506//16
f 511//16 506//16 412//16
f 512//17 505//17 509//17
f 416//17 505//17 512//17
f 423//225 421//225 448//233
f 448//233 421//225 446//233
f 418//226 415//234 414//226
f 419//234 415//234 418//226
f 508//231 513//235 507//231
f 514//16 507//16 513//16
f 500//16 507//16 514//16
f 515//235 513//235 508//231
f 516//17 515//17 508//17
f 516//17 508//17 503//17
f 509//232 510//232 517//236
f 517//236 510//232 518//236
f 511//16 518//16 510//16
f 512//17 509//17 517//17
f 515//235 519//237 513//235
f 520//16 513//16 519//16
f 514//16 513//16 520//16
f 521//237 519//237 515//235
f 522//17 521//17 515//17
f 522//17 515//17 516//17
f 517//236 518//236 523//238
f 523//238 518//236 524//238
f 525//16 524//16 518//16
f 525//16 518//16 511//16
f 526//17 517//17 523//17
f 512//17 517//17 526//17
f 521//237 527//13 519//237
f 528//16 519//16 527//16
f 520//16 519//16 528//16
f 529//13 527//13 521//237
f 530//17 529//17 521//17
f 530//17 521//17 522//17
f 523//238 524//238 529//13
f 529//13 524//238 527//13
f 525//16 527//16 524//16
f 526//17 523//17 529//17
f 528//16 527//16 525//16
f 526//17 529//17 530//17
f 448//233 446//233 454//239
f 454//239 446//233 452//239
f 419//234 412//240 415//234
f 416//240 412//240 419//234
f 454//239 452//239 476//241
f 476//241 452//239 474//241
f 416//240 511//242 412//240
f 512//242 511//242 416//240
f 476//241 474//241 484//243
f 484//243 474//241 482//243
f 512//242 525//244 511//242
f 526//244 525//244 512//242
f 484//243 482//243 486//245
f 486//245 482//243 485//245
f 526//244 528//246 525//244
f 530//246 528//246 526//244
f 486//245 485//245 480//247
f 480//247 485//245 479//247
f 530//246 520//248 528//246
f 522//248 520//248 530//246
f 480//247 479//247 472//249
f 472//249 479//247 471//249
f 522//248 514//250 520//248
f 516//250 514//250 522//248
f 472//249 471//249 458//251
f 458//251 471//249 457//251
f 516//250 500//252 514//250
f 503//252 500//252 516//250
f 458//251 457//251 380//253
f 380//253 457//251 377//253
f 503//252 501//254 500//252
f 504//254 501//254 503//252
f 380//253 377//253 409//255
f 409//255 377//253 406//255
f 504//254 494//256 501//254
f 496//256 494//256 504//254
f 409//255 406//255 408//257
f 408//257 406//255 405//257
f 496//256 488//258 494//256
f 490//258 488//258 496//256
f 408//257 405//257 430//259
f 430//259 405//257 427//259
f 490//258 460//260 488//258
f 463//260 460//260 490//258
f 430//259 427//259 429//261
f 429//261 427//259 426//261
f 463//260 461//262 460//260
f 464//262 461//262 463//260
f 429//261 426//261 442//263
f 442//263 426//261 439//263
f 464//262 438//264 461//262
f 441//264 438//264 464//262
f 442//263 439//263 441//264
f 441//264 439//263 438//264
# Vertices: 514, normals: 252, texture coordinates: 0, faces: 1040

